<?xml version="1.0" encoding="UTF-8" standalone="no"?>
<!-- Created with Inkscape (http://www.inkscape.org/) -->

<svg
   width="32mm"
   height="32mm"
   viewBox="0 0 32 32"
   version="1.1"
   id="svg1"
   inkscape:export-filename="bitmap.png"
   inkscape:export-xdpi="25.400002"
   inkscape:export-ydpi="25.400002"
   inkscape:version="1.3.2 (091e20ef0f, 2023-11-25, custom)"
   sodipodi:docname="cdiconsmall.svg"
   xmlns:inkscape="http://www.inkscape.org/namespaces/inkscape"
   xmlns:sodipodi="http://sodipodi.sourceforge.net/DTD/sodipodi-0.dtd"
   xmlns:xlink="http://www.w3.org/1999/xlink"
   xmlns="http://www.w3.org/2000/svg"
   xmlns:svg="http://www.w3.org/2000/svg">
  <sodipodi:namedview
     id="namedview1"
     pagecolor="#ffffff"
     bordercolor="#000000"
     borderopacity="0.25"
     inkscape:showpageshadow="2"
     inkscape:pageopacity="0.0"
     inkscape:pagecheckerboard="0"
     inkscape:deskcolor="#d1d1d1"
     inkscape:document-units="mm"
     inkscape:zoom="3.3638608"
     inkscape:cx="22.593087"
     inkscape:cy="63.320099"
     inkscape:window-width="1920"
     inkscape:window-height="1178"
     inkscape:window-x="0"
     inkscape:window-y="0"
     inkscape:window-maximized="0"
     inkscape:current-layer="layer1" />
  <defs
     id="defs1">
    <radialGradient
       inkscape:collect="always"
       xlink:href="#linearGradient9"
       id="radialGradient10"
       cx="84.269485"
       cy="151.85632"
       fx="84.269485"
       fy="151.85632"
       r="84.817589"
       gradientUnits="userSpaceOnUse"
       gradientTransform="matrix(0.20536063,0.19865789,-0.15777908,0.16299501,10.650989,-28.413309)" />
    <linearGradient
       id="linearGradient9"
       inkscape:collect="always">
      <stop
         style="stop-color:#101010;stop-opacity:1;"
         offset="0"
         id="stop9" />
      <stop
         style="stop-color:#696969;stop-opacity:1;"
         offset="1"
         id="stop10" />
    </linearGradient>
  </defs>
  <g
     inkscape:label="Layer 1"
     inkscape:groupmode="layer"
     id="layer1">
    <path
       id="path10"
       style="fill:url(#radialGradient10);fill-opacity:1;stroke:#ffffff;stroke-width:0.172496;stroke-opacity:1"
       d="M 16.002347,1.3515523 A 14.546789,14.541992 0 0 0 1.4555513,15.893553 14.546789,14.541992 0 0 0 16.002347,30.435466 14.546789,14.541992 0 0 0 30.549056,15.893553 14.546789,14.541992 0 0 0 16.002347,1.3515523 Z m 0,11.3276367 a 3.2153793,3.2143193 0 0 1 3.215336,3.214364 3.2153793,3.2143193 0 0 1 -3.215336,3.214276 3.2153793,3.2143193 0 0 1 -3.215422,-3.214276 3.2153793,3.2143193 0 0 1 3.215422,-3.214364 z"
       inkscape:label="under_cd" />
    <path
       id="path1013"
       style="fill:#9e9e9e;stroke-width:0.126778;fill-opacity:1"
       inkscape:label="waylogo"
       d="m 8.3479479,3.6703449 c -0.7773301,0 -1.3229498,0.5919049 -1.6371332,1.7746473 v 1.8923811 l 0.7192935,4.4352807 v 1.389808 l 0.09914,1.774648 c -0.2975805,0 -0.4463929,0.06898 -0.4463939,0.206947 v 0.118357 l 0.4463939,-0.118357 h 0.099228 v 3.075953 c 0.2317483,2.050143 0.6617178,3.874638 1.2899689,5.470731 0.066063,1.124188 0.1901275,1.686062 0.3719497,1.686058 0.2975795,1.124187 0.5126052,1.686059 0.6448506,1.686057 0.8429306,1.124187 1.8937156,1.932537 3.1499876,2.425346 0.446312,0 0.818446,-0.562425 1.116026,-1.686057 0.380364,-2.423902 0.686237,-3.90302 0.917751,-4.435282 0.214913,0.21678 0.586844,0.364634 1.115939,0.443484 v -0.118269 c 0,-0.197123 -0.338857,-0.4041 -1.016799,-0.621021 0.181822,-0.946858 0.429806,-1.754978 0.743988,-2.425254 0.01881,-0.430892 0.114274,-0.925007 0.28565,-1.481784 a 3.2418324,3.2407637 0 0 1 -0.285202,0.01319 3.2418324,3.2407637 0 0 1 -2.170899,-0.839465 c -0.13967,0.247155 -0.253053,0.383509 -0.334238,0.383504 H 13.25899 l -0.372038,-0.295714 c -0.628598,-1.694378 -1.058363,-4.188898 -1.28988,-7.480755 h -0.17358 v -0.206945 h 0.07435 c 0.115643,-0.413905 0.338967,-0.7391596 0.669638,-0.9757363 v -0.08877 L 12.068249,9.5550618 11.96902,9.6733296 11.869881,9.5550618 11.423399,9.6733296 H 11.22503 c -0.115641,0 -0.297618,-0.453366 -0.54562,-1.3602177 V 8.0765741 h 0.644852 V 7.8696273 H 10.480955 C 10.266158,6.7857238 9.5556299,5.4540079 8.3481267,3.8772946 l 0.2975956,0.08868 0.2728104,-0.08868 0.3720393,0.08868 0.743989,-0.08868 h 0.07436 l 0.09923,0.08868 0.570406,-0.08868 h 1.01689 c 0.297695,0 0.603566,0.1085238 0.91775,0.3253047 0.148848,-0.1971515 0.429879,-0.3055643 0.843218,-0.3253047 V 3.6703477 Z m 6.4976261,0 v 0.206947 h 0.743989 l 0.173585,0.2069472 0.471265,-0.2069472 0.545534,0.08868 0.570496,-0.08868 V 3.6703449 H 14.84602 Z m 5.178148,1.6854337 -0.371948,0.2069472 v 0.206947 l 0.272809,0.1182684 V 5.7696728 l 0.09923,-0.1182682 c 0.181891,0 0.272797,-0.068933 0.272808,-0.2069472 v -0.08868 H 20.023813 Z M 18.63515,6.5090498 v 1.385e-4 l 3.46e-4,-1.385e-4 z m 0,1.385e-4 -0.470909,0.2067684 h -0.07444 L 17.990656,6.627278 17.445035,6.9229931 V 7.1299399 C 18.238274,6.9526115 18.63514,6.7849483 18.63515,6.627278 Z m 9.072126,0.7192353 c -0.595627,1.399523 -1.41184,3.8048514 -2.122757,6.3478024 H 23.74893 l -0.942446,0.08867 v 0.236537 h 0.471266 l 0.37204,-0.118269 1.56278,0.206948 v 0.118358 c -0.446431,1.537399 -0.719244,2.306197 -0.818434,2.306185 -0.578439,2.877952 -1.041502,4.317645 -1.388661,4.317637 H 22.70788 c -0.413107,-0.37376 -0.876081,-1.143188 -1.388574,-2.306275 0,-0.275889 -0.09108,-0.522278 -0.2729,-0.739199 l -1.388572,-3.075863 c -0.281093,-1.30124 -0.653113,-2.277211 -1.116029,-2.92783 -0.148732,-0.433562 -0.396919,-0.650412 -0.744078,-0.650432 h -0.173493 c -0.545467,0 -1.074596,0.384346 -1.587208,1.153185 l 0.09923,0.325305 c -0.01759,0.05999 -0.04159,0.125785 -0.0608,0.187248 a 3.2418324,3.2407637 0 0 1 3.128945,3.237984 3.2418324,3.2407637 0 0 1 -0.742295,2.063322 c 0.02597,0.104996 0.05091,0.212834 0.07979,0.309887 0.677945,1.380141 1.016879,2.681548 1.01689,3.903741 0,0.47343 0.528925,2.059827 1.587118,4.760588 0.285419,1.9142 -0.316131,2.780813 3.149628,1.03411 0.727871,-1.576852 1.314897,-2.454113 1.761327,-2.631579 -1.17e-4,-0.137946 -0.157086,-0.206943 -0.47127,-0.206946 v -0.118265 c 0.248004,0 0.372021,-0.06894 0.37204,-0.206946 v -0.08868 l -0.09923,-0.118267 1.041676,-0.414072 c 0,-0.354795 -0.123948,-0.532248 -0.37195,-0.532253 v -0.118267 h 0.743988 V 23.36584 c -0.380249,0 -0.628267,-0.206976 -0.743988,-0.62102 h 0.173582 v -0.414072 l -0.09923,-0.118268 c 0.562185,0 0.843286,-0.108385 0.843306,-0.325305 v -0.08868 H 27.2722 v -0.118266 c 0.198427,0 0.347172,-0.206977 0.446393,-0.621023 -0.545582,-0.177465 -0.818451,-0.354784 -0.818432,-0.53225 l 0.719294,-2.099951 c 0,-1.064526 0.190043,-2.228203 0.570408,-3.48985 0.429939,-1.222334 0.9529,-3.312273 1.134838,-4.751942 z M 15.953311,7.5735137 14.464887,7.9875858 c 0,0.2169043 -0.06621,0.3253253 -0.198456,0.3253046 V 8.5198373 C 15.04411,8.2636037 15.606216,7.9776729 15.953489,7.6621918 v -0.088679 z m 4.712765,1.0349131 -0.372039,0.1182689 v 0.088679 l 0.198456,0.2366262 h 0.09923 l 0.173586,-0.2366263 v -0.088679 z m 3.422797,0.1182689 -0.173581,0.2069467 v 0.1183573 h 0.09923 l 0.173583,-0.2366261 v -0.088678 z m -1.562779,1.4784853 c -0.248,0.09856 -0.371965,0.19708 -0.371949,0.295627 l 0.198367,0.325304 c 0.297581,0 0.479465,-0.108385 0.545621,-0.325304 z m 2.231612,1.360219 -0.198455,0.206947 v 0.118267 h 0.198455 l 0.07435,-0.118267 v -0.08868 z m -3.521669,1.064415 c -0.496005,0.0987 -0.744003,0.236605 -0.743989,0.414071 v 0.118267 h 0.272811 l 0.471267,-0.443482 v -0.08878 z M 5.8634964,16.739792 5.1195059,17.567757 v 0.443483 h 0.198457 c 0.1819387,-0.137876 0.3968478,-0.532062 0.6448509,-1.182679 v -0.08878 h -0.099229 z m 12.1331336,4.937763 -0.743989,0.325306 v 0.206947 l 0.09914,0.118269 0.744078,-0.443574 v -0.206948 z m -10.1931449,1.38981 v 0.08877 l 0.2728996,1.064502 h 0.198457 L 7.9772461,23.067362 H 7.8036637 Z m 9.9201559,1.360217 v 9.1e-5 0.118266 l 0.173582,0.295717 h 0.09923 l 0.09914,-0.08878 -0.297506,-0.325306 z" />
    <ellipse
       style="display:inline;fill:none;stroke:#ffffff;stroke-width:0.641616;stroke-dasharray:none;stroke-opacity:1"
       id="circle990"
       cx="16.00231"
       cy="15.893517"
       inkscape:label="inner_circle"
       rx="8.709837"
       ry="8.7069664" />
    <path
       id="rect1044"
       style="fill:#ffffff;fill-opacity:1;stroke:none;stroke-width:0.172496"
       d="M 9.9600947,3.9649229 24.262677,3.9219 c 2.374143,1.7108069 3.90644,3.6438083 4.51557,4.9685354 L 9.9121171,8.948093 C 7.9946415,8.9691736 7.2545768,4.5950187 9.940905,3.964928 Z"
       sodipodi:nodetypes="cccccc"
       inkscape:label="letters_bg" />
    <path
       style="font-size:29.4321px;font-family:'Barlow Condensed';-inkscape-font-specification:'Barlow Condensed, ';stroke-width:0.143913"
       d="m 11.60625,4.7211636 q 0.01523,-0.035532 0.06094,-0.035532 h 0.264041 q 0.05078,0 0.05078,0.05076 v 3.451715 q 0,0.050761 -0.05078,0.050761 h -0.258964 q -0.05078,0 -0.05078,-0.050761 V 5.4673434 q 0,-0.01523 -0.01016,-0.01523 -0.0051,0 -0.01523,0.010151 l -0.528091,1.0964261 q -0.01523,0.035532 -0.05078,0.035532 -0.04062,0 -0.05586,-0.035532 l -0.52807,-1.0913488 q -0.01016,-0.010151 -0.02031,-0.010151 -0.0051,0 -0.0051,0.015229 v 2.715687 q 0,0.050761 -0.05078,0.050761 h -0.258945 q -0.05078,0 -0.05078,-0.050761 V 4.7363921 q 0,-0.050761 0.05078,-0.050761 h 0.264041 q 0.0457,0 0.06094,0.035532 l 0.578861,1.1725675 q 0.0051,0.010151 0.01523,0.010151 0.01016,0 0.01523,-0.010151 z m 2.437307,3.5177031 q -0.04571,0 -0.05586,-0.045685 L 13.860759,7.5637516 q 0,-0.010151 -0.01015,-0.015229 -0.0051,-0.00508 -0.01523,-0.00508 h -0.91907 q -0.01016,0 -0.0203,0.00508 -0.0051,0.00508 -0.0051,0.015229 l -0.126991,0.6294307 q -0.0051,0.045685 -0.05586,0.045685 h -0.258965 q -0.02538,0 -0.04062,-0.015228 -0.01016,-0.01523 -0.0051,-0.040609 L 13.16511,4.7313156 q 0.01016,-0.045685 0.05586,-0.045685 h 0.304661 q 0.05078,0 0.05586,0.045685 l 0.771813,3.4517142 v 0.010153 q 0,0.045685 -0.04571,0.045685 z M 12.956923,7.2287326 q 0,0.020304 0.01523,0.020304 h 0.80228 q 0.01523,0 0.01523,-0.020304 L 13.383448,5.2338447 q -0.0051,-0.015229 -0.01016,-0.015229 -0.0051,0 -0.01016,0.015229 z m 3.249743,1.0101341 q -0.04571,0 -0.06093,-0.040609 l -0.517935,-1.568499 q -0.0051,-0.015229 -0.0203,-0.015229 h -0.441764 q -0.0203,0 -0.0203,0.020304 V 8.188105 q 0,0.05076 -0.05078,0.05076 h -0.258964 q -0.05078,0 -0.05078,-0.05076 V 4.736392 q 0,-0.050761 0.05078,-0.050761 h 0.837823 q 0.370677,0 0.599173,0.2741068 0.228497,0.2690304 0.228497,0.7055709 0,0.3299433 -0.142176,0.5685176 -0.142176,0.2385745 -0.385907,0.3350195 -0.02032,0.00508 -0.01523,0.02538 l 0.553472,1.5888036 0.0051,0.020305 q 0,0.035532 -0.04571,0.035532 z M 15.165733,5.0003466 q -0.0203,0 -0.0203,0.020304 v 1.2842411 q 0,0.020304 0.0203,0.020304 h 0.456996 q 0.233575,0 0.375751,-0.1776619 0.142177,-0.1827377 0.142177,-0.4822248 0,-0.299487 -0.142177,-0.4822248 -0.142176,-0.1827385 -0.375751,-0.1827385 z m 3.605187,2.2740703 q 0.0051,0.4568444 -0.243731,0.7106472 -0.248807,0.2538026 -0.665181,0.2538026 h -0.776891 q -0.05078,0 -0.05078,-0.050761 V 4.7363918 q 0,-0.050761 0.05078,-0.050761 h 0.731192 q 0.436684,0 0.685491,0.2436503 0.248812,0.2385745 0.248812,0.685267 0,0.5685175 -0.421453,0.7766356 -0.01016,0.00508 -0.01016,0.010151 0,0.00508 0.0051,0.010151 0.446838,0.2588786 0.446838,0.8629285 z M 17.415168,5.0003466 q -0.0203,0 -0.0203,0.020304 v 1.2233282 q 0,0.020304 0.0203,0.020304 h 0.401141 q 0.274197,0 0.42653,-0.1624337 0.15233,-0.1624335 0.15233,-0.4568445 0,-0.304563 -0.15233,-0.4720727 -0.152333,-0.1725853 -0.42653,-0.1725853 z m 0.421453,2.9187287 q 0.269119,0 0.421449,-0.1776617 0.152334,-0.1827378 0.152334,-0.5076049 0,-0.3299434 -0.152334,-0.5126812 -0.15233,-0.1827378 -0.421449,-0.1827378 h -0.421453 q -0.0203,0 -0.0203,0.020305 v 1.3400771 q 0,0.020305 0.0203,0.020305 z m 2.168185,0.3603995 q -0.375753,0 -0.609327,-0.2487262 Q 19.161903,7.7820218 19.161903,7.381014 V 7.2642648 q 0,-0.050761 0.05078,-0.050761 h 0.248807 q 0.05077,0 0.05077,0.050761 v 0.1015211 q 0,0.2690308 0.137099,0.4365403 0.137101,0.1624336 0.355442,0.1624336 0.213265,0 0.35544,-0.1573576 0.142176,-0.1573575 0.142176,-0.416236 0,-0.1725859 -0.07109,-0.294411 -0.06601,-0.1269013 -0.177718,-0.2182701 -0.106632,-0.096445 -0.36052,-0.289335 -0.253885,-0.1878137 -0.40114,-0.3197911 -0.147253,-0.1370533 -0.24373,-0.3248672 -0.0914,-0.187814 -0.0914,-0.4416165 0,-0.3959318 0.228496,-0.6243541 0.2285,-0.2334982 0.594095,-0.2334982 0.385907,0 0.614403,0.2538024 0.233577,0.2487262 0.233577,0.6649626 v 0.1269012 q 0,0.05076 -0.05078,0.05076 h -0.253898 q -0.05078,0 -0.05078,-0.05076 V 5.5587121 q 0,-0.2690308 -0.137099,-0.4314644 -0.132019,-0.1675096 -0.35544,-0.1675096 -0.203109,0 -0.335128,0.1472054 -0.132024,0.1421292 -0.132024,0.406084 0,0.1573575 0.05586,0.2791829 0.06092,0.1167488 0.177718,0.2233461 0.116788,0.106597 0.345286,0.2791828 0.304664,0.2233461 0.451917,0.3654755 0.152333,0.1370535 0.233576,0.304563 0.08124,0.1624338 0.08124,0.395932 0,0.4162361 -0.238652,0.6700388 -0.238653,0.2487262 -0.614403,0.2487262 z"
       id="text1277"
       aria-label="MARBS"
       inkscape:label="MARBS_letters" />
    <g
       id="text962"
       style="font-size:5.64444px;line-height:0.95;font-family:'Barlow Condensed';-inkscape-font-specification:'Barlow Condensed, ';text-align:center;text-anchor:middle;fill:#ffffff"
       inkscape:label="expansion"
       aria-label="Mariusz's&#10;Auto Rice&#10;Bootstrapping&#10;Scripts  󱓟 "
       transform="matrix(0.17252335,0,0,0.17246647,-2.1013356,-0.5867772)">
      <path
         style="font-style:italic;font-weight:600;font-stretch:condensed;-inkscape-font-specification:'Barlow Condensed,  Semi-Bold Italic Condensed';text-align:start;text-anchor:start;fill:#000000"
         d="m 139.37666,30.624554 q 0.0282,-0.04516 0.0847,-0.04516 h 0.50236 q 0.0282,0 0.0451,0.02258 0.0169,0.01693 0.0113,0.04516 l -0.46848,3.815642 q 0,0.02822 -0.0226,0.0508 -0.0226,0.01693 -0.0508,0.01693 h -0.50236 q -0.0282,0 -0.0452,-0.01693 -0.0169,-0.02258 -0.0113,-0.0508 l 0.32738,-2.664176 q 0.006,-0.02258 -0.0113,-0.02258 -0.0113,0 -0.0226,0.01693 l -0.58702,0.891821 q -0.0282,0.04516 -0.0508,0.04516 -0.0113,0 -0.0282,-0.01129 -0.0113,-0.01129 -0.0169,-0.03387 l -0.36689,-0.891821 q -0.006,-0.01693 -0.0169,-0.01693 -0.0113,0 -0.0169,0.02258 l -0.32738,2.664176 q -0.006,0.02822 -0.0282,0.0508 -0.0169,0.01693 -0.0452,0.01693 h -0.50235 q -0.0282,0 -0.0452,-0.01693 -0.0169,-0.02258 -0.0113,-0.0508 l 0.46849,-3.815642 q 0,-0.02822 0.0226,-0.04516 0.0226,-0.02258 0.0508,-0.02258 h 0.50235 q 0.0565,0 0.0734,0.04516 l 0.41769,0.965199 q 0.0113,0.02822 0.0282,0 z m 2.30293,1.089376 q 0,-0.02822 0.0226,-0.04516 0.0226,-0.02258 0.0508,-0.02258 h 0.50236 q 0.0282,0 0.0451,0.02258 0.0169,0.01693 0.0113,0.04516 l -0.33866,2.748843 q -0.006,0.02822 -0.0282,0.0508 -0.0169,0.01693 -0.0452,0.01693 h -0.50236 q -0.0282,0 -0.0451,-0.01693 -0.0169,-0.02258 -0.0113,-0.0508 l 0.0226,-0.169333 q 0,-0.02258 -0.0113,-0.02258 -0.0113,0 -0.0226,0.01693 -0.21449,0.287867 -0.56444,0.287867 -0.31609,0 -0.47978,-0.186267 -0.15805,-0.191911 -0.15805,-0.530577 0,-0.135467 0.0113,-0.2032 l 0.14111,-1.140177 q 0.0564,-0.434622 0.27094,-0.671688 0.22013,-0.242711 0.58137,-0.242711 0.1524,0 0.28223,0.06773 0.13546,0.06773 0.20884,0.220133 0.0113,0.01693 0.0169,0.01693 0.0113,0 0.0169,-0.02258 z m -0.61525,2.297288 q 0.14676,0 0.24836,-0.107245 0.10724,-0.112889 0.12982,-0.293511 l 0.12982,-1.044221 q 0.006,-0.02258 0.006,-0.07338 0,-0.146755 -0.079,-0.237066 -0.0734,-0.09031 -0.2032,-0.09031 -0.1524,0 -0.25964,0.112889 -0.1016,0.107244 -0.12418,0.287866 l -0.12982,1.044221 q -0.006,0.02258 -0.006,0.06773 0,0.1524 0.079,0.242711 0.079,0.09031 0.20884,0.09031 z m 2.90689,-2.398887 q 0.1524,0 0.22577,0.05644 0.0395,0.03387 0.0226,0.08467 l -0.1524,0.524933 q -0.0169,0.06773 -0.0847,0.03951 -0.079,-0.02258 -0.13547,-0.02258 -0.0677,0 -0.12418,0.01693 -0.1524,0.02258 -0.27093,0.180622 -0.11289,0.1524 -0.14111,0.366889 l -0.19756,1.597376 q -0.006,0.02822 -0.0282,0.0508 -0.0169,0.01693 -0.0452,0.01693 h -0.50235 q -0.0282,0 -0.0452,-0.01693 -0.0169,-0.02258 -0.0113,-0.0508 l 0.33302,-2.743198 q 0.006,-0.02822 0.0282,-0.04516 0.0226,-0.02258 0.0508,-0.02258 h 0.50235 q 0.0282,0 0.0452,0.02258 0.0169,0.01693 0.0113,0.04516 l -0.0339,0.259645 q 0,0.02258 0.0113,0.02822 0.0113,0 0.0169,-0.02258 0.19192,-0.366888 0.52494,-0.366888 z m 0.95391,-0.361245 q -0.15804,0 -0.254,-0.09596 -0.0903,-0.09596 -0.0903,-0.248355 0,-0.197556 0.12418,-0.327378 0.12982,-0.129822 0.31609,-0.129822 0.1524,0 0.24271,0.09596 0.0959,0.09031 0.0959,0.237067 0,0.197555 -0.12982,0.333022 -0.12418,0.135466 -0.3048,0.135466 z m -0.64911,3.27942 q -0.0282,0 -0.0451,-0.01693 -0.0169,-0.02258 -0.0113,-0.0508 l 0.33302,-2.748843 q 0.006,-0.02822 0.0226,-0.04516 0.0226,-0.02258 0.0508,-0.02258 h 0.508 q 0.0282,0 0.0451,0.02258 0.0169,0.01693 0.0113,0.04516 l -0.33867,2.748843 q -0.006,0.02822 -0.0282,0.0508 -0.0169,0.01693 -0.0452,0.01693 z m 2.69805,-2.816576 q 0,-0.02822 0.0226,-0.04516 0.0226,-0.02258 0.0508,-0.02258 h 0.50236 q 0.0282,0 0.0451,0.02258 0.0169,0.01693 0.0113,0.04516 l -0.33866,2.748843 q -0.006,0.02822 -0.0282,0.0508 -0.0169,0.01693 -0.0452,0.01693 h -0.50236 q -0.0282,0 -0.0451,-0.01693 -0.0169,-0.02258 -0.0113,-0.0508 l 0.0113,-0.124178 q 0.006,-0.01693 -0.006,-0.02258 -0.0113,-0.0056 -0.0226,0.01129 -0.19192,0.242711 -0.54187,0.242711 -0.29351,0 -0.47413,-0.163689 -0.17498,-0.163688 -0.17498,-0.507999 0,-0.04516 0.0113,-0.169333 l 0.24835,-2.015066 q 0,-0.02822 0.0226,-0.04516 0.0226,-0.02258 0.0508,-0.02258 h 0.50236 q 0.0282,0 0.0452,0.02258 0.0169,0.01693 0.0113,0.04516 l -0.23142,1.873955 q -0.006,0.03951 -0.006,0.1016 0,0.321733 0.27094,0.321733 0.15804,0 0.25964,-0.118534 0.10725,-0.124177 0.12982,-0.333022 z m 1.64252,2.850443 q -0.40075,0 -0.63217,-0.186267 -0.22578,-0.186266 -0.22578,-0.502355 0,-0.07338 0.006,-0.107244 l 0.006,-0.03951 q 0.006,-0.02822 0.0226,-0.04516 0.0226,-0.02258 0.0508,-0.02258 h 0.47413 q 0.0282,0 0.0451,0.02258 0.0169,0.01693 0.0113,0.04516 l -0.006,0.02822 q -0.0169,0.135466 0.0734,0.225777 0.0903,0.09031 0.23706,0.09031 0.1524,0 0.24836,-0.09596 0.1016,-0.1016 0.1016,-0.248355 0,-0.124178 -0.096,-0.197556 -0.096,-0.07338 -0.21449,-0.124177 -0.11853,-0.0508 -0.15804,-0.06773 -0.27093,-0.112889 -0.44591,-0.276577 -0.16933,-0.163689 -0.16933,-0.474133 0,-0.451555 0.28222,-0.7112 0.28222,-0.265288 0.73377,-0.265288 0.38947,0 0.6096,0.197555 0.22014,0.191911 0.22014,0.530577 0,0.04516 -0.0113,0.135467 -0.006,0.02822 -0.0282,0.0508 -0.0169,0.01693 -0.0452,0.01693 h -0.4572 q -0.0621,0 -0.0621,-0.06773 l 0.006,-0.03387 q 0.0169,-0.135466 -0.0621,-0.225777 -0.0734,-0.09031 -0.21449,-0.09031 -0.15805,0 -0.254,0.112888 -0.096,0.107245 -0.096,0.242711 0,0.135467 0.096,0.208845 0.1016,0.06773 0.33867,0.174977 0.19755,0.08467 0.33302,0.169333 0.13546,0.08467 0.23706,0.237067 0.1016,0.146755 0.1016,0.361244 0,0.423333 -0.29351,0.677333 -0.29351,0.254 -0.762,0.254 z m 1.27,-0.03387 q -0.0282,0 -0.0508,-0.01693 -0.0169,-0.02258 -0.0113,-0.0508 l 0.0621,-0.479778 q 0,-0.04516 0.0339,-0.08467 l 1.14017,-1.625599 q 0.0169,-0.03387 -0.0113,-0.03387 h -0.8636 q -0.0282,0 -0.0452,-0.01693 -0.0169,-0.02258 -0.0113,-0.0508 l 0.0564,-0.4572 q 0.006,-0.02822 0.0226,-0.04516 0.0226,-0.02258 0.0508,-0.02258 h 1.58045 q 0.0621,0 0.0621,0.06773 l -0.0621,0.479778 q 0,0.03951 -0.0339,0.08467 l -1.1684,1.625598 q -0.0169,0.03387 0.0169,0.03387 h 0.93134 q 0.0621,0 0.0621,0.06773 l -0.0565,0.4572 q -0.006,0.02822 -0.0282,0.0508 -0.0169,0.01693 -0.0452,0.01693 z m 2.37067,-2.709331 q -0.0282,0 -0.0508,-0.01693 -0.0169,-0.02258 -0.0113,-0.0508 l 0.079,-1.100666 q 0.0113,-0.06773 0.0734,-0.06773 h 0.508 q 0.0621,0 0.0508,0.06773 l -0.19756,1.100666 q -0.006,0.02822 -0.0282,0.0508 -0.0226,0.01693 -0.0508,0.01693 z m 1.26999,2.743198 q -0.40075,0 -0.63218,-0.186267 -0.22577,-0.186266 -0.22577,-0.502355 0,-0.07338 0.006,-0.107244 l 0.006,-0.03951 q 0.006,-0.02822 0.0226,-0.04516 0.0226,-0.02258 0.0508,-0.02258 h 0.47414 q 0.0282,0 0.0452,0.02258 0.0169,0.01693 0.0113,0.04516 l -0.006,0.02822 q -0.0169,0.135466 0.0734,0.225777 0.0903,0.09031 0.23707,0.09031 0.1524,0 0.24835,-0.09596 0.1016,-0.1016 0.1016,-0.248355 0,-0.124178 -0.096,-0.197556 -0.096,-0.07338 -0.21449,-0.124177 -0.11853,-0.0508 -0.15804,-0.06773 -0.27094,-0.112889 -0.44591,-0.276577 -0.16934,-0.163689 -0.16934,-0.474133 0,-0.451555 0.28222,-0.7112 0.28223,-0.265288 0.73378,-0.265288 0.38947,0 0.6096,0.197555 0.22013,0.191911 0.22013,0.530577 0,0.04516 -0.0113,0.135467 -0.006,0.02822 -0.0282,0.0508 -0.0169,0.01693 -0.0452,0.01693 h -0.4572 q -0.0621,0 -0.0621,-0.06773 l 0.006,-0.03387 q 0.0169,-0.135466 -0.0621,-0.225777 -0.0734,-0.09031 -0.21448,-0.09031 -0.15805,0 -0.254,0.112888 -0.096,0.107245 -0.096,0.242711 0,0.135467 0.096,0.208845 0.1016,0.06773 0.33866,0.174977 0.19756,0.08467 0.33302,0.169333 0.13547,0.08467 0.23707,0.237067 0.1016,0.146755 0.1016,0.361244 0,0.423333 -0.29351,0.677333 -0.29351,0.254 -0.762,0.254 z"
         id="path14" />
      <path
         style="font-style:italic;font-weight:600;font-stretch:condensed;-inkscape-font-specification:'Barlow Condensed,  Semi-Bold Italic Condensed';text-align:start;text-anchor:start;fill:#000000"
         d="m 138.72755,39.892724 q -0.0621,0 -0.0621,-0.06209 l -0.0282,-0.592666 q 0,-0.02822 -0.0339,-0.02822 h -0.79587 q -0.0282,0 -0.0395,0.02822 l -0.17498,0.592666 q -0.0169,0.06209 -0.079,0.06209 h -0.49671 q -0.0734,0 -0.0508,-0.07338 l 1.27565,-3.815642 q 0.0169,-0.06209 0.079,-0.06209 h 0.58137 q 0.0621,0 0.0621,0.06209 l 0.34431,3.815642 v 0.01129 q 0,0.06209 -0.0677,0.06209 z m -0.79022,-1.224843 q -0.006,0.02822 0.0282,0.02822 h 0.60395 q 0.0339,0 0.0339,-0.02822 l -0.1016,-1.783643 q 0,-0.01693 -0.0113,-0.01693 -0.0113,0 -0.0226,0.01693 z m 3.24555,-1.591732 q 0,-0.02822 0.0226,-0.04516 0.0226,-0.02258 0.0508,-0.02258 h 0.50236 q 0.0282,0 0.0451,0.02258 0.0169,0.01693 0.0113,0.04516 l -0.33866,2.748842 q -0.006,0.02822 -0.0282,0.0508 -0.0169,0.01693 -0.0452,0.01693 h -0.50236 q -0.0282,0 -0.0451,-0.01693 -0.0169,-0.02258 -0.0113,-0.0508 l 0.0113,-0.124178 q 0.006,-0.01693 -0.006,-0.02258 -0.0113,-0.0056 -0.0226,0.01129 -0.19192,0.242711 -0.54187,0.242711 -0.29351,0 -0.47413,-0.163688 -0.17498,-0.163689 -0.17498,-0.508 0,-0.04516 0.0113,-0.169333 l 0.24835,-2.015065 q 0,-0.02822 0.0226,-0.04516 0.0226,-0.02258 0.0508,-0.02258 h 0.50236 q 0.0282,0 0.0452,0.02258 0.0169,0.01693 0.0113,0.04516 l -0.23142,1.873954 q -0.006,0.03951 -0.006,0.1016 0,0.321733 0.27094,0.321733 0.15804,0 0.25964,-0.118534 0.10725,-0.124177 0.12982,-0.333021 z m 2.26342,0.327377 q -0.006,0.02822 -0.0282,0.0508 -0.0169,0.01693 -0.0452,0.01693 h -0.33866 q -0.0226,0 -0.0339,0.02822 l -0.18062,1.478843 q -0.006,0.03951 -0.006,0.1016 0,0.135466 0.0621,0.191911 0.0621,0.05644 0.18627,0.0508 h 0.0395 q 0.0282,0 0.0452,0.02258 0.0169,0.01693 0.0113,0.04516 l -0.0508,0.434622 q -0.006,0.02822 -0.0282,0.0508 -0.0226,0.01693 -0.0508,0.01693 h -0.18626 q -0.33303,0 -0.508,-0.107244 -0.16934,-0.112889 -0.16934,-0.412044 0,-0.03951 0.0113,-0.1524 l 0.21449,-1.721554 q 0,-0.02822 -0.0282,-0.02822 h -0.19191 q -0.0282,0 -0.0452,-0.01693 -0.0169,-0.02258 -0.0113,-0.0508 l 0.0395,-0.327377 q 0.006,-0.02822 0.0226,-0.04516 0.0226,-0.02258 0.0508,-0.02258 h 0.19191 q 0.0339,0 0.0339,-0.02822 l 0.0734,-0.620888 q 0.006,-0.02822 0.0282,-0.04516 0.0226,-0.02258 0.0508,-0.02258 h 0.47978 q 0.0282,0 0.0452,0.02258 0.0169,0.01693 0.0113,0.04516 l -0.0734,0.620888 q -0.0113,0.02822 0.0226,0.02822 h 0.33867 q 0.0282,0 0.0452,0.02258 0.0169,0.01693 0.0113,0.04516 z m 0.99342,2.534354 q -0.41204,0 -0.64346,-0.2032 -0.23142,-0.208844 -0.23142,-0.570089 0,-0.04516 0.0113,-0.146755 l 0.14112,-1.134532 q 0.0508,-0.417689 0.34431,-0.666044 0.29351,-0.254 0.74506,-0.254 0.41205,0 0.64347,0.214489 0.23142,0.208844 0.23142,0.564444 0,0.03951 -0.0113,0.141111 l -0.13547,1.134532 q -0.0508,0.423333 -0.34431,0.671688 -0.29351,0.248356 -0.75071,0.248356 z m 0.0734,-0.570089 q 0.1524,0 0.25965,-0.107244 0.10724,-0.112889 0.12982,-0.293511 l 0.12982,-1.038577 0.006,-0.06773 q 0,-0.146756 -0.0847,-0.237067 -0.079,-0.09596 -0.21449,-0.09596 -0.1524,0 -0.25965,0.112889 -0.10724,0.107244 -0.12982,0.287866 l -0.12982,1.038577 -0.006,0.06773 q 0,0.1524 0.079,0.242711 0.0847,0.09031 0.22013,0.09031 z m 4.02449,0.524933 q -0.0564,0 -0.0677,-0.05644 l -0.26529,-1.619954 q 0,-0.0056 -0.006,-0.01129 -0.006,-0.01129 -0.0169,-0.01129 h -0.29351 q -0.0282,0 -0.0282,0.02822 l -0.19756,1.603021 q -0.006,0.02822 -0.0282,0.0508 -0.0169,0.01693 -0.0452,0.01693 h -0.50236 q -0.0621,0 -0.0621,-0.06773 l 0.46849,-3.815642 q 0.006,-0.02822 0.0282,-0.04516 0.0226,-0.02258 0.0508,-0.02258 h 1.02729 q 0.39511,0 0.62089,0.265289 0.23142,0.259644 0.23142,0.694266 0,0.05644 -0.0113,0.191911 -0.0452,0.349955 -0.20884,0.603955 -0.16369,0.254 -0.41205,0.383822 -0.0226,0.0056 -0.0226,0.03387 l 0.32737,1.698976 v 0.02258 q 0,0.05644 -0.0621,0.05644 z m -0.44026,-3.386664 q -0.0282,0 -0.0282,0.02822 l -0.14111,1.123244 q 0,0.02822 0.0226,0.02822 h 0.33867 q 0.22013,0 0.36689,-0.191911 0.1524,-0.197555 0.1524,-0.519288 0,-0.220134 -0.1016,-0.344311 -0.1016,-0.124178 -0.27658,-0.124178 z m 2.14488,0.107244 q -0.15804,0 -0.254,-0.09595 -0.0903,-0.09596 -0.0903,-0.248355 0,-0.197556 0.12418,-0.327378 0.12982,-0.129822 0.31609,-0.129822 0.1524,0 0.24271,0.09596 0.0959,0.09031 0.0959,0.237067 0,0.197555 -0.12982,0.333022 -0.12418,0.135466 -0.3048,0.135466 z m -0.64911,3.27942 q -0.0282,0 -0.0452,-0.01693 -0.0169,-0.02258 -0.0113,-0.0508 l 0.33302,-2.748842 q 0.006,-0.02822 0.0226,-0.04516 0.0226,-0.02258 0.0508,-0.02258 h 0.508 q 0.0282,0 0.0451,0.02258 0.0169,0.01693 0.0113,0.04516 l -0.33867,2.748842 q -0.006,0.02822 -0.0282,0.0508 -0.0169,0.01693 -0.0452,0.01693 z m 2.00378,0.04516 q -0.41204,0 -0.64347,-0.2032 -0.22577,-0.208844 -0.22577,-0.570089 0,-0.04516 0.0113,-0.146755 l 0.14112,-1.140177 q 0.0508,-0.412044 0.34431,-0.660399 0.29351,-0.254 0.73942,-0.254 0.41204,0 0.64346,0.208844 0.23143,0.208844 0.23143,0.547511 0,0.07338 -0.006,0.112889 l -0.0113,0.07902 q -0.006,0.02822 -0.0282,0.0508 -0.0169,0.01693 -0.0452,0.01693 l -0.508,0.02258 q -0.0621,0 -0.0565,-0.06773 l 0.006,-0.05644 q 0.0169,-0.141111 -0.0677,-0.242711 -0.079,-0.107244 -0.22578,-0.107244 -0.14675,0 -0.254,0.112889 -0.10724,0.112888 -0.12982,0.287866 l -0.12982,1.044221 -0.006,0.06773 q 0,0.146755 0.079,0.242711 0.079,0.09031 0.20884,0.09031 0.14676,0 0.254,-0.1016 0.11289,-0.107245 0.12982,-0.254 l 0.0113,-0.05644 q 0,-0.02822 0.0226,-0.04516 0.0226,-0.02258 0.0508,-0.02258 l 0.50236,0.0056 q 0.0282,0 0.0452,0.02258 0.0169,0.01693 0.0113,0.04516 l -0.0113,0.1016 q -0.0452,0.389466 -0.33866,0.632177 -0.29352,0.237067 -0.74507,0.237067 z m 3.44311,-1.315155 q 0,0.02822 -0.0226,0.0508 -0.0226,0.01693 -0.0508,0.01693 h -1.20791 q -0.0282,0 -0.0282,0.02822 l -0.0339,0.253999 -0.006,0.06773 q 0,0.146755 0.079,0.242711 0.079,0.09031 0.20884,0.09031 0.12418,0 0.22014,-0.07902 0.1016,-0.08467 0.1524,-0.214489 0.0226,-0.05645 0.079,-0.05645 l 0.48542,0.02258 q 0.0282,0 0.0395,0.02258 0.0169,0.01693 0.0113,0.0508 -0.0847,0.395111 -0.3556,0.609599 -0.27093,0.208845 -0.69991,0.208845 -0.41205,0 -0.64347,-0.2032 -0.22577,-0.208844 -0.22577,-0.570089 0,-0.03951 0.0113,-0.141111 l 0.14111,-1.145821 q 0.0508,-0.412044 0.34432,-0.660399 0.29351,-0.254 0.73942,-0.254 0.41204,0 0.63782,0.214489 0.22578,0.208844 0.22578,0.564444 0,0.09031 -0.006,0.135466 z m -0.82974,-1.095021 q -0.14675,0 -0.254,0.112889 -0.10724,0.112888 -0.12982,0.287866 l -0.0339,0.254 q 0,0.02822 0.0226,0.02822 h 0.62089 q 0.0282,0 0.0282,-0.02822 l 0.0339,-0.254 0.006,-0.06773 q 0,-0.146756 -0.079,-0.237067 -0.079,-0.09596 -0.21449,-0.09596 z"
         id="path15" />
      <path
         style="font-style:italic;font-weight:600;font-stretch:condensed;-inkscape-font-specification:'Barlow Condensed,  Semi-Bold Italic Condensed';text-align:start;text-anchor:start;fill:#000000"
         d="m 139.39359,44.159921 q -0.0564,0.524933 -0.38382,0.812799 -0.32738,0.282222 -0.80716,0.282222 h -0.95955 q -0.0621,0 -0.0621,-0.06773 l 0.46849,-3.815642 q 0.006,-0.02822 0.0282,-0.04516 0.0226,-0.02258 0.0508,-0.02258 h 0.8636 q 0.46849,0 0.72813,0.220133 0.26529,0.220134 0.26529,0.654755 0,0.06209 -0.0113,0.186267 -0.0734,0.581377 -0.50235,0.829733 -0.0339,0.01693 -0.0169,0.03387 0.34996,0.259645 0.34996,0.756355 0,0.0508 -0.0113,0.174978 z m -1.14018,-2.291643 q -0.0282,0 -0.0282,0.02822 l -0.12982,1.049866 q -0.0113,0.02822 0.0226,0.02822 h 0.27658 q 0.22577,0 0.36688,-0.141111 0.14676,-0.141111 0.18063,-0.400755 0.006,-0.03951 0.006,-0.112889 0,-0.214488 -0.10724,-0.333022 -0.10725,-0.118533 -0.31045,-0.118533 z m -0.0282,2.816576 q 0.22014,0 0.36125,-0.158044 0.14675,-0.158045 0.18626,-0.445911 0.006,-0.04516 0.006,-0.129822 0,-0.231422 -0.10725,-0.361245 -0.1016,-0.135466 -0.29351,-0.135466 h -0.31609 q -0.0339,0 -0.0339,0.02822 l -0.14111,1.174044 q -0.0113,0.02822 0.0226,0.02822 z m 2.35938,0.615244 q -0.41205,0 -0.64347,-0.2032 -0.23142,-0.208844 -0.23142,-0.570088 0,-0.04516 0.0113,-0.146756 l 0.14111,-1.134532 q 0.0508,-0.417689 0.34431,-0.666044 0.29351,-0.254 0.74507,-0.254 0.41204,0 0.64346,0.214489 0.23142,0.208844 0.23142,0.564444 0,0.03951 -0.0113,0.141111 l -0.13547,1.134532 q -0.0508,0.423333 -0.34431,0.671688 -0.29351,0.248356 -0.75071,0.248356 z m 0.0734,-0.570089 q 0.1524,0 0.25964,-0.107244 0.10724,-0.112889 0.12982,-0.293511 l 0.12982,-1.038577 0.006,-0.06773 q 0,-0.146756 -0.0847,-0.237067 -0.079,-0.09596 -0.21449,-0.09596 -0.1524,0 -0.25964,0.112889 -0.10725,0.107244 -0.12982,0.287866 l -0.12983,1.038577 -0.006,0.06773 q 0,0.1524 0.079,0.242711 0.0847,0.09031 0.22014,0.09031 z m 2.29164,0.570089 q -0.41204,0 -0.64346,-0.2032 -0.23143,-0.208844 -0.23143,-0.570088 0,-0.04516 0.0113,-0.146756 l 0.14111,-1.134532 q 0.0508,-0.417689 0.34431,-0.666044 0.29352,-0.254 0.74507,-0.254 0.41204,0 0.64347,0.214489 0.23142,0.208844 0.23142,0.564444 0,0.03951 -0.0113,0.141111 l -0.13547,1.134532 q -0.0508,0.423333 -0.34431,0.671688 -0.29351,0.248356 -0.75071,0.248356 z m 0.0734,-0.570089 q 0.1524,0 0.25964,-0.107244 0.10725,-0.112889 0.12983,-0.293511 l 0.12982,-1.038577 0.006,-0.06773 q 0,-0.146756 -0.0847,-0.237067 -0.079,-0.09596 -0.21449,-0.09596 -0.1524,0 -0.25965,0.112889 -0.10724,0.107244 -0.12982,0.287866 l -0.12982,1.038577 -0.006,0.06773 q 0,0.1524 0.079,0.242711 0.0847,0.09031 0.22013,0.09031 z m 2.8448,-1.964265 q -0.006,0.02822 -0.0282,0.0508 -0.0169,0.01693 -0.0452,0.01693 h -0.33866 q -0.0226,0 -0.0339,0.02822 l -0.18062,1.478843 q -0.006,0.03951 -0.006,0.1016 0,0.135467 0.0621,0.191911 0.0621,0.05644 0.18627,0.0508 h 0.0395 q 0.0282,0 0.0452,0.02258 0.0169,0.01693 0.0113,0.04516 l -0.0508,0.434622 q -0.006,0.02822 -0.0282,0.0508 -0.0226,0.01693 -0.0508,0.01693 h -0.18626 q -0.33303,0 -0.508,-0.107244 -0.16934,-0.112889 -0.16934,-0.412044 0,-0.03951 0.0113,-0.1524 l 0.21449,-1.721554 q 0,-0.02822 -0.0282,-0.02822 h -0.19191 q -0.0282,0 -0.0452,-0.01693 -0.0169,-0.02258 -0.0113,-0.0508 l 0.0395,-0.327377 q 0.006,-0.02822 0.0226,-0.04516 0.0226,-0.02258 0.0508,-0.02258 h 0.19191 q 0.0339,0 0.0339,-0.02822 l 0.0734,-0.620888 q 0.006,-0.02822 0.0282,-0.04516 0.0226,-0.02258 0.0508,-0.02258 h 0.47978 q 0.0282,0 0.0452,0.02258 0.0169,0.01693 0.0113,0.04516 l -0.0734,0.620888 q -0.0113,0.02822 0.0226,0.02822 h 0.33867 q 0.0282,0 0.0452,0.02258 0.0169,0.01693 0.0113,0.04516 z m 0.92569,2.523065 q -0.40076,0 -0.63218,-0.186267 -0.22578,-0.186266 -0.22578,-0.502355 0,-0.07338 0.006,-0.107244 l 0.006,-0.03951 q 0.006,-0.02822 0.0226,-0.04516 0.0226,-0.02258 0.0508,-0.02258 h 0.47413 q 0.0282,0 0.0452,0.02258 0.0169,0.01693 0.0113,0.04516 l -0.006,0.02822 q -0.0169,0.135467 0.0734,0.225778 0.0903,0.09031 0.23707,0.09031 0.1524,0 0.24835,-0.09596 0.1016,-0.1016 0.1016,-0.248355 0,-0.124178 -0.0959,-0.197556 -0.096,-0.07338 -0.21449,-0.124177 -0.11853,-0.0508 -0.15804,-0.06773 -0.27094,-0.112888 -0.44592,-0.276577 -0.16933,-0.163689 -0.16933,-0.474133 0,-0.451555 0.28222,-0.7112 0.28223,-0.265288 0.73378,-0.265288 0.38947,0 0.6096,0.197555 0.22013,0.191911 0.22013,0.530578 0,0.04516 -0.0113,0.135466 -0.006,0.02822 -0.0282,0.0508 -0.0169,0.01693 -0.0452,0.01693 h -0.4572 q -0.0621,0 -0.0621,-0.06773 l 0.006,-0.03387 q 0.0169,-0.135466 -0.0621,-0.225777 -0.0734,-0.09031 -0.21449,-0.09031 -0.15804,0 -0.254,0.112889 -0.0959,0.107244 -0.0959,0.242711 0,0.135466 0.0959,0.208844 0.1016,0.06773 0.33867,0.174977 0.19756,0.08467 0.33302,0.169334 0.13547,0.08467 0.23707,0.237066 0.1016,0.146756 0.1016,0.361244 0,0.423333 -0.29351,0.677333 -0.29351,0.254 -0.762,0.254 z m 2.79964,-2.523065 q -0.006,0.02822 -0.0282,0.0508 -0.0169,0.01693 -0.0452,0.01693 h -0.33866 q -0.0226,0 -0.0339,0.02822 l -0.18062,1.478843 q -0.006,0.03951 -0.006,0.1016 0,0.135467 0.0621,0.191911 0.0621,0.05644 0.18627,0.0508 h 0.0395 q 0.0282,0 0.0451,0.02258 0.0169,0.01693 0.0113,0.04516 l -0.0508,0.434622 q -0.006,0.02822 -0.0282,0.0508 -0.0226,0.01693 -0.0508,0.01693 h -0.18627 q -0.33302,0 -0.50799,-0.107244 -0.16934,-0.112889 -0.16934,-0.412044 0,-0.03951 0.0113,-0.1524 l 0.21449,-1.721554 q 0,-0.02822 -0.0282,-0.02822 h -0.19191 q -0.0282,0 -0.0452,-0.01693 -0.0169,-0.02258 -0.0113,-0.0508 l 0.0395,-0.327377 q 0.006,-0.02822 0.0226,-0.04516 0.0226,-0.02258 0.0508,-0.02258 h 0.19191 q 0.0339,0 0.0339,-0.02822 l 0.0734,-0.620888 q 0.006,-0.02822 0.0282,-0.04516 0.0226,-0.02258 0.0508,-0.02258 h 0.47978 q 0.0282,0 0.0451,0.02258 0.0169,0.01693 0.0113,0.04516 l -0.0734,0.620888 q -0.0113,0.02822 0.0226,0.02822 h 0.33867 q 0.0282,0 0.0452,0.02258 0.0169,0.01693 0.0113,0.04516 z m 1.56916,-0.428977 q 0.1524,0 0.22577,0.05644 0.0395,0.03387 0.0226,0.08467 l -0.1524,0.524933 q -0.0169,0.06773 -0.0847,0.03951 -0.079,-0.02258 -0.13546,-0.02258 -0.0677,0 -0.12418,0.01693 -0.1524,0.02258 -0.27093,0.180622 -0.11289,0.1524 -0.14111,0.366889 l -0.19756,1.597377 q -0.006,0.02822 -0.0282,0.0508 -0.0169,0.01693 -0.0452,0.01693 h -0.50235 q -0.0282,0 -0.0452,-0.01693 -0.0169,-0.02258 -0.0113,-0.0508 l 0.33303,-2.743198 q 0.006,-0.02822 0.0282,-0.04516 0.0226,-0.02258 0.0508,-0.02258 h 0.50235 q 0.0282,0 0.0452,0.02258 0.0169,0.01693 0.0113,0.04516 l -0.0339,0.259644 q 0,0.02258 0.0113,0.02822 0.0113,0 0.0169,-0.02258 0.19191,-0.366888 0.52494,-0.366888 z m 1.76106,0.1016 q 0,-0.02822 0.0226,-0.04516 0.0226,-0.02258 0.0508,-0.02258 h 0.50236 q 0.0282,0 0.0452,0.02258 0.0169,0.01693 0.0113,0.04516 l -0.33866,2.748842 q -0.006,0.02822 -0.0282,0.0508 -0.0169,0.01693 -0.0452,0.01693 h -0.50236 q -0.0282,0 -0.0452,-0.01693 -0.0169,-0.02258 -0.0113,-0.0508 l 0.0226,-0.169333 q 0,-0.02258 -0.0113,-0.02258 -0.0113,0 -0.0226,0.01693 -0.21449,0.287867 -0.56444,0.287867 -0.31609,0 -0.47978,-0.186267 -0.15805,-0.191911 -0.15805,-0.530577 0,-0.135467 0.0113,-0.2032 l 0.14111,-1.140177 q 0.0564,-0.434622 0.27094,-0.671688 0.22013,-0.242711 0.58137,-0.242711 0.1524,0 0.28223,0.06773 0.13546,0.06773 0.20884,0.220133 0.0113,0.01693 0.0169,0.01693 0.0113,0 0.0169,-0.02258 z m -0.61524,2.297287 q 0.14676,0 0.24836,-0.107245 0.10724,-0.112888 0.12982,-0.29351 l 0.12982,-1.044222 q 0.006,-0.02258 0.006,-0.07338 0,-0.146755 -0.079,-0.237066 -0.0734,-0.09031 -0.2032,-0.09031 -0.1524,0 -0.25964,0.112889 -0.1016,0.107244 -0.12418,0.287866 l -0.12982,1.044222 q -0.006,0.02258 -0.006,0.06773 0,0.1524 0.079,0.242711 0.079,0.09031 0.20884,0.09031 z m 2.9464,-2.410176 q 0.32737,0 0.49671,0.197555 0.17498,0.191911 0.17498,0.530578 0,0.06209 -0.0113,0.186266 l -0.13547,1.140177 q -0.0564,0.434622 -0.29351,0.677333 -0.23142,0.242711 -0.59267,0.242711 -0.12418,0 -0.254,-0.04516 -0.12418,-0.0508 -0.21449,-0.158044 -0.0113,-0.01129 -0.0226,-0.0056 -0.0113,0.0056 -0.0113,0.02258 l -0.14111,1.140177 q -0.006,0.02822 -0.0282,0.04516 -0.0169,0.02258 -0.0452,0.02258 h -0.50236 q -0.0621,0 -0.0621,-0.06773 l 0.46849,-3.815641 q 0.006,-0.02822 0.0226,-0.04516 0.0226,-0.02258 0.0508,-0.02258 h 0.508 q 0.0282,0 0.0452,0.02258 0.0169,0.01693 0.0113,0.04516 l -0.0113,0.06773 q 0,0.01693 0.0113,0.02258 0.0169,0 0.0395,-0.02258 0.20884,-0.180622 0.49671,-0.180622 z m 0.0339,0.897466 q 0,-0.1524 -0.0847,-0.242711 -0.079,-0.09596 -0.21449,-0.09596 -0.14676,0 -0.24836,0.112889 -0.1016,0.112889 -0.12982,0.293511 l -0.12418,1.044222 q -0.006,0.02822 -0.006,0.07902 0,0.146755 0.0734,0.237066 0.079,0.08467 0.20884,0.08467 0.1524,0 0.25964,-0.107245 0.10725,-0.112888 0.12983,-0.29351 l 0.12982,-1.044222 z m 2.38195,-0.897466 q 0.32738,0 0.49671,0.197555 0.17498,0.191911 0.17498,0.530578 0,0.06209 -0.0113,0.186266 l -0.13546,1.140177 q -0.0565,0.434622 -0.29351,0.677333 -0.23143,0.242711 -0.59267,0.242711 -0.12418,0 -0.254,-0.04516 -0.12418,-0.0508 -0.21449,-0.158044 -0.0113,-0.01129 -0.0226,-0.0056 -0.0113,0.0056 -0.0113,0.02258 l -0.14111,1.140177 q -0.006,0.02822 -0.0282,0.04516 -0.0169,0.02258 -0.0452,0.02258 h -0.50236 q -0.0621,0 -0.0621,-0.06773 l 0.46849,-3.815641 q 0.006,-0.02822 0.0226,-0.04516 0.0226,-0.02258 0.0508,-0.02258 h 0.508 q 0.0282,0 0.0452,0.02258 0.0169,0.01693 0.0113,0.04516 l -0.0113,0.06773 q 0,0.01693 0.0113,0.02258 0.0169,0 0.0395,-0.02258 0.20885,-0.180622 0.49671,-0.180622 z m 0.0339,0.897466 q 0,-0.1524 -0.0847,-0.242711 -0.079,-0.09596 -0.21448,-0.09596 -0.14676,0 -0.24836,0.112889 -0.1016,0.112889 -0.12982,0.293511 l -0.12418,1.044222 q -0.006,0.02822 -0.006,0.07902 0,0.146755 0.0734,0.237066 0.079,0.08467 0.20885,0.08467 0.1524,0 0.25964,-0.107245 0.10725,-0.112888 0.12982,-0.29351 l 0.12983,-1.044222 z m 1.58044,-1.247421 q -0.15804,0 -0.254,-0.09596 -0.0903,-0.09596 -0.0903,-0.248355 0,-0.197556 0.12418,-0.327378 0.12982,-0.129822 0.31609,-0.129822 0.1524,0 0.24271,0.09596 0.096,0.09031 0.096,0.237066 0,0.197555 -0.12982,0.333022 -0.12418,0.135467 -0.3048,0.135467 z m -0.64911,3.279419 q -0.0282,0 -0.0452,-0.01693 -0.0169,-0.02258 -0.0113,-0.0508 l 0.33302,-2.748842 q 0.006,-0.02822 0.0226,-0.04516 0.0226,-0.02258 0.0508,-0.02258 h 0.50799 q 0.0282,0 0.0452,0.02258 0.0169,0.01693 0.0113,0.04516 l -0.33867,2.748842 q -0.006,0.02822 -0.0282,0.0508 -0.0169,0.01693 -0.0452,0.01693 z m 2.6416,-2.929464 q 0.31044,0 0.46849,0.186266 0.15804,0.186267 0.15804,0.536222 0,0.1016 -0.0169,0.220133 l -0.23707,1.91911 q -0.006,0.02822 -0.0282,0.0508 -0.0169,0.01693 -0.0452,0.01693 h -0.50236 q -0.0282,0 -0.0452,-0.01693 -0.0169,-0.02258 -0.0113,-0.0508 l 0.22577,-1.86831 q 0.006,-0.03387 0.006,-0.1016 0,-0.158044 -0.0734,-0.242711 -0.0677,-0.08467 -0.19756,-0.08467 -0.15804,0 -0.25964,0.118533 -0.1016,0.112889 -0.12982,0.327378 l -0.22578,1.851376 q -0.006,0.02822 -0.0282,0.0508 -0.0169,0.01693 -0.0452,0.01693 h -0.50235 q -0.0282,0 -0.0452,-0.01693 -0.0169,-0.02258 -0.0113,-0.0508 l 0.33303,-2.748842 q 0.006,-0.02822 0.0282,-0.04516 0.0226,-0.02258 0.0508,-0.02258 h 0.50235 q 0.0282,0 0.0452,0.02258 0.0169,0.01693 0.0113,0.04516 l -0.0113,0.112888 q -0.006,0.01693 0.006,0.02258 0.0169,0 0.0339,-0.02258 0.20884,-0.225777 0.54751,-0.225777 z m 2.44404,0.112889 q 0,-0.02822 0.0226,-0.04516 0.0226,-0.02258 0.0508,-0.02258 h 0.50235 q 0.0282,0 0.0452,0.02258 0.0169,0.01693 0.0113,0.04516 l -0.33302,2.709331 q -0.0734,0.6096 -0.38382,0.936977 -0.31044,0.333022 -0.99907,0.333022 -0.11853,0 -0.18062,-0.0056 -0.0564,-0.0056 -0.0564,-0.07338 l 0.0564,-0.434622 q 0.0113,-0.07338 0.079,-0.06209 0.31044,0.0056 0.48542,-0.07902 0.17497,-0.08467 0.254,-0.248355 0.0847,-0.163689 0.11853,-0.428978 l 0.006,-0.06209 q 0.006,-0.01693 -0.006,-0.01693 -0.0113,-0.0056 -0.0226,0.01129 -0.21449,0.242711 -0.54751,0.242711 -0.32173,0 -0.48542,-0.186267 -0.16369,-0.191911 -0.16369,-0.536222 0,-0.05644 0.0113,-0.191911 l 0.13547,-1.10631 q 0.0564,-0.434622 0.27657,-0.671688 0.22578,-0.242711 0.58703,-0.242711 0.14675,0 0.27657,0.05644 0.12983,0.05644 0.20885,0.186267 0.006,0.01693 0.0169,0.01693 0.0113,-0.0056 0.0169,-0.02258 z m -0.6096,2.257776 q 0.14675,0 0.24835,-0.107245 0.10725,-0.112888 0.12983,-0.287866 l 0.12417,-1.010355 q 0.006,-0.02258 0.006,-0.07338 0,-0.146755 -0.079,-0.237066 -0.0734,-0.09031 -0.2032,-0.09031 -0.14676,0 -0.254,0.112889 -0.10725,0.112889 -0.12983,0.287866 l -0.12417,1.010355 q -0.006,0.02258 -0.006,0.06773 0,0.146756 0.079,0.237067 0.079,0.09031 0.20885,0.09031 z"
         id="path16" />
      <path
         style="font-style:italic;font-weight:600;font-stretch:condensed;-inkscape-font-specification:'Barlow Condensed,  Semi-Bold Italic Condensed';text-align:start;text-anchor:start;fill:#000000"
         d="m 138.07279,50.662316 q -0.41204,0 -0.65475,-0.237067 -0.24271,-0.237066 -0.24271,-0.626532 0,-0.05645 0.0113,-0.158045 l 0.0169,-0.146755 q 0.006,-0.02822 0.0226,-0.04516 0.0226,-0.02258 0.0508,-0.02258 h 0.49671 q 0.0621,0 0.0621,0.06773 l -0.0169,0.112889 q -0.006,0.02822 -0.006,0.09031 0,0.186266 0.0903,0.293511 0.0903,0.107244 0.23707,0.107244 0.18626,0 0.31608,-0.1524 0.13547,-0.1524 0.13547,-0.389466 0,-0.169334 -0.10724,-0.293511 -0.1016,-0.124178 -0.38947,-0.361244 -0.22578,-0.186267 -0.36689,-0.327378 -0.13547,-0.141111 -0.23142,-0.333022 -0.0903,-0.191911 -0.0903,-0.440266 0,-0.04516 0.0113,-0.158045 0.0564,-0.468488 0.36689,-0.745066 0.31044,-0.276577 0.75635,-0.276577 0.41204,0 0.64911,0.242711 0.24271,0.237066 0.24271,0.643466 0,0.0508 -0.0113,0.174978 l -0.0113,0.135466 q -0.006,0.02822 -0.0282,0.0508 -0.0226,0.01693 -0.0508,0.01693 h -0.49106 q -0.0282,0 -0.0452,-0.01693 -0.0169,-0.02258 -0.0113,-0.0508 l 0.0169,-0.146755 q 0.006,-0.03387 0.006,-0.09596 0,-0.180622 -0.0903,-0.282222 -0.0903,-0.107244 -0.24271,-0.107244 -0.18062,0 -0.31045,0.146755 -0.12417,0.141111 -0.12417,0.389467 0,0.163688 0.1016,0.299155 0.1016,0.129822 0.36688,0.3556 0.27094,0.225777 0.41769,0.372533 0.14676,0.146755 0.22578,0.316088 0.079,0.163689 0.079,0.372533 0,0.0508 -0.0113,0.163689 -0.0621,0.485422 -0.37817,0.773289 -0.31609,0.287866 -0.76765,0.287866 z m 2.35373,0 q -0.41204,0 -0.64347,-0.2032 -0.22577,-0.208844 -0.22577,-0.570088 0,-0.04516 0.0113,-0.146756 l 0.14111,-1.140177 q 0.0508,-0.412044 0.34431,-0.660399 0.29351,-0.254 0.73942,-0.254 0.41204,0 0.64347,0.208844 0.23142,0.208845 0.23142,0.547511 0,0.07338 -0.006,0.112889 l -0.0113,0.07902 q -0.006,0.02822 -0.0282,0.0508 -0.0169,0.01693 -0.0452,0.01693 l -0.508,0.02258 q -0.0621,0 -0.0564,-0.06773 l 0.006,-0.05645 q 0.0169,-0.141111 -0.0677,-0.242711 -0.079,-0.107244 -0.22577,-0.107244 -0.14676,0 -0.254,0.112889 -0.10725,0.112889 -0.12983,0.287866 l -0.12982,1.044222 -0.006,0.06773 q 0,0.146755 0.079,0.242711 0.079,0.09031 0.20884,0.09031 0.14676,0 0.254,-0.1016 0.11289,-0.107244 0.12983,-0.254 l 0.0113,-0.05644 q 0,-0.02822 0.0226,-0.04516 0.0226,-0.02258 0.0508,-0.02258 l 0.50236,0.0056 q 0.0282,0 0.0452,0.02258 0.0169,0.01693 0.0113,0.04515 l -0.0113,0.1016 q -0.0452,0.389467 -0.33866,0.632177 -0.29351,0.237067 -0.74507,0.237067 z m 2.8956,-2.963331 q 0.1524,0 0.22578,0.05644 0.0395,0.03387 0.0226,0.08467 l -0.1524,0.524933 q -0.0169,0.06773 -0.0847,0.03951 -0.079,-0.02258 -0.13547,-0.02258 -0.0677,0 -0.12418,0.01693 -0.1524,0.02258 -0.27093,0.180623 -0.11289,0.152399 -0.14111,0.366888 l -0.19756,1.597377 q -0.006,0.02822 -0.0282,0.0508 -0.0169,0.01693 -0.0452,0.01693 h -0.50235 q -0.0282,0 -0.0452,-0.01693 -0.0169,-0.02258 -0.0113,-0.0508 l 0.33302,-2.743198 q 0.006,-0.02822 0.0282,-0.04516 0.0226,-0.02258 0.0508,-0.02258 h 0.50235 q 0.0282,0 0.0452,0.02258 0.0169,0.01693 0.0113,0.04516 l -0.0339,0.259644 q 0,0.02258 0.0113,0.02822 0.0113,0 0.0169,-0.02258 0.19192,-0.366888 0.52494,-0.366888 z m 0.95391,-0.361244 q -0.15804,0 -0.254,-0.09596 -0.0903,-0.09596 -0.0903,-0.248355 0,-0.197556 0.12418,-0.327378 0.12982,-0.129822 0.31609,-0.129822 0.1524,0 0.24271,0.09596 0.0959,0.09031 0.0959,0.237066 0,0.197556 -0.12982,0.333022 -0.12418,0.135467 -0.3048,0.135467 z m -0.64911,3.279419 q -0.0282,0 -0.0452,-0.01693 -0.0169,-0.02258 -0.0113,-0.0508 l 0.33302,-2.748842 q 0.006,-0.02822 0.0226,-0.04516 0.0226,-0.02258 0.0508,-0.02258 h 0.508 q 0.0282,0 0.0452,0.02258 0.0169,0.01693 0.0113,0.04516 l -0.33866,2.748842 q -0.006,0.02822 -0.0282,0.0508 -0.0169,0.01693 -0.0452,0.01693 z m 2.62467,-2.929464 q 0.32738,0 0.49671,0.197555 0.17498,0.191911 0.17498,0.530578 0,0.06209 -0.0113,0.186266 l -0.13547,1.140177 q -0.0564,0.434622 -0.29351,0.677333 -0.23142,0.242711 -0.59267,0.242711 -0.12417,0 -0.254,-0.04516 -0.12417,-0.0508 -0.21448,-0.158044 -0.0113,-0.01129 -0.0226,-0.0056 -0.0113,0.0056 -0.0113,0.02258 l -0.14111,1.140177 q -0.006,0.02822 -0.0282,0.04516 -0.0169,0.02258 -0.0452,0.02258 h -0.50236 q -0.0621,0 -0.0621,-0.06773 l 0.46848,-3.815641 q 0.006,-0.02822 0.0226,-0.04516 0.0226,-0.02258 0.0508,-0.02258 h 0.508 q 0.0282,0 0.0452,0.02258 0.0169,0.01693 0.0113,0.04516 l -0.0113,0.06773 q 0,0.01693 0.0113,0.02258 0.0169,0 0.0395,-0.02258 0.20884,-0.180622 0.49671,-0.180622 z m 0.0339,0.897466 q 0,-0.1524 -0.0847,-0.242711 -0.079,-0.09595 -0.21449,-0.09595 -0.14676,0 -0.24836,0.112888 -0.1016,0.112889 -0.12982,0.293511 l -0.12418,1.044222 q -0.006,0.02822 -0.006,0.07902 0,0.146755 0.0734,0.237066 0.079,0.08467 0.20884,0.08467 0.1524,0 0.25965,-0.107244 0.10724,-0.112889 0.12982,-0.293511 l 0.12982,-1.044222 z m 2.31987,-0.4572 q -0.006,0.02822 -0.0282,0.0508 -0.0169,0.01693 -0.0452,0.01693 h -0.33867 q -0.0226,0 -0.0339,0.02822 l -0.18063,1.478843 q -0.006,0.03951 -0.006,0.1016 0,0.135467 0.0621,0.191911 0.0621,0.05644 0.18626,0.0508 h 0.0395 q 0.0282,0 0.0452,0.02258 0.0169,0.01693 0.0113,0.04515 l -0.0508,0.434622 q -0.006,0.02822 -0.0282,0.0508 -0.0226,0.01693 -0.0508,0.01693 h -0.18627 q -0.33302,0 -0.508,-0.107244 -0.16933,-0.112889 -0.16933,-0.412044 0,-0.03951 0.0113,-0.1524 l 0.21449,-1.721554 q 0,-0.02822 -0.0282,-0.02822 h -0.19191 q -0.0282,0 -0.0452,-0.01693 -0.0169,-0.02258 -0.0113,-0.0508 l 0.0395,-0.327377 q 0.006,-0.02822 0.0226,-0.04516 0.0226,-0.02258 0.0508,-0.02258 h 0.19191 q 0.0339,0 0.0339,-0.02822 l 0.0734,-0.620888 q 0.006,-0.02822 0.0282,-0.04516 0.0226,-0.02258 0.0508,-0.02258 h 0.47978 q 0.0282,0 0.0452,0.02258 0.0169,0.01693 0.0113,0.04516 l -0.0734,0.620888 q -0.0113,0.02822 0.0226,0.02822 h 0.33866 q 0.0282,0 0.0452,0.02258 0.0169,0.01693 0.0113,0.04516 z m 0.92569,2.523065 q -0.40076,0 -0.63218,-0.186266 -0.22578,-0.186267 -0.22578,-0.502356 0,-0.07338 0.006,-0.107244 l 0.006,-0.03951 q 0.006,-0.02822 0.0226,-0.04516 0.0226,-0.02258 0.0508,-0.02258 h 0.47413 q 0.0282,0 0.0452,0.02258 0.0169,0.01693 0.0113,0.04516 l -0.006,0.02822 q -0.0169,0.135467 0.0734,0.225778 0.0903,0.09031 0.23707,0.09031 0.1524,0 0.24835,-0.09596 0.1016,-0.1016 0.1016,-0.248355 0,-0.124178 -0.0959,-0.197555 -0.096,-0.07338 -0.21449,-0.124178 -0.11854,-0.0508 -0.15805,-0.06773 -0.27093,-0.112889 -0.44591,-0.276578 -0.16933,-0.163689 -0.16933,-0.474133 0,-0.451555 0.28222,-0.711199 0.28222,-0.265289 0.73378,-0.265289 0.38946,0 0.6096,0.197555 0.22013,0.191911 0.22013,0.530578 0,0.04516 -0.0113,0.135466 -0.006,0.02822 -0.0282,0.0508 -0.0169,0.01693 -0.0452,0.01693 h -0.4572 q -0.0621,0 -0.0621,-0.06773 l 0.006,-0.03387 q 0.0169,-0.135467 -0.0621,-0.225778 -0.0734,-0.09031 -0.21449,-0.09031 -0.15804,0 -0.254,0.112889 -0.0959,0.107244 -0.0959,0.242711 0,0.135466 0.0959,0.208844 0.1016,0.06773 0.33867,0.174978 0.19755,0.08467 0.33302,0.169333 0.13547,0.08467 0.23707,0.237066 0.1016,0.146756 0.1016,0.361244 0,0.423333 -0.29351,0.677333 -0.29352,0.254 -0.762,0.254 z"
         id="path17" />
      <path
         style="fill:#000000;fill-opacity:1"
         d="m 155.55759,51.033328 -0.38585,-0.892968 q 0.52917,-0.198438 1.03629,-0.540191 z m -1.76388,-2.271006 -0.89297,-0.38585 1.43316,-0.650434 q -0.34176,0.507118 -0.54019,1.036284 z m 3.19704,-2.006422 q 0.12127,0 0.17639,0.01103 0.0441,0.352777 -0.0882,0.727603 -0.17639,0.540191 -0.69453,1.047308 -0.59532,0.606337 -1.41111,0.915017 l -0.50712,-0.496093 q 0.33073,-0.826823 0.92604,-1.41111 0.44097,-0.440972 0.90399,-0.63941 0.35278,-0.15434 0.69453,-0.15434 z m 0,-0.46302 q -0.42995,0 -0.85989,0.176389 -0.55122,0.23151 -1.06936,0.749652 -0.65043,0.639409 -1.02526,1.576474 -0.0551,0.132292 -0.022,0.264583 0.0331,0.132292 0.13229,0.231511 l 0.4961,0.496093 q 0.14331,0.143316 0.33073,0.143316 0.0772,0 0.16536,-0.03307 0.90399,-0.341753 1.57647,-1.02526 0.37483,-0.363801 0.60634,-0.7717 0.18741,-0.330729 0.26458,-0.683507 0.0661,-0.275607 0.0551,-0.54019 0,-0.198438 -0.0441,-0.363802 l -0.0441,-0.132292 -0.15434,-0.0441 q -0.18741,-0.0441 -0.4079,-0.0441 z m -1.10243,1.752863 q -0.13229,-0.143316 -0.13229,-0.336241 0,-0.192925 0.1378,-0.330729 0.13781,-0.137804 0.33073,-0.137804 0.19293,0 0.33073,0.137804 0.13781,0.137804 0.13781,0.330729 0,0.192925 -0.13781,0.330729 -0.1378,0.137804 -0.33073,0.137804 -0.19292,0 -0.33624,-0.132292 z m -1.33394,1.664669 -0.33073,-0.330729 z m -0.61736,1.278818 0.8599,-0.84887 q -0.12127,-0.03307 -0.23151,-0.110243 l -0.95912,0.959113 z m -0.99219,0 h 0.33073 l 1.12448,-1.113454 -0.34175,-0.330728 -1.11346,1.113454 z m 0,-0.661457 0.95912,-0.959114 q -0.0772,-0.110243 -0.11024,-0.23151 l -0.84888,0.859895 z"
         id="path18" />
    </g>
  </g>
</svg>
