<?xml version="1.0" encoding="UTF-8" standalone="no"?>
<!-- Created with Inkscape (http://www.inkscape.org/) -->

<svg
   width="169.66298mm"
   height="171.59393mm"
   viewBox="0 0 169.66298 171.59393"
   version="1.1"
   id="svg1"
   inkscape:export-filename="MarbsCD.svg"
   inkscape:export-xdpi="96"
   inkscape:export-ydpi="96"
   sodipodi:docname="MarbsCD.svg"
   inkscape:version="1.3 (0e150ed6c4, 2023-07-21)"
   xmlns:inkscape="http://www.inkscape.org/namespaces/inkscape"
   xmlns:sodipodi="http://sodipodi.sourceforge.net/DTD/sodipodi-0.dtd"
   xmlns:xlink="http://www.w3.org/1999/xlink"
   xmlns="http://www.w3.org/2000/svg"
   xmlns:svg="http://www.w3.org/2000/svg">
  <sodipodi:namedview
     id="namedview1"
     pagecolor="#101010"
     bordercolor="#757575"
     borderopacity="0.24705882"
     inkscape:showpageshadow="2"
     inkscape:pageopacity="0.0"
     inkscape:pagecheckerboard="0"
     inkscape:deskcolor="#a1a1a1"
     inkscape:document-units="mm"
     inkscape:zoom="1.6819304"
     inkscape:cx="137.63946"
     inkscape:cy="332.05892"
     inkscape:window-width="2880"
     inkscape:window-height="1772"
     inkscape:window-x="0"
     inkscape:window-y="0"
     inkscape:window-maximized="1"
     inkscape:current-layer="layer1" />
  <defs
     id="defs1">
    <linearGradient
       id="linearGradient14"
       inkscape:collect="always">
      <stop
         style="stop-color:#ffbc00;stop-opacity:1;"
         offset="0"
         id="stop13" />
      <stop
         style="stop-color:#ff4500;stop-opacity:0.56862748;"
         offset="1"
         id="stop14" />
    </linearGradient>
    <linearGradient
       id="linearGradient9"
       inkscape:collect="always">
      <stop
         style="stop-color:#ffbc00;stop-opacity:1;"
         offset="0"
         id="stop9" />
      <stop
         style="stop-color:#ff4500;stop-opacity:1;"
         offset="1"
         id="stop10" />
    </linearGradient>
    <filter
       style="color-interpolation-filters:sRGB"
       inkscape:label="Drop Shadow"
       id="filter1166"
       x="-0.07571947"
       y="-0.25470787"
       width="1.1514389"
       height="1.5094157">
      <feFlood
         flood-opacity="0.498039"
         flood-color="rgb(0,0,0)"
         result="flood"
         id="feFlood1156" />
      <feComposite
         in="flood"
         in2="SourceGraphic"
         operator="in"
         result="composite1"
         id="feComposite1158" />
      <feGaussianBlur
         in="composite1"
         stdDeviation="3.8878385"
         result="blur"
         id="feGaussianBlur1160" />
      <feOffset
         dx="0"
         dy="0"
         result="offset"
         id="feOffset1162" />
      <feComposite
         in="SourceGraphic"
         in2="offset"
         operator="over"
         result="composite2"
         id="feComposite1164" />
    </filter>
    <radialGradient
       inkscape:collect="always"
       xlink:href="#linearGradient9"
       id="radialGradient10"
       cx="84.269485"
       cy="151.85632"
       fx="84.269485"
       fy="151.85632"
       r="84.817589"
       gradientUnits="userSpaceOnUse"
       gradientTransform="matrix(1.1903353,1.1518639,-0.91453755,0.94508244,73.916516,-161.34461)" />
    <radialGradient
       inkscape:collect="always"
       xlink:href="#linearGradient14"
       id="radialGradient13"
       gradientUnits="userSpaceOnUse"
       gradientTransform="matrix(0.65279364,-1.6166842,1.5569188,0.62866125,-234.48368,181.65965)"
       cx="80.666527"
       cy="184.46359"
       fx="80.666527"
       fy="184.46359"
       r="84.817589" />
  </defs>
  <g
     inkscape:label="Layer 1"
     inkscape:groupmode="layer"
     id="layer1"
     transform="translate(-20.089034,-10.738878)">
    <path
       id="path10"
       style="fill:url(#radialGradient10);fill-opacity:1;stroke:#dbdbdb;stroke-opacity:1"
       d="m 104.93469,11.238877 a 84.317795,84.317795 0 0 0 -84.317847,84.31785 84.317795,84.317795 0 0 0 84.317847,84.317333 84.317795,84.317795 0 0 0 84.31733,-84.317333 84.317795,84.317795 0 0 0 -84.31733,-84.31785 z m 0,65.68023 a 18.637358,18.637358 0 0 1 18.6371,18.63762 18.637358,18.637358 0 0 1 -18.6371,18.637103 18.637358,18.637358 0 0 1 -18.637618,-18.637103 18.637358,18.637358 0 0 1 18.637618,-18.63762 z"
       inkscape:label="under_cd" />
    <path
       id="path1013"
       style="fill:#ffffff"
       inkscape:label="waylogo"
       d="m 563.4936,80.031851 c -6.69499,0 -11.3943,4.275851 -14.1003,12.819843 v 13.670336 l 6.19513,32.03995 v 10.03981 l 0.85387,12.81984 c -2.563,0 -3.84469,0.49826 -3.8447,1.49496 v 0.855 l 3.8447,-0.855 h 0.85463 v 22.22033 c 1.996,14.80999 5.69924,27.98992 11.11024,39.51991 0.56899,8.12099 1.63753,12.17991 3.20353,12.17988 2.56299,8.12099 4.41496,12.1799 5.55396,12.17988 7.25999,8.12099 16.31021,13.96041 27.1302,17.52041 3.84399,0 7.04913,-4.06289 9.61212,-12.17988 3.276,-17.50998 5.91041,-28.19495 7.9044,-32.03995 1.851,1.566 5.05437,2.63407 9.61137,3.20367 v -0.85435 c 0,-1.424 -2.91851,-2.91918 -8.7575,-4.48618 1.566,-6.83999 3.70183,-12.67777 6.40783,-17.51976 0.16204,-3.11271 0.98422,-6.68213 2.46024,-10.70423 a 27.921248,23.410893 0 0 1 -2.4564,0.0953 27.921248,23.410893 0 0 1 -18.69751,-6.06419 c -1.20295,1.78541 -2.17949,2.77041 -2.87872,2.77038 h -1.70927 l -3.2043,-2.13621 c -5.41399,-12.23999 -9.11546,-30.26011 -11.10946,-54.04009 h -1.49503 v -1.49496 h 0.6404 c 0.99599,-2.99 2.91943,-5.3396 5.76743,-7.0486 v -0.64125 l -0.85464,-0.85435 -0.85463,0.85435 -0.85387,-0.85435 -3.84546,0.85435 h -1.7085 c -0.996,0 -2.56333,-3.27506 -4.69933,-9.82605 v -1.70872 h 5.55396 v -1.49496 h -7.26323 c -1.85,-7.82999 -7.96964,-17.450149 -18.36962,-28.840138 l 2.56313,0.640606 2.34966,-0.640606 3.2043,0.640606 6.40783,-0.640606 h 0.6404 l 0.85464,0.640606 4.91279,-0.640606 h 8.75827 c 2.56399,0 5.1984,0.783963 7.9044,2.349962 1.28199,-1.424199 3.70246,-2.207362 7.26246,-2.349962 v -1.494961 z m 55.96274,0 v 1.494961 h 6.40783 l 1.49504,1.494962 4.05893,-1.494962 4.69856,0.640606 4.91357,-0.640606 v -1.494961 h -21.57009 z m 44.59835,12.175374 -3.20353,1.494962 v 1.494961 l 2.34966,0.854356 v -0.854356 l 0.85464,-0.854356 c 1.5666,0 2.34955,-0.497962 2.34966,-1.494961 v -0.640606 h -2.34966 z m -11.95949,8.331095 v 0.001 l 0.003,-0.001 z m 0,0.001 -4.05586,1.49367 h -0.64117 l -0.85387,-0.6406 -4.69933,2.13621 v 1.49496 c 6.832,-1.281 10.25013,-2.49218 10.25023,-3.63117 z m 78.13637,5.19567 c -5.13,10.10999 -12.15987,27.4858 -18.28286,45.85578 h -15.80956 l -8.1171,0.64061 v 1.70871 h 4.05893 l 3.2043,-0.85435 13.4599,1.49496 v 0.855 c -3.845,11.10599 -6.1947,16.6597 -7.049,16.65961 -4.98199,20.78998 -8.97026,31.19016 -11.96026,31.1901 h -2.56313 c -3.558,-2.69999 -7.5455,-8.25826 -11.95949,-16.66026 0,-1.99299 -0.78444,-3.77288 -2.35044,-5.33988 l -11.95949,-22.21969 c -2.42099,-9.39999 -5.62513,-16.4503 -9.61213,-21.15029 -1.281,-3.132 -3.4186,-4.6985 -6.4086,-4.69864 h -1.49426 c -4.698,0 -9.2553,2.77646 -13.67029,8.33046 l 0.85463,2.34996 c -0.15151,0.43333 -0.35817,0.90867 -0.52368,1.35267 a 27.921248,23.410893 0 0 1 26.94897,23.39081 27.921248,23.410893 0 0 1 -6.39324,14.90519 c 0.22367,0.75848 0.43841,1.53749 0.68724,2.23858 5.839,9.96999 8.75817,19.37119 8.75827,28.20018 0,3.41999 4.55553,14.87993 13.66952,34.38991 2.45826,13.82796 -2.72277,20.08827 27.12712,7.4703 6.269,-11.39099 11.32494,-17.72822 15.16994,-19.01022 -10e-4,-0.9965 -1.35294,-1.49493 -4.05893,-1.49496 v -0.85436 c 2.13599,0 3.20413,-0.49806 3.20429,-1.49496 v -0.64061 l -0.85463,-0.85435 8.97173,-2.99121 c 0,-2.563 -1.06753,-3.84489 -3.20353,-3.84493 v -0.85435 h 6.40783 v -1.49496 c -3.275,0 -5.41113,-1.49518 -6.40783,-4.48618 h 1.49503 v -2.99121 l -0.85463,-0.85435 c 4.84199,0 7.26306,-0.78296 7.26323,-2.34996 v -0.64061 h -1.49503 v -0.85435 c 1.709,0 2.9901,-1.49518 3.8447,-4.48618 -4.699,-1.282 -7.04917,-2.56292 -7.049,-3.84492 l 6.19513,-15.1698 c 0,-7.69 1.6368,-16.09627 4.9128,-25.21026 3.703,-8.82999 8.20715,-23.92747 9.77415,-34.32746 z m -101.23451,2.49289 -12.8195,2.99121 c 0,1.56689 -0.57027,2.35011 -1.70927,2.34996 v 1.49496 c 6.698,-1.851 11.53931,-3.91653 14.53031,-6.19553 v -0.6406 z m 40.59009,7.47609 -3.2043,0.85436 v 0.6406 l 1.70927,1.70936 h 0.85463 l 1.49504,-1.70936 v -0.6406 z m 29.47986,0.85436 -1.49503,1.49496 v 0.855 h 0.85463 l 1.49504,-1.70936 v -0.6406 z m -13.4599,10.68041 c -2.13599,0.712 -3.20366,1.42367 -3.20353,2.13557 l 1.7085,2.34996 c 2.563,0 4.12953,-0.78296 4.69933,-2.34996 z m 19.22042,9.82606 -1.70926,1.49496 v 0.85435 h 1.70926 l 0.6404,-0.85435 v -0.64061 z m -30.33142,7.6892 c -4.27199,0.713 -6.40794,1.70921 -6.40783,2.99121 v 0.85435 h 2.34967 l 4.05893,-3.20367 v -0.64125 z m -132.40059,29.68999 -6.40784,5.98113 v 3.20367 h 1.70927 c 1.567,-0.996 3.41797,-3.84356 5.55397,-8.54355 v -0.64125 h -0.85464 z m 104.50023,35.66983 -6.40783,2.34996 v 1.49496 l 0.85387,0.85436 6.40859,-3.20432 v -1.49496 z m -87.7915,10.03981 v 0.64125 l 2.35043,7.68984 h 1.70927 l -2.56313,-8.33109 h -1.49503 z m 85.4403,9.82605 v 6.5e-4 0.85435 l 1.49503,2.13622 h 0.85464 l 0.85386,-0.64125 -2.56236,-2.34997 z"
       transform="matrix(0.67298882,0,0,0.80264722,-318.65753,-39.553578)" />
    <path
       id="path111"
       style="display:inline;fill:url(#radialGradient13);fill-opacity:1;stroke:#dbdbdb;stroke-opacity:1"
       d="m 104.90688,11.322303 a 84.317795,84.317795 0 0 0 -84.317846,84.31785 84.317795,84.317795 0 0 0 84.317846,84.317337 84.317795,84.317795 0 0 0 84.31733,-84.317337 84.317795,84.317795 0 0 0 -84.31733,-84.31785 z m 0,65.68023 a 18.637358,18.637358 0 0 1 18.6371,18.63762 18.637358,18.637358 0 0 1 -18.6371,18.637107 18.637358,18.637358 0 0 1 -18.637617,-18.637107 18.637358,18.637358 0 0 1 18.637617,-18.63762 z"
       inkscape:label="cd_foreground" />
    <path
       id="path111-0"
       style="display:none;fill:none;fill-opacity:1;stroke:none;stroke-width:0.911326;stroke-opacity:1"
       d="m 105.20924,19.298791 c -42.438127,-2.7e-5 -76.841036,34.402881 -76.841013,76.841011 6.7e-5,12.620298 3.04257,24.529968 8.434059,35.035588 12.738344,24.82138 38.589294,41.80499 68.406954,41.80497 42.43777,-2.4e-4 76.84032,-34.40279 76.84055,-76.840558 2e-5,-42.437948 -34.40259,-76.840774 -76.84055,-76.841011 z"
       inkscape:label="Circle invisible"
       sodipodi:nodetypes="ccsccc" />
    <circle
       style="display:inline;fill:none;stroke:#dbdbdb;stroke-width:1;stroke-dasharray:none;stroke-opacity:1"
       id="circle990"
       cx="104.93448"
       cy="95.556503"
       r="33.962791"
       inkscape:label="inner_circle" />
    <path
       id="rect1044"
       style="fill:#ffffff;fill-opacity:1;stroke:none"
       d="m 69.911873,26.391797 82.902297,-0.249463 c 13.76129,9.91965 22.64297,21.127634 26.17368,28.808704 L 69.633783,55.285357 c -11.1143,0.12223 -15.40395,-25.24012 0.16686,-28.89353 z"
       sodipodi:nodetypes="cccccc"
       inkscape:label="letters_bg" />
    <path
       style="font-size:29.4321px;font-family:'Barlow Condensed';-inkscape-font-specification:'Barlow Condensed, ';stroke-width:0.834299"
       d="m 79.453507,30.776654 q 0.0883,-0.206025 0.353185,-0.206025 h 1.530469 q 0.294321,0 0.294321,0.294321 v 20.013829 q 0,0.294321 -0.294321,0.294321 h -1.501037 q -0.294321,0 -0.294321,-0.294321 V 35.103173 q 0,-0.0883 -0.05886,-0.0883 -0.02943,0 -0.0883,0.05886 l -3.060939,6.357333 q -0.0883,0.206025 -0.294321,0.206025 -0.235457,0 -0.323753,-0.206025 l -3.060938,-6.327901 q -0.05886,-0.05886 -0.117729,-0.05886 -0.02943,0 -0.02943,0.0883 v 15.746174 q 0,0.294321 -0.294321,0.294321 h -1.501037 q -0.294321,0 -0.294321,-0.294321 V 30.86495 q 0,-0.294321 0.294321,-0.294321 h 1.530469 q 0.264889,0 0.353185,0.206025 l 3.35526,6.798815 q 0.02943,0.05886 0.0883,0.05886 0.05886,0 0.0883,-0.05886 z M 93.580912,51.1731 q -0.264889,0 -0.323753,-0.264889 L 92.521357,47.25863 q 0,-0.05886 -0.05886,-0.0883 -0.02943,-0.02943 -0.0883,-0.02943 h -5.32721 q -0.05886,0 -0.117728,0.02943 -0.02943,0.02943 -0.02943,0.0883 l -0.735803,3.649581 Q 86.134591,51.1731 85.84027,51.1731 h -1.501037 q -0.147161,0 -0.235457,-0.0883 -0.05886,-0.0883 -0.02943,-0.235457 l 4.414815,-20.013828 q 0.05886,-0.264889 0.323753,-0.264889 h 1.765926 q 0.294321,0 0.323753,0.264889 l 4.47368,20.013828 v 0.05887 q 0,0.264889 -0.264889,0.264889 z m -6.298469,-5.856988 q 0,0.117728 0.0883,0.117728 h 4.650272 q 0.0883,0 0.0883,-0.117728 L 89.754739,33.749296 q -0.02943,-0.0883 -0.05886,-0.0883 -0.02943,0 -0.05886,0.0883 z M 106.11898,51.1731 q -0.26489,0 -0.35318,-0.235457 l -3.00208,-9.094519 q -0.0294,-0.0883 -0.11772,-0.0883 h -2.5606 q -0.117725,0 -0.117725,0.117729 v 9.006223 q 0,0.294321 -0.294321,0.294321 h -1.501037 q -0.294321,0 -0.294321,-0.294321 V 30.86495 q 0,-0.294321 0.294321,-0.294321 h 4.856293 q 2.14855,0 3.47299,1.589334 1.32445,1.559901 1.32445,4.091062 0,1.913086 -0.8241,3.296395 -0.8241,1.383309 -2.23684,1.942519 -0.11773,0.02943 -0.0883,0.14716 l 3.2081,9.212247 0.0294,0.117729 q 0,0.206025 -0.26489,0.206025 z M 100.0854,32.39542 q -0.117725,0 -0.117725,0.117728 v 7.446321 q 0,0.117729 0.117725,0.117729 h 2.64889 q 1.35388,0 2.17798,-1.030124 0.8241,-1.059555 0.8241,-2.796049 0,-1.736494 -0.8241,-2.79605 -0.8241,-1.059555 -2.17798,-1.059555 z M 120.98221,45.581 q 0.0294,2.648889 -1.41274,4.120495 -1.44217,1.471605 -3.8556,1.471605 h -4.50311 q -0.29432,0 -0.29432,-0.294321 V 30.86495 q 0,-0.294321 0.29432,-0.294321 h 4.23822 q 2.53116,0 3.97333,1.412741 1.44218,1.383309 1.44218,3.973334 0,3.296395 -2.44287,4.503111 -0.0589,0.02943 -0.0589,0.05886 0,0.02943 0.0294,0.05886 2.59002,1.501038 2.59002,5.003457 z m -7.85837,-13.18558 q -0.11772,0 -0.11772,0.117728 v 7.093136 q 0,0.117729 0.11772,0.117729 h 2.32514 q 1.58933,0 2.4723,-0.941828 0.88296,-0.941827 0.88296,-2.648889 0,-1.765926 -0.88296,-2.737185 -0.88297,-1.000691 -2.4723,-1.000691 z m 2.44287,16.923457 q 1.5599,0 2.44286,-1.030123 0.88297,-1.059556 0.88297,-2.94321 0,-1.913087 -0.88297,-2.972642 -0.88296,-1.059556 -2.44286,-1.059556 h -2.44287 q -0.11772,0 -0.11772,0.117728 v 7.770075 q 0,0.117728 0.11772,0.117728 z m 12.56749,2.089679 q -2.17798,0 -3.53185,-1.442173 -1.35388,-1.442173 -1.35388,-3.767308 v -0.676939 q 0,-0.294321 0.29432,-0.294321 h 1.44217 q 0.29432,0 0.29432,0.294321 v 0.588642 q 0,1.559902 0.79467,2.531161 0.79467,0.941827 2.06025,0.941827 1.23615,0 2.06025,-0.912395 0.82409,-0.912395 0.82409,-2.413432 0,-1.000692 -0.41205,-1.707062 -0.38261,-0.735803 -1.03012,-1.26558 -0.61807,-0.55921 -2.08968,-1.67763 -1.4716,-1.088988 -2.32513,-1.854222 -0.85353,-0.794667 -1.41274,-1.883655 -0.52978,-1.088988 -0.52978,-2.560593 0,-2.295703 1.32444,-3.620148 1.32445,-1.353876 3.44356,-1.353876 2.23684,0 3.56128,1.471605 1.35388,1.442172 1.35388,3.855605 v 0.735802 q 0,0.294321 -0.29432,0.294321 h -1.47161 q -0.29432,0 -0.29432,-0.294321 v -0.765234 q 0,-1.559902 -0.79467,-2.501729 -0.76523,-0.971259 -2.06024,-0.971259 -1.17729,0 -1.94252,0.853531 -0.76524,0.824098 -0.76524,2.354568 0,0.912395 0.32376,1.618765 0.35318,0.676938 1.03012,1.295013 0.67694,0.618074 2.00138,1.618765 1.76593,1.295013 2.61946,2.119111 0.88296,0.794667 1.35388,1.765926 0.47091,0.941828 0.47091,2.295704 0,2.413432 -1.38331,3.885037 -1.38331,1.442173 -3.56128,1.442173 z"
       id="text1277"
       aria-label="MARBS"
       inkscape:label="MARBS_letters" />
    <path
       style="font-size:12.7px;font-family:'Barlow Condensed';-inkscape-font-specification:'Barlow Condensed, ';text-align:center;text-anchor:middle;fill:#ffffff;stroke-width:0.741"
       d="m 46.243005,145.57043 q -0.627936,-0.74966 -0.564955,-1.56448 0.07272,-0.82298 0.812636,-1.44276 l 3.719075,-3.11521 q 0.739921,-0.61978 1.553162,-0.53891 0.822978,0.0727 1.450914,0.82237 0.627936,0.74966 0.555219,1.57264 -0.06456,0.83271 -0.804481,1.45249 l -0.41864,0.35067 q -0.09736,0.0816 -0.178908,-0.0158 l -0.415905,-0.49653 q -0.08155,-0.0974 0.01581,-0.17891 l 0.438111,-0.36697 q 0.457583,-0.38329 0.51,-0.87449 0.06215,-0.49937 -0.304823,-0.93748 -0.35882,-0.42837 -0.869499,-0.46448 -0.502523,-0.0264 -0.95037,0.34876 l -3.738547,3.13152 q -0.447846,0.37514 -0.509999,0.8745 -0.054,0.50909 0.304823,0.93747 0.366975,0.43811 0.859763,0.47264 0.502523,0.0264 0.960106,-0.35692 l 1.246182,-1.04384 q 0.03894,-0.0326 0.0063,-0.0716 l -0.701331,-0.83728 q -0.08155,-0.0974 0.01581,-0.17891 l 0.408903,-0.34251 q 0.09736,-0.0815 0.178909,0.0158 l 1.231406,1.4701 q 0.08155,0.0974 -0.01581,0.17891 l -1.781651,1.49237 q -0.739921,0.61978 -1.571053,0.53733 -0.813242,-0.0809 -1.441178,-0.83053 z m 7.187009,3.25673 q -0.09149,0.0881 -0.179573,-0.003 l -2.008335,-2.08592 q -0.03523,-0.0366 -0.07183,-0.001 l -0.667862,0.64302 q -0.384249,0.36995 -0.428672,0.8182 -0.02647,0.4486 0.308258,0.79625 0.281872,0.29276 0.649486,0.32667 0.385571,0.0343 0.730843,-0.17477 0.108765,-0.0518 0.179233,0.0214 l 0.422126,0.47506 q 0.03523,0.0366 0.03421,0.0905 -0.001,0.0539 -0.05557,0.0888 -0.610247,0.44651 -1.291603,0.37971 -0.663399,-0.0665 -1.235951,-0.66113 -0.625402,-0.64957 -0.619918,-1.41292 0.01429,-0.75421 0.64556,-1.362 l 1.976141,-1.90263 q 0.622118,-0.59898 1.376324,-0.58468 0.772163,0.0146 1.397566,0.66419 0.634211,0.65872 0.61077,1.42173 -0.0055,0.76336 -0.627603,1.36233 z m 0.593208,-3.339 q -0.334723,-0.34765 -0.793144,-0.3294 -0.440464,0.0186 -0.833863,0.39737 l -0.612969,0.59017 q -0.03659,0.0352 -0.0014,0.0718 l 1.444592,1.5004 q 0.03523,0.0366 0.07183,0.001 l 0.61297,-0.59017 q 0.393398,-0.37876 0.419863,-0.82736 0.03561,-0.4574 -0.307917,-0.8142 z m 3.844921,3.52991 q -0.08651,0.093 -0.179489,0.006 l -0.706672,-0.65744 q -0.03719,-0.0346 -0.0718,0.003 l -2.647053,2.84529 q -0.397923,0.42772 -0.404858,0.7335 0.0017,0.29648 0.31721,0.57264 l 0.09298,0.0865 q 0.09298,0.0865 0.0065,0.17949 l -0.371971,0.39983 q -0.0865,0.093 -0.179489,0.006 l -0.232458,-0.21626 q -0.548601,-0.51038 -0.620587,-1.011 -0.05404,-0.50127 0.560149,-1.16145 l 2.828714,-3.04056 q 0.0346,-0.0372 -0.0026,-0.0718 L 55.894078,147.355 q -0.09298,-0.0865 -0.0065,-0.17949 l 0.285467,-0.30684 q 0.08651,-0.093 0.179488,-0.006 l 0.362635,0.33737 q 0.03719,0.0346 0.07179,-0.003 l 0.968856,-1.04142 q 0.08651,-0.093 0.179488,-0.006 l 0.464917,0.43252 q 0.09298,0.0865 0.0065,0.17949 l -0.968856,1.04141 q -0.0346,0.0372 0.0026,0.0718 l 0.706673,0.65743 q 0.09298,0.0865 0.0065,0.17949 z m -2.956133,8.56143 q -0.01999,-0.0157 -0.01648,-0.0613 0.0035,-0.0456 0.03485,-0.0856 l 0.313396,-0.39981 q 0.07835,-0.1 0.178301,-0.0216 0.317687,0.23289 0.57379,0.25614 0.266097,0.0311 0.595422,-0.16261 0.329324,-0.19368 0.893695,-0.68722 0.02566,-0.0121 0.02351,-0.03 0.01567,-0.02 0.02351,-0.03 l 2.585373,-5.91268 0.01351,-0.0378 q 0.06268,-0.08 0.162631,-0.002 l 0.539742,0.42308 q 0.09995,0.0784 0.03943,0.17614 l -2.199533,4.61759 q -0.01351,0.0378 -0.0035,0.0457 0.01,0.008 0.0435,-0.0143 l 3.948697,-3.24648 q 0.0905,-0.0743 0.180461,-0.004 l 0.551898,0.44875 q 0.04998,0.0392 0.04646,0.0848 0.0065,0.0535 -0.05268,0.0878 l -5.604507,4.28838 q -0.704852,0.52865 -1.135483,0.70747 -0.420635,0.18665 -0.79452,0.0872 -0.38172,-0.0894 -0.891476,-0.48902 z m 6.841226,2.06469 q -0.754216,-0.517 -0.903069,-1.26572 -0.138378,-0.74154 0.357077,-1.46433 l 1.54381,-2.25217 q 0.488275,-0.71232 1.247471,-0.85399 0.759197,-0.14167 1.502937,0.36814 0.754216,0.517 0.895889,1.2762 0.141673,0.75919 -0.346602,1.47151 l -1.54381,2.25217 q -0.495455,0.72279 -1.247471,0.85399 -0.752016,0.13119 -1.506232,-0.3858 z m 0.452372,-0.65994 q 0.398059,0.27286 0.836157,0.17283 0.448574,-0.0928 0.757336,-0.54327 l 1.479185,-2.1579 q 0.308762,-0.45043 0.233575,-0.9023 -0.05753,-0.45517 -0.45559,-0.72802 -0.398059,-0.27286 -0.843338,-0.16237 -0.438098,0.10003 -0.74686,0.55046 l -1.479185,2.1579 q -0.308762,0.45043 -0.24405,0.89512 0.06471,0.44469 0.46277,0.71755 z m 8.174492,-1.47722 q 0.06438,-0.10947 0.173853,-0.0451 l 0.558305,0.32835 q 0.109471,0.0644 0.04509,0.17385 l -3.128938,5.32032 q -0.06438,0.10947 -0.173853,0.0451 l -0.558305,-0.32835 q -0.109471,-0.0644 -0.04509,-0.17385 l 0.218897,-0.3722 q 0.01931,-0.0328 -0.0026,-0.0457 -0.01095,-0.006 -0.04572,0.003 -0.674145,0.36967 -1.429499,-0.0746 -0.65683,-0.38629 -0.819154,-1.01216 -0.14494,-0.63038 0.331483,-1.44047 l 2.291979,-3.89719 q 0.06438,-0.10947 0.173853,-0.0451 l 0.558305,0.32834 q 0.109472,0.0644 0.04509,0.17386 l -2.188969,3.72203 q -0.321907,0.54736 -0.270355,0.96075 0.06894,0.40888 0.495876,0.65997 0.437886,0.25752 0.86543,0.0817 0.438491,-0.16939 0.760398,-0.71674 z m 3.841243,1.82002 q 0.282735,0.14446 0.422744,0.37287 0.05605,0.0857 -0.01857,0.17591 l -0.436179,0.51875 q -0.06331,0.096 -0.170382,-0.001 -0.101044,-0.1372 -0.304613,-0.2412 -0.09047,-0.0462 -0.141491,-0.058 -0.418694,-0.1854 -0.886825,0.0888 -0.462354,0.26293 -0.757042,0.83971 l -1.733459,3.39282 q -0.05778,0.11309 -0.170876,0.0553 l -0.57678,-0.29469 q -0.113093,-0.0578 -0.05531,-0.17087 l 2.808204,-5.49637 q 0.05778,-0.11309 0.170876,-0.0553 l 0.576779,0.29469 q 0.113094,0.0578 0.05531,0.17087 l -0.346692,0.67857 q -0.01733,0.0339 -0.006,0.0397 0.02262,0.0116 0.05679,5e-4 0.767116,-0.69195 1.513536,-0.31059 z m -0.0641,7.19022 q -0.801188,-0.35497 -1.108814,-0.97743 -0.290869,-0.62893 0.01265,-1.31401 l 0.03601,-0.0813 q 0.05144,-0.11611 0.167559,-0.0647 l 0.557348,0.24693 q 0.116114,0.0515 0.06467,0.16756 l -0.03087,0.0697 q -0.164621,0.37157 -0.01074,0.74534 0.165497,0.37892 0.606731,0.5744 0.418012,0.1852 0.78664,0.0429 0.368628,-0.14228 0.543538,-0.53707 0.133754,-0.30189 0.05865,-0.57131 -0.06996,-0.28103 -0.239133,-0.49488 -0.157562,-0.20872 -0.504874,-0.58484 -0.370535,-0.38642 -0.595265,-0.69434 -0.207975,-0.3144 -0.284549,-0.73726 -0.05982,-0.42933 0.166536,-0.94023 0.329242,-0.74313 0.97243,-0.97212 0.6548,-0.22385 1.432765,0.12082 0.789577,0.34982 1.058546,0.99683 0.26897,0.64702 -0.05513,1.37853 l -0.01543,0.0348 q -0.05144,0.11611 -0.167558,0.0647 l -0.534126,-0.23664 q -0.116114,-0.0515 -0.06467,-0.16756 l 0.03087,-0.0697 q 0.174909,-0.39479 0.02102,-0.76856 -0.142275,-0.36863 -0.560286,-0.55383 -0.418011,-0.1852 -0.791783,-0.0313 -0.357017,0.14742 -0.526783,0.53059 -0.123465,0.27868 -0.05997,0.54295 0.06864,0.25266 0.232667,0.47813 0.169173,0.21386 0.486795,0.56294 0.383469,0.41992 0.603055,0.73946 0.231198,0.32468 0.314239,0.7643 0.08304,0.43962 -0.138169,0.93891 -0.318953,0.71991 -0.985365,0.93861 -0.666411,0.21871 -1.47921,-0.1414 z m 9.059822,-3.57058 q 0.84435,0.2782 1.168144,0.99997 0.327769,0.70972 0.02572,1.62644 l -1.339323,4.06494 q -0.03974,0.12062 -0.160364,0.0809 l -0.61517,-0.20269 q -0.120621,-0.0397 -0.08088,-0.16036 l 0.119228,-0.36186 q 0.0079,-0.0241 -0.01618,-0.0321 -0.0081,-0.016 -0.04016,1.4e-4 -0.641038,0.444 -1.533637,0.14991 -0.663418,-0.21859 -1.034764,-0.75546 -0.355309,-0.54496 -0.03737,-1.50993 0.337812,-1.02528 1.083853,-1.30097 0.750015,-0.28774 1.714986,0.0302 l 0.84435,0.27819 q 0.04825,0.0159 0.06415,-0.0323 l 0.154996,-0.47042 q 0.198713,-0.60311 0.04051,-1.05638 -0.158202,-0.45327 -0.628625,-0.60827 -0.361864,-0.11923 -0.706717,0.0346 -0.33279,0.15779 -0.50424,0.51582 -0.03974,0.12062 -0.160364,0.0809 l -0.671506,-0.23463 q -0.06031,-0.0199 -0.08457,-0.068 -0.0122,-0.0441 0.01576,-0.0884 0.294792,-0.69179 0.956537,-0.95513 0.66572,-0.27541 1.425635,-0.025 z m -2.045276,5.47705 q 0.494548,0.16294 0.959743,-0.0315 0.469169,-0.20645 0.655959,-0.77337 l 0.333837,-1.01322 q 0.0159,-0.0483 -0.03235,-0.0641 l -0.856412,-0.28218 q -0.578983,-0.19076 -1.020054,0.0116 -0.437096,0.19027 -0.635809,0.79338 -0.174867,0.53073 -0.009,0.87956 0.181908,0.34074 0.604083,0.47984 z m 6.924752,-3.38605 q -0.03285,0.12268 -0.155528,0.0898 l -0.932351,-0.24966 q -0.04907,-0.0131 -0.06221,0.0359 l -1.00524,3.75393 q -0.151115,0.56432 -0.01396,0.8377 0.140437,0.26112 0.548559,0.35726 l 0.122678,0.0328 q 0.122677,0.0328 0.08983,0.15553 l -0.141259,0.52751 q -0.03285,0.12268 -0.155529,0.0898 l -0.306694,-0.0821 q -0.723798,-0.19382 -1.021971,-0.60235 -0.282621,-0.41752 -0.04938,-1.28853 l 1.074227,-4.01156 q 0.01314,-0.0491 -0.03593,-0.0622 l -0.478443,-0.12812 q -0.122677,-0.0328 -0.08983,-0.15553 l 0.108408,-0.40483 q 0.03285,-0.12268 0.155529,-0.0898 l 0.478443,0.12812 q 0.04907,0.0131 0.06221,-0.0359 l 0.367931,-1.37399 q 0.03285,-0.12268 0.155529,-0.0898 l 0.613388,0.16425 q 0.122678,0.0329 0.08983,0.15553 l -0.367931,1.37399 q -0.01314,0.0491 0.03593,0.0622 l 0.932351,0.24966 q 0.122677,0.0328 0.08983,0.15553 z m 9.67566,-1.24324 q 0.04929,-0.0832 0.162627,-0.0684 l 0.654841,0.0855 q 0.125931,0.0164 0.109488,0.14238 l -1.11815,8.56331 q -0.01644,0.12593 -0.142374,0.10948 l -0.642249,-0.0839 q -0.125931,-0.0164 -0.109487,-0.14237 l 0.881365,-6.7499 q 0.0049,-0.0378 -0.02025,-0.0411 -0.01259,-0.002 -0.04107,0.0203 l -1.664859,2.5491 q -0.04929,0.0832 -0.137442,0.0717 -0.100744,-0.0132 -0.127013,-0.10624 l -0.95615,-2.87853 q -0.0219,-0.0285 -0.04708,-0.0318 -0.01259,-0.002 -0.01753,0.0361 l -0.879721,6.73731 q -0.01644,0.12593 -0.142374,0.10949 l -0.642248,-0.0839 q -0.125931,-0.0164 -0.109488,-0.14238 l 1.11815,-8.5633 q 0.01644,-0.12594 0.142375,-0.10949 l 0.654841,0.0855 q 0.113338,0.0148 0.139607,0.10789 l 1.055771,3.09646 q 0.0093,0.0268 0.03449,0.0301 0.02519,0.003 0.04107,-0.0203 z m 4.940558,9.16398 q -0.11414,-0.006 -0.13341,-0.12158 l -0.23315,-1.58948 q 0.001,-0.0254 -0.0233,-0.0394 -0.012,-0.0134 -0.0374,-0.0147 l -2.295437,-0.12247 q -0.02536,-0.001 -0.0514,0.01 -0.01336,0.012 -0.01471,0.0374 l -0.400952,1.55565 q -0.01877,0.11346 -0.145591,0.10669 l -0.64678,-0.0345 q -0.06341,-0.003 -0.09943,-0.0435 -0.02333,-0.0394 -0.0073,-0.10214 l 2.362411,-8.52223 q 0.0315,-0.11279 0.14559,-0.1067 l 0.76092,0.0406 q 0.12681,0.007 0.13341,0.12158 l 1.46754,8.72658 -0.001,0.0254 q -0.006,0.11413 -0.12023,0.10804 z m -2.57929,-2.66851 q -0.003,0.0507 0.0353,0.0528 l 2.00375,0.1069 q 0.038,0.002 0.0408,-0.0487 l -0.74864,-5.03815 q -0.0106,-0.0387 -0.0233,-0.0394 -0.0127,-6.8e-4 -0.0274,0.0367 z m 7.98992,2.65372 q -0.11428,0.002 -0.15401,-0.0991 l -1.35831,-3.90297 q -0.0133,-0.0379 -0.0514,-0.0373 l -1.10476,0.0178 q -0.0508,8.2e-4 -0.05,0.0516 l 0.0625,3.8857 q 0.002,0.12698 -0.12494,0.12902 l -0.64761,0.0104 q -0.12699,0.002 -0.12903,-0.12494 l -0.13882,-8.63488 q -0.002,-0.12699 0.12494,-0.12903 l 2.09523,-0.0337 q 0.92698,-0.0149 1.50943,0.66162 0.58225,0.66383 0.59981,1.75588 0.0133,0.8254 -0.33269,1.42794 -0.34596,0.60254 -0.95161,0.8536 -0.0506,0.0135 -0.0371,0.0641 l 1.44802,3.95233 0.0135,0.0506 q 0.001,0.0889 -0.11285,0.0907 z m -2.73341,-8.0597 q -0.0508,8.2e-4 -0.05,0.0516 l 0.0516,3.21269 q 8.1e-4,0.0508 0.0516,0.05 l 1.14285,-0.0184 q 0.58412,-0.009 0.93253,-0.45955 0.34821,-0.46286 0.33616,-1.21206 -0.012,-0.7492 -0.37495,-1.20063 -0.3629,-0.45142 -0.94702,-0.44203 z m 8.91403,5.17247 q 0.11419,1.13735 -0.44924,1.82512 -0.56343,0.68778 -1.60071,0.78029 l -1.93541,0.17262 q -0.1265,0.0113 -0.13778,-0.11521 l -0.7672,-8.60186 q -0.0113,-0.1265 0.11521,-0.13778 l 1.82157,-0.16246 q 1.08788,-0.097 1.76188,0.45487 0.67286,0.53926 0.77215,1.65244 0.12636,1.41678 -0.87731,2.02906 -0.0242,0.0149 -0.023,0.0276 0.001,0.0126 0.0149,0.0242 1.17072,0.54585 1.30498,2.05118 z m -3.88294,-5.36587 q -0.0506,0.005 -0.0461,0.0551 l 0.27191,3.0486 q 0.005,0.0506 0.0551,0.0461 l 0.99933,-0.0891 q 0.68309,-0.0609 1.02648,-0.49957 0.34339,-0.43864 0.27795,-1.17232 -0.0677,-0.75899 -0.48442,-1.14259 -0.41785,-0.39624 -1.10094,-0.33532 z m 1.69866,7.17999 q 0.67044,-0.0598 1.01045,-0.53639 0.33888,-0.48924 0.26667,-1.29883 -0.0733,-0.82223 -0.49345,-1.24378 -0.42011,-0.42154 -1.09055,-0.36175 l -1.04993,0.0936 q -0.0506,0.005 -0.0461,0.0551 l 0.29785,3.33954 q 0.005,0.0506 0.0551,0.0461 z m 5.46691,0.22104 q -0.92783,0.14951 -1.6036,-0.37192 -0.67576,-0.52144 -0.83537,-1.51196 l -0.0465,-0.28838 q -0.0202,-0.12538 0.10518,-0.14559 l 0.61437,-0.099 q 0.12539,-0.0202 0.14559,0.10518 l 0.0404,0.25077 q 0.10708,0.66453 0.51229,1.02374 0.40318,0.34667 0.94233,0.25979 0.52661,-0.0849 0.81505,-0.53011 0.28843,-0.44526 0.18539,-1.08471 -0.0687,-0.4263 -0.29272,-0.69894 -0.21351,-0.28719 -0.52572,-0.46843 -0.30169,-0.19579 -1.00538,-0.57123 -0.70166,-0.36289 -1.1178,-0.63029 -0.41816,-0.27995 -0.73115,-0.70547 -0.30044,-0.42755 -0.40146,-1.05446 -0.1576,-0.97799 0.31571,-1.63313 0.47128,-0.66768 1.37403,-0.81315 0.95291,-0.15355 1.61815,0.38244 0.67576,0.52144 0.84144,1.54958 l 0.0505,0.31345 q 0.0202,0.12539 -0.10518,0.14559 l -0.62691,0.10102 q -0.12538,0.0202 -0.14559,-0.10518 l -0.0525,-0.32599 q -0.10708,-0.66453 -0.51027,-1.0112 -0.39267,-0.36123 -0.94435,-0.27234 -0.50153,0.0808 -0.76893,0.49696 -0.26943,0.4036 -0.16436,1.05559 0.0626,0.38869 0.24904,0.66738 0.19693,0.26414 0.52774,0.48097 0.33081,0.21684 0.96372,0.55222 0.8412,0.43046 1.26138,0.72293 0.4307,0.27792 0.69798,0.65936 0.26527,0.3689 0.35821,0.94566 0.16567,1.02814 -0.32261,1.75001 -0.49029,0.70933 -1.41812,0.85884 z m 3.67337,-0.81612 q -0.31064,0.0657 -0.55147,-0.0911 -0.2284,-0.15941 -0.29143,-0.45762 -0.0657,-0.31064 0.0813,-0.53642 0.15679,-0.24083 0.46743,-0.30648 0.29821,-0.063 0.53904,0.0937 0.2382,0.14436 0.30386,0.45499 0.063,0.29821 -0.0937,0.53904 -0.15679,0.24083 -0.455,0.30387 z m 2.02946,-0.41179 q -0.12271,0.0327 -0.15543,-0.09 l -2.22482,-8.3445 q -0.0327,-0.12271 0.09,-0.15543 l 0.62583,-0.16686 q 0.12272,-0.0327 0.15544,0.09 l 1.06006,3.97591 q 0.01,0.0368 0.0376,0.0425 0.0278,0.006 0.0303,-0.0343 l 1.29194,-4.66873 q 0.0385,-0.10225 0.12436,-0.12516 l 0.68719,-0.18322 q 0.0736,-0.0196 0.11126,0.0229 0.0344,0.0303 0.0139,0.10145 l -1.02767,3.83592 q -0.0115,0.0556 0.007,0.0769 l 3.41611,4.33351 0.0254,0.0458 q 0.0262,0.0982 -0.0843,0.12761 l -0.69946,0.1865 q -0.0982,0.0262 -0.16116,-0.0622 l -2.87948,-3.70112 q -0.0254,-0.0458 -0.0614,0.0164 l -0.44673,1.3809 q -0.009,0.0155 0.004,0.0646 l 0.77542,2.9083 q 0.0327,0.12272 -0.09,0.15543 z m 7.41826,-2.10755 q -0.92281,0.32359 -1.70881,-0.11408 -0.78601,-0.43766 -1.15162,-1.48031 l -2.12226,-6.05219 q -0.042,-0.11985 0.0778,-0.16187 l 0.61121,-0.21433 q 0.11985,-0.042 0.16187,0.0778 l 2.15588,6.14807 q 0.23114,0.65915 0.6976,0.95315 0.47845,0.28981 1.01776,0.1007 0.55129,-0.19332 0.74397,-0.71846 0.19268,-0.52515 -0.0385,-1.1843 l -2.15587,-6.14806 q -0.042,-0.11985 0.0778,-0.16187 l 0.61121,-0.21433 q 0.11985,-0.042 0.16187,0.0778 l 2.12226,6.05219 q 0.36561,1.04266 0.0131,1.87956 -0.34054,0.83269 -1.27534,1.16049 z m 5.40493,-2.13202 q -0.89552,0.39284 -1.68193,0.086 -0.77477,-0.31193 -1.17781,-1.23072 l -1.89278,-4.3148 q -0.39794,-0.90716 -0.10273,-1.68846 0.30683,-0.7864 1.20236,-1.17924 0.90715,-0.39794 1.68193,-0.086 0.7813,0.29521 1.18434,1.21399 l 0.0867,0.19771 q 0.051,0.11631 -0.0653,0.16732 l -0.58947,0.30019 q -0.1163,0.051 -0.16732,-0.0653 l -0.12754,-0.29076 q -0.23979,-0.54662 -0.70176,-0.74615 -0.46196,-0.19952 -0.98532,0.0301 -0.51173,0.22448 -0.68942,0.70461 -0.16607,0.47502 0.0737,1.02164 l 1.94889,4.44274 q 0.23979,0.54661 0.70175,0.74614 0.4736,0.19443 0.98533,-0.03 0.52336,-0.22958 0.68942,-0.70461 0.16607,-0.47502 -0.0737,-1.02164 l -0.12755,-0.29076 q -0.051,-0.1163 0.0653,-0.16732 l 0.62007,-0.2304 q 0.11631,-0.051 0.16732,0.0653 l 0.0816,0.18608 q 0.40305,0.91879 0.0962,1.7052 -0.30683,0.7864 -1.20236,1.17924 z m 2.10143,-10.91478 q -0.0597,-0.11209 0.0524,-0.17181 l 0.57162,-0.30458 q 0.11208,-0.0597 0.1718,0.0524 l 4.06107,7.62156 q 0.0597,0.11209 -0.0524,0.17181 l -0.57162,0.30458 q -0.11208,0.0597 -0.1718,-0.0524 l -1.82151,-3.4185 q -0.0239,-0.0448 -0.0687,-0.0209 l -1.99506,1.06304 q -0.0448,0.0239 -0.0209,0.0687 l 1.82151,3.41849 q 0.0597,0.11208 -0.0524,0.1718 l -0.57162,0.30458 q -0.11208,0.0597 -0.1718,-0.0524 l -4.06107,-7.62156 q -0.0597,-0.11208 0.0524,-0.1718 l 0.57161,-0.30458 q 0.11209,-0.0597 0.17181,0.0524 l 1.81553,3.40728 q 0.0239,0.0448 0.0687,0.0209 l 1.99505,-1.06305 q 0.0448,-0.0239 0.0209,-0.0687 z m 5.06384,-3.22625 q 0.10755,-0.0675 0.1751,0.04 l 0.28369,0.4517 q 0.0676,0.10755 -0.04,0.17509 l -1.41962,0.89162 q -0.043,0.027 -0.016,0.07 l 4.21492,6.71095 q 0.0675,0.10755 -0.04,0.1751 l -0.54849,0.34448 q -0.10755,0.0676 -0.1751,-0.04 l -4.21492,-6.71095 q -0.027,-0.043 -0.07,-0.016 l -1.33359,0.83758 q -0.10755,0.0676 -0.1751,-0.04 l -0.28369,-0.4517 q -0.0675,-0.10755 0.04,-0.17509 z m 8.29606,4.96066 q -0.0926,0.067 -0.18019,-0.0107 l -1.18075,-1.08932 q -0.0149,-0.0206 -0.0429,-0.016 -0.0177,-0.003 -0.0383,0.0121 l -1.86187,1.34813 q -0.0206,0.0149 -0.0337,0.0401 -0.003,0.0177 0.0121,0.0383 l 0.66641,1.46174 q 0.0568,0.10003 -0.0461,0.17451 l -0.52462,0.37986 q -0.0514,0.0372 -0.10464,0.0287 -0.0429,-0.016 -0.0699,-0.0748 l -3.52182,-8.11211 q -0.0465,-0.10748 0.0461,-0.17451 l 0.61719,-0.4469 q 0.10287,-0.0745 0.18019,0.0106 l 6.62837,5.86274 0.0149,0.0206 q 0.067,0.0926 -0.0255,0.15961 z m -3.68353,-0.4531 q 0.0298,0.0411 0.0607,0.0188 l 1.62528,-1.17682 q 0.0309,-0.0224 0.001,-0.0635 l -3.75009,-3.44677 q -0.0326,-0.0234 -0.0429,-0.016 -0.0103,0.007 0.002,0.0458 z m 5.34962,-0.90077 q -0.24766,0.19867 -0.53331,0.16732 -0.27575,-0.0393 -0.46648,-0.27705 -0.19867,-0.24765 -0.16928,-0.51545 0.0313,-0.28566 0.279,-0.48433 0.23775,-0.19073 0.52341,-0.15938 0.2777,0.0214 0.47638,0.2691 0.19073,0.23775 0.15938,0.5234 -0.0313,0.28566 -0.2691,0.47639 z m 1.76348,-1.39521 q -0.0947,0.0846 -0.17932,-0.0101 l -5.75491,-6.43907 q -0.0846,-0.0947 0.0101,-0.17932 l 1.45826,-1.30332 q 0.72913,-0.65166 1.59633,-0.55803 0.85874,0.0842 1.5781,0.88904 l 2.7759,3.1059 q 0.71936,0.80488 0.7154,1.67712 -0.0124,0.86276 -0.74156,1.51442 z m 0.0191,-1.14122 q 0.0339,0.0379 0.0717,0.004 l 0.82483,-0.75422 q 0.41664,-0.37238 0.37509,-0.91437 -0.0321,-0.55046 -0.51346,-1.10813 l -2.72512,-3.04909 q -0.49933,-0.55868 -1.03327,-0.66059 -0.53395,-0.10192 -0.96953,0.28739 l -0.83329,0.74475 q -0.0379,0.0339 -0.004,0.0717 z m 1.05645,-11.31963 q 0.0913,0.0883 0.003,0.17958 l -2.04811,2.11814 q -0.0353,0.0365 0.001,0.0718 l 2.26422,2.18936 q 0.0365,0.0353 0.0718,-0.001 l 1.2889,-1.33297 q 0.0883,-0.0913 0.17958,-0.003 l 0.39258,0.37961 q 0.0913,0.0883 0.003,0.17958 l -1.28889,1.33297 q -0.0353,0.0365 0.001,0.0718 l 2.27335,2.19818 q 0.0365,0.0353 0.0718,-0.001 l 2.04811,-2.11814 q 0.0883,-0.0913 0.17957,-0.003 l 0.38346,0.37078 q 0.0913,0.0883 0.003,0.17957 l -2.62193,2.71159 q -0.0883,0.0913 -0.17958,0.003 l -6.20835,-6.00308 q -0.0913,-0.0883 -0.003,-0.17958 l 2.62194,-2.71158 q 0.0883,-0.0913 0.17957,-0.003 z m 7.83022,3.49566 q -0.0734,0.0876 -0.17732,0.0337 l -7.8028,-4.13376 -0.0195,-0.0163 q -0.0876,-0.0734 -0.0142,-0.16102 l 0.45668,-0.5452 q 0.0816,-0.0974 0.17733,-0.0337 l 6.32304,3.50723 q 0.0276,0.007 0.0358,-0.003 0.008,-0.01 -0.003,-0.0358 l -4.5697,-5.60041 q -0.0713,-0.0929 0.002,-0.18048 l 0.44037,-0.52573 q 0.0897,-0.1071 0.18049,0.002 l 5.43783,6.95713 q 0.0795,0.0831 -0.002,0.18049 z"
       id="text3692"
       inkscape:label="get_yours_bottom"
       aria-label="Get yours at  MARBS.KUCHTA.DEV" />
    <text
       xml:space="preserve"
       style="font-style:normal;font-variant:normal;font-weight:normal;font-stretch:normal;font-size:5.64444px;line-height:0.95;font-family:'Barlow Condensed';-inkscape-font-specification:'Barlow Condensed, ';text-align:center;text-anchor:middle;fill:#ffffff;stroke-width:1"
       x="136.98906"
       y="34.530506"
       id="text962"
       inkscape:label="expansion"><tspan
         sodipodi:role="line"
         style="font-style:italic;font-variant:normal;font-weight:600;font-stretch:condensed;font-size:5.64444px;line-height:0.95;font-family:'Barlow Condensed';-inkscape-font-specification:'Barlow Condensed,  Semi-Bold Italic Condensed';text-align:start;text-anchor:start;fill:#000000;fill-opacity:1;stroke-width:1"
         x="136.98906"
         y="34.530506"
         id="tspan1066">Mariusz's</tspan><tspan
         sodipodi:role="line"
         style="font-style:italic;font-variant:normal;font-weight:600;font-stretch:condensed;font-size:5.64444px;line-height:0.95;font-family:'Barlow Condensed';-inkscape-font-specification:'Barlow Condensed,  Semi-Bold Italic Condensed';text-align:start;text-anchor:start;fill:#000000;fill-opacity:1;stroke-width:1"
         x="136.98906"
         y="39.892723"
         id="tspan1072">Auto Rice</tspan><tspan
         sodipodi:role="line"
         style="font-style:italic;font-variant:normal;font-weight:600;font-stretch:condensed;font-size:5.64444px;line-height:0.95;font-family:'Barlow Condensed';-inkscape-font-specification:'Barlow Condensed,  Semi-Bold Italic Condensed';text-align:start;text-anchor:start;fill:#000000;fill-opacity:1;stroke-width:1"
         x="136.98906"
         y="45.254944"
         id="tspan1076">Bootstrapping</tspan><tspan
         sodipodi:role="line"
         style="font-style:italic;font-variant:normal;font-weight:600;font-stretch:condensed;font-size:5.64444px;line-height:0.95;font-family:'Barlow Condensed';-inkscape-font-specification:'Barlow Condensed,  Semi-Bold Italic Condensed';text-align:start;text-anchor:start;fill:#000000;fill-opacity:1;stroke-width:1"
         x="136.98906"
         y="50.617161"
         id="tspan1074">Scripts  <tspan
   style="fill:#ff6600"
   id="tspan4">󱓟 </tspan></tspan></text>
    <g
       id="text962-2-0"
       style="font-size:9.17222px;font-family:'Barlow Condensed';-inkscape-font-specification:'Barlow Condensed, ';text-align:center;text-anchor:middle;fill:#ffffff"
       aria-label="Powered by Wayland"
       inkscape:label="inner_text">
      <path
         style="text-align:start;text-anchor:start;fill:#000000"
         d="m 85.190328,110.64004 q 0.406563,0.532 0.263643,1.1607 -0.135632,0.62313 -0.769669,1.10766 -0.62675,0.47896 -1.258055,0.45348 -0.624017,-0.0311 -1.02501,-0.55578 l -0.573644,-0.75064 q -0.02228,-0.0292 -0.05143,-0.007 l -2.200912,1.68195 q -0.07288,0.0557 -0.128572,-0.0172 l -0.284037,-0.37168 q -0.05569,-0.0729 0.01718,-0.12857 l 4.962985,-3.79273 q 0.07288,-0.0557 0.128572,0.0172 z m -2.433232,1.75558 q 0.250621,0.32796 0.668924,0.33152 0.418302,0.004 0.855569,-0.3306 0.437268,-0.33416 0.543686,-0.73872 0.113707,-0.41012 -0.136914,-0.73807 l -0.506812,-0.66319 q -0.02228,-0.0291 -0.05143,-0.007 l -1.872962,1.43133 q -0.02915,0.0223 -0.0069,0.0514 z m -0.292357,4.97834 q -0.463123,-0.4708 -0.465082,-1.02212 0.0045,-0.54478 0.455648,-0.98861 l 1.405837,-1.38294 q 0.444636,-0.43739 1.002391,-0.43281 0.557755,0.005 1.014446,0.46883 0.463123,0.47079 0.458543,1.02855 -0.0046,0.55775 -0.449216,0.99515 l -1.405837,1.38294 q -0.451175,0.44382 -1.002391,0.43281 -0.551216,-0.011 -1.014339,-0.4818 z m 0.411943,-0.40524 q 0.244426,0.24848 0.568808,0.23817 0.330815,-0.004 0.611982,-0.28036 l 1.346988,-1.32505 q 0.281167,-0.27658 0.290369,-0.60729 0.02217,-0.3306 -0.222254,-0.57908 -0.244426,-0.24847 -0.575348,-0.23173 -0.324382,0.0103 -0.605549,0.2869 l -1.346988,1.32504 q -0.281167,0.27659 -0.296801,0.60076 -0.01563,0.32417 0.228793,0.57264 z m 1.889749,2.44867 q -0.06555,-0.0502 -0.02993,-0.12688 l 1.937899,-4.13048 0.01115,-0.0146 q 0.05018,-0.0655 0.115728,-0.0154 l 0.356857,0.27322 q 0.07283,0.0558 0.02993,0.12688 l -1.605623,3.18349 q -0.0039,0.0201 0.0034,0.0257 0.0073,0.006 0.02572,-0.003 l 2.668912,-2.36942 q 0.06475,-0.0544 0.130294,-0.004 l 0.327726,0.25091 q 0.07283,0.0558 0.02993,0.12688 l -1.591057,3.19465 q -0.0039,0.0201 0.0034,0.0257 0.0073,0.006 0.02572,-0.003 l 2.668912,-2.36941 q 0.06475,-0.0544 0.130294,-0.004 l 0.343999,0.27492 q 0.08011,0.0613 0.0042,0.1303 l -3.476277,2.94111 q -0.05747,0.06 -0.130294,0.004 l -0.371423,-0.28437 q -0.06555,-0.0502 -0.02993,-0.12688 l 1.501844,-3.07812 q 0.0094,-0.0274 0.0022,-0.033 -0.0073,-0.006 -0.03129,0.0107 l -2.557851,2.26962 q -0.05746,0.06 -0.130293,0.004 z m 6.951334,1.97582 q -0.04497,0.0799 -0.12491,0.035 l -1.822733,-1.0252 q -0.03198,-0.018 -0.04996,0.014 l -0.328244,0.5836 q -0.188853,0.33576 -0.126386,0.65503 0.07496,0.31578 0.378747,0.48664 0.255822,0.14389 0.517133,0.0909 0.273802,-0.0565 0.469155,-0.27282 0.06445,-0.0585 0.128407,-0.0225 l 0.390729,0.24081 q 0.03198,0.018 0.04247,0.0555 0.01049,0.0375 -0.01998,0.073 -0.329249,0.4357 -0.814398,0.53115 -0.472659,0.0919 -0.992298,-0.20032 -0.567606,-0.31925 -0.722514,-0.84837 -0.146914,-0.52462 0.163344,-1.07624 l 0.971243,-1.7268 q 0.305762,-0.54362 0.830381,-0.69053 0.53711,-0.15041 1.104716,0.16884 0.5756,0.32374 0.718018,0.85636 0.154908,0.52911 -0.150854,1.07274 z m -0.283886,-2.43275 q -0.303788,-0.17086 -0.617061,-0.0629 -0.300781,0.10444 -0.49413,0.4482 l -0.301265,0.53563 q -0.01799,0.032 0.01399,0.05 l 1.311089,0.73742 q 0.03198,0.018 0.04996,-0.014 l 0.301265,-0.53563 q 0.193349,-0.34376 0.118391,-0.65953 -0.07046,-0.32376 -0.382245,-0.49913 z m 3.408179,1.04165 q 0.21034,0.0913 0.321605,0.24962 0.04429,0.0592 -0.0054,0.12763 l -0.290899,0.39368 q -0.04129,0.0721 -0.122878,0.007 -0.07905,-0.0943 -0.230491,-0.16006 -0.06731,-0.0292 -0.104616,-0.0354 -0.310193,-0.11467 -0.635199,0.10421 -0.321353,0.21047 -0.507636,0.63956 l -1.095783,2.52407 q -0.03653,0.0841 -0.120662,0.0476 l -0.429092,-0.18628 q -0.08414,-0.0365 -0.04761,-0.12067 l 1.775168,-4.08899 q 0.03653,-0.0841 0.120661,-0.0476 l 0.429092,0.18629 q 0.08414,0.0365 0.04761,0.12066 l -0.219157,0.50481 q -0.01096,0.0252 -0.0025,0.0289 0.01683,0.007 0.04096,-0.002 0.521592,-0.53351 1.076887,-0.29244 z m 2.425596,3.47325 q -0.0277,0.0874 -0.115141,0.0597 l -1.993608,-0.6316 q -0.03498,-0.0111 -0.04606,0.0239 l -0.202223,0.63831 q -0.116348,0.36724 0.01,0.66704 0.137829,0.29383 0.470097,0.39909 0.279805,0.0887 0.524804,-0.0165 0.256513,-0.11116 0.403596,-0.36283 0.05116,-0.0704 0.121114,-0.0482 l 0.431655,0.156 q 0.03498,0.0111 0.0529,0.0456 0.01792,0.0345 -0.0047,0.0755 -0.233392,0.49373 -0.688848,0.68619 -0.443942,0.18649 -1.012295,0.006 -0.620817,-0.19669 -0.880457,-0.68305 -0.250896,-0.48359 -0.05975,-1.08692 l 0.598359,-1.88868 q 0.188372,-0.59458 0.671963,-0.84548 0.495105,-0.25687 1.115922,-0.0602 0.62956,0.19945 0.877686,0.69179 0.259641,0.48636 0.07127,1.08095 z m -0.774433,-2.3236 q -0.332268,-0.10526 -0.616917,0.0643 -0.273134,0.16362 -0.392252,0.53961 l -0.185601,0.58584 q -0.01108,0.035 0.02389,0.0461 l 1.434,0.45431 q 0.03498,0.0111 0.04606,-0.0239 l 0.185602,-0.58584 q 0.119117,-0.37598 -0.01871,-0.66981 -0.135059,-0.30257 -0.476071,-0.41061 z m 4.291769,-1.2187 q 0.0168,-0.0902 0.10696,-0.0734 l 0.45988,0.0856 q 0.0902,0.0168 0.0734,0.10696 l -1.14162,6.13174 q -0.0168,0.0902 -0.10696,0.0734 l -0.459877,-0.0856 q -0.09017,-0.0168 -0.07338,-0.10696 l 0.03693,-0.19838 q 0.0034,-0.018 -0.013,-0.0304 -0.0073,-0.0107 -0.02873,0.004 -0.413168,0.31493 -0.936169,0.21756 -0.577105,-0.10745 -0.84925,-0.54997 -0.270465,-0.45154 -0.156304,-1.06471 l 0.362632,-1.94773 q 0.117519,-0.63121 0.529008,-0.93712 0.413168,-0.31493 0.990273,-0.20749 0.532015,0.0991 0.793465,0.54892 0.0147,0.0214 0.0254,0.014 0.0197,-0.006 0.0231,-0.0237 z m -1.825202,5.59396 q 0.333639,0.0621 0.584686,-0.13372 0.261743,-0.20317 0.332255,-0.5819 l 0.347521,-1.86657 q 0.0722,-0.38775 -0.10057,-0.66249 -0.162071,-0.28208 -0.49571,-0.34419 -0.342656,-0.0638 -0.613417,0.13769 -0.260064,0.19416 -0.332255,0.5819 l -0.347522,1.86658 q -0.07051,0.37872 0.100574,0.66248 0.181782,0.27642 0.524438,0.34022 z m 5.831102,-3.69598 q 0.57785,1.5e-4 0.92629,0.38548 0.35762,0.37616 0.35745,1.01821 l -5.3e-4,1.9812 q -1.7e-4,0.62371 -0.34882,1.01803 -0.34865,0.38514 -0.93567,0.38498 -0.24765,-7e-5 -0.47693,-0.0918 -0.22928,-0.10096 -0.4035,-0.29362 -0.0183,-0.0183 -0.0367,-0.009 -0.009,0.009 -0.009,0.0275 l -6e-5,0.20179 q -2e-5,0.0917 -0.0917,0.0917 l -0.46778,-1.3e-4 q -0.0917,-2e-5 -0.0917,-0.0917 l 0.002,-6.23711 q 2e-5,-0.0917 0.0917,-0.0917 l 0.46778,1.3e-4 q 0.0917,2e-5 0.0917,0.0917 l -5.3e-4,1.9812 q -1e-5,0.0183 0.0183,0.0275 0.0183,0.009 0.0367,-0.0183 0.16515,-0.1834 0.39448,-0.27506 0.22933,-0.10084 0.47698,-0.10077 z m 0.6325,1.44938 q 1e-4,-0.39441 -0.21997,-0.63294 -0.22007,-0.24771 -0.57778,-0.24781 -0.33937,-9e-5 -0.5504,0.24751 -0.21103,0.23842 -0.21113,0.63282 l -5.1e-4,1.89865 q -1e-4,0.38524 0.21079,0.63294 0.2109,0.23854 0.55027,0.23863 0.35772,9e-5 0.57792,-0.23833 0.2202,-0.24759 0.2203,-0.63282 z m 1.69875,5.02673 q -0.0182,0.002 -0.0396,-0.0231 -0.0214,-0.0252 -0.0257,-0.0616 l -0.0426,-0.36442 q -0.0106,-0.0911 0.0805,-0.10174 0.28135,-0.0421 0.42452,-0.16039 0.15228,-0.11936 0.22271,-0.38616 0.0704,-0.26679 0.10893,-0.80689 0.007,-0.0193 -0.003,-0.0273 -0.002,-0.0182 -0.003,-0.0273 l -1.68046,-4.34715 -0.0123,-0.0263 q -0.009,-0.0729 0.0826,-0.0835 l 0.49196,-0.0574 q 0.0911,-0.0106 0.10979,0.0703 l 1.21983,3.48672 q 0.0123,0.0263 0.0214,0.0252 0.009,-0.001 0.015,-0.0295 l 0.37446,-3.67291 q 0.009,-0.0841 0.0906,-0.0937 l 0.51124,-0.0505 q 0.0456,-0.005 0.067,0.0199 0.0305,0.0241 0.0176,0.0718 l -0.69393,5.04923 q -0.0927,0.62954 -0.22264,0.94022 -0.12083,0.30962 -0.36316,0.44873 -0.24125,0.14823 -0.70588,0.20249 z"
         id="path12"
         inkscape:label="powered_by_text" />
      <path
         style="font-weight:500;font-stretch:condensed;-inkscape-font-specification:'Barlow Condensed,  Medium Condensed';fill:#000000"
         d="m 113.17033,125.36326 q -0.0783,0.0262 -0.12186,-0.0463 l -3.13402,-5.52879 -0.006,-0.0174 q -0.0262,-0.0783 0.0521,-0.10446 l 0.68724,-0.22968 q 0.087,-0.0291 0.12186,0.0463 l 2.0682,3.84444 q 0.0145,0.0145 0.0232,0.0116 0.009,-0.003 0.0116,-0.0232 l -0.73722,-4.28927 q -0.0175,-0.0812 0.0608,-0.10737 l 0.58285,-0.1948 q 0.0783,-0.0262 0.11316,0.0492 l 2.03341,3.85608 q 0.0145,0.0145 0.0232,0.0116 0.009,-0.003 0.0116,-0.0232 l -0.71982,-4.29509 q -0.009,-0.0841 0.0608,-0.10737 l 0.67854,-0.22678 q 0.0435,-0.0145 0.0696,0.006 0.0348,0.0174 0.0407,0.0638 l 0.88092,6.28181 q 0.0175,0.0812 -0.0695,0.11028 l -0.61765,0.20642 q -0.0696,0.0233 -0.11316,-0.0492 l -2.03633,-3.89378 q -0.0145,-0.0145 -0.0319,-0.009 -0.009,0.003 -0.003,0.0203 l 0.74885,4.32407 q 0.0175,0.0812 -0.0608,0.10737 z m 3.53981,-6.52366 q 0.5949,-0.30727 1.1634,-0.12603 0.57664,0.17703 0.89234,0.78823 l 1.43115,2.77078 q 0.0421,0.0815 -0.0394,0.12359 l -0.61935,0.3199 q -0.0815,0.0421 -0.12359,-0.0394 l -0.0926,-0.17929 q -0.008,-0.0163 -0.0289,-0.016 -0.0124,-0.004 -0.0202,0.0208 -0.10843,0.4896 -0.66259,0.77583 -0.46451,0.23993 -0.95778,0.16436 -0.48933,-0.0879 -0.83869,-0.76433 -0.36621,-0.70899 -0.11082,-1.25385 0.25934,-0.55721 0.95203,-0.915 l 0.47266,-0.24414 q 0.0326,-0.0168 0.0158,-0.0494 l -0.12206,-0.23633 q -0.17679,-0.34227 -0.44501,-0.46182 -0.27243,-0.1277 -0.53321,0.007 -0.20373,0.10523 -0.27071,0.31533 -0.067,0.21009 0.0222,0.44275 0.0421,0.0815 -0.0394,0.12359 l -0.6601,0.34095 q -0.0815,0.0421 -0.12359,-0.0394 -0.22864,-0.54261 -0.0221,-1.06221 0.2065,-0.5196 0.76065,-0.80583 z m 1.71775,3.66542 q 0.28523,-0.14733 0.4045,-0.43605 0.11928,-0.28873 -0.0491,-0.6147 l -0.28623,-0.55416 q -0.0168,-0.0326 -0.0494,-0.0158 l -0.49711,0.25677 q -0.32597,0.16837 -0.42895,0.44868 -0.10719,0.27216 0.0654,0.60628 0.15153,0.29337 0.37398,0.3643 0.22246,0.0709 0.46694,-0.0554 z m 3.43107,0.99174 q -0.0152,0.0103 -0.0458,-0.002 -0.0306,-0.0125 -0.0512,-0.0429 l -0.30355,-0.44801 q -0.0515,-0.0759 0.0245,-0.12738 0.23784,-0.17223 0.32822,-0.33318 0.098,-0.1661 0.0529,-0.41252 -0.0375,-0.25158 -0.22372,-0.65722 l -0.0333,-0.0328 -3.52386,-3.10773 -0.023,-0.0176 q -0.0412,-0.0607 0.0348,-0.1122 l 0.62265,-0.42189 q 0.0759,-0.0515 0.12984,0.0117 l 2.41165,2.36561 q 0.023,0.0176 0.0306,0.0125 0.008,-0.005 -2.4e-4,-0.0331 l -1.31063,-3.11163 q -0.0311,-0.0786 0.0372,-0.12494 l 0.63539,-0.41944 q 0.038,-0.0257 0.0686,-0.0132 0.0382,0.007 0.0488,0.0556 l 1.69685,4.74451 q 0.21073,0.6217 0.23624,0.97003 0.0307,0.35593 -0.15548,0.63717 -0.17855,0.27609 -0.64934,0.59508 z m 1.98762,-3.65283 q -0.0713,0.0577 -0.12901,-0.0135 l -3.92659,-4.84597 q -0.0577,-0.0713 0.0135,-0.12901 l 0.54161,-0.43885 q 0.0713,-0.0577 0.12901,0.0135 l 3.92658,4.84597 q 0.0577,0.0713 -0.0135,0.12901 z m -0.90687,-5.51246 q 0.47974,-0.4671 1.07637,-0.45914 0.60321,0.002 1.08311,0.49444 l 2.17554,2.23437 q 0.064,0.0657 -0.002,0.1297 l -0.49945,0.4863 q -0.0657,0.064 -0.12971,-0.002 l -0.14077,-0.14458 q -0.0128,-0.0131 -0.0323,-0.007 -0.013,-1.7e-4 -0.0133,0.0258 0.0387,0.49996 -0.40814,0.93507 -0.37459,0.36472 -0.8685,0.43597 -0.49373,0.0583 -1.02482,-0.48717 -0.55668,-0.57174 -0.4709,-1.16733 0.086,-0.60857 0.64454,-1.15246 l 0.38116,-0.37112 q 0.0263,-0.0256 6.9e-4,-0.0519 l -0.18556,-0.19058 q -0.26874,-0.27601 -0.56014,-0.31233 -0.2978,-0.0429 -0.50809,0.16187 -0.16429,0.15997 -0.16724,0.38046 -0.003,0.2205 0.15011,0.41713 0.064,0.0657 -0.002,0.1297 l -0.53231,0.51829 q -0.0657,0.064 -0.1297,-0.002 -0.37665,-0.45258 -0.3303,-1.00978 0.0464,-0.55721 0.49322,-0.99232 z m 2.71009,3.00689 q 0.23001,-0.22395 0.2601,-0.5349 0.0301,-0.31094 -0.22585,-0.5738 l -0.43511,-0.44688 q -0.0256,-0.0263 -0.0519,-6.9e-4 l -0.40087,0.39032 q -0.26287,0.25594 -0.27982,0.55409 -0.0233,0.29157 0.23899,0.56101 0.23036,0.23658 0.46382,0.23969 0.23347,0.003 0.43062,-0.18884 z m -0.27108,-5.7261 q 0.35975,-0.4522 0.85684,-0.44353 0.49562,-0.004 1.05549,0.4412 l 2.46201,1.95865 q 0.0718,0.0571 0.0147,0.12888 l -0.43399,0.54552 q -0.0571,0.0718 -0.12888,0.0147 l -2.40458,-1.91297 q -0.30147,-0.23983 -0.56934,-0.24197 -0.26788,-0.002 -0.45061,0.22756 -0.18844,0.23687 -0.13185,0.50458 0.0551,0.25483 0.338,0.50331 0.0431,0.0343 0.0374,0.0414 l 2.37586,1.89013 q 0.0718,0.0571 0.0147,0.12888 l -0.43399,0.54552 q -0.0571,0.0718 -0.12888,0.0147 l -3.50997,-2.79236 q -0.0718,-0.0571 -0.0147,-0.12888 l 0.43398,-0.54552 q 0.0571,-0.0718 0.12889,-0.0147 l 0.1938,0.15418 q 0.0144,0.0114 0.0329,0.003 0.0114,-0.0144 0.001,-0.0458 -0.11025,-0.50966 0.26092,-0.97622 z m 0.64313,-3.81901 q -0.0785,-0.0475 -0.031,-0.12596 l 0.36104,-0.59631 q 0.0475,-0.0785 0.12597,-0.031 l 5.33539,3.23034 q 0.0785,0.0475 0.031,0.12596 l -0.36104,0.59631 q -0.0475,0.0785 -0.12596,0.031 l -0.12554,-0.076 q -0.0157,-0.01 -0.033,0.001 -0.0126,0.003 -0.006,0.0283 0.051,0.23459 0.008,0.46565 -0.0434,0.23106 -0.15741,0.41937 -0.31353,0.51785 -0.83619,0.61958 -0.52575,0.0891 -1.08283,-0.24816 l -1.632,-0.9881 q -0.58062,-0.35153 -0.72964,-0.84921 -0.15211,-0.51027 0.16142,-1.02812 0.11401,-0.18831 0.29864,-0.33386 0.18463,-0.14556 0.41612,-0.20912 0.0252,-0.006 0.0221,-0.0188 0.002,-0.0204 -0.014,-0.0299 z m 4.48811,3.47863 q 0.13301,-0.21969 0.082,-0.45427 -0.0541,-0.24719 -0.27045,-0.42109 l -1.76539,-1.06886 q -0.25438,-0.11113 -0.49062,-0.0397 -0.23934,0.0588 -0.37236,0.27851 -0.15201,0.25107 -0.0713,0.52511 0.0854,0.26618 0.36791,0.4372 l 1.53001,0.92634 q 0.28246,0.17102 0.55793,0.12336 0.28022,-0.0555 0.43224,-0.30659 z"
         id="path13"
         inkscape:label="wayland_text" />
    </g>
    <path
       id="circle19"
       style="display:none;fill:none;stroke:#dbdbdb;stroke-width:0.913265;stroke-opacity:1"
       inkscape:label="Invisible inner"
       d="m 78.76489,112.71212 a 31.017043,31.017043 0 0 0 43.00574,8.63839 31.017043,31.017043 0 0 0 8.63839,-43.005721 31.017043,31.017043 0 0 0 -43.005709,-8.638402 31.017043,31.017043 0 0 0 -8.638421,43.005733 z" />
    <rect
       style="fill:#000000;fill-opacity:1;stroke:none;stroke-width:0.75018;stroke-opacity:1"
       id="rect5"
       width="71.896294"
       height="6.8886328"
       x="70.866585"
       y="136.4269"
       inkscape:label="selling_points_bg" />
    <path
       style="font-weight:500;font-stretch:condensed;font-size:4.58611px;line-height:1;font-family:'Barlow Condensed';-inkscape-font-specification:'Barlow Condensed,  Medium Condensed';fill:#ffffff;stroke-width:0.451665"
       d="m 77.646882,138.77198 q 0.284339,0 0.43568,0.20637 0.155928,0.20179 0.155928,0.56868 v 1.54552 q 0,0.0459 -0.04586,0.0459 h -0.343958 q -0.04586,0 -0.04586,-0.0459 v -1.51341 q 0,-0.20179 -0.08255,-0.31186 -0.08255,-0.11465 -0.220134,-0.11465 -0.146755,0 -0.233891,0.11465 -0.08714,0.11007 -0.08714,0.30727 v 1.518 q 0,0.0459 -0.04586,0.0459 h -0.343959 q -0.04586,0 -0.04586,-0.0459 v -1.51341 q 0,-0.20179 -0.08255,-0.31186 -0.08255,-0.11465 -0.220133,-0.11465 -0.146756,0 -0.233892,0.11465 -0.08714,0.11007 -0.08714,0.30727 v 1.518 q 0,0.0459 -0.04586,0.0459 h -0.343958 q -0.04586,0 -0.04586,-0.0459 v -2.24261 q 0,-0.0459 0.04586,-0.0459 h 0.343958 q 0.04586,0 0.04586,0.0459 v 0.11466 q 0,0.009 0.0046,0.0138 0.0092,0.005 0.01835,-0.005 0.09172,-0.1009 0.210961,-0.15134 0.119239,-0.0504 0.238478,-0.0504 0.348544,0 0.499886,0.30727 0.0046,0.009 0.01376,0.009 0.0092,-0.005 0.01376,-0.0229 0.09172,-0.15593 0.233892,-0.22472 0.142169,-0.0688 0.293511,-0.0688 z m 1.293281,-0.33479 q -0.128411,0 -0.210961,-0.0825 -0.08255,-0.0825 -0.08255,-0.21096 0,-0.12841 0.08255,-0.21096 0.08255,-0.0825 0.210961,-0.0825 0.132997,0 0.210961,0.0825 0.08255,0.078 0.08255,0.21096 0,0.12841 -0.08255,0.21096 -0.08255,0.0825 -0.210961,0.0825 z m -0.169686,2.70122 q -0.04586,0 -0.04586,-0.0459 v -2.24261 q 0,-0.0459 0.04586,-0.0459 h 0.348544 q 0.04586,0 0.04586,0.0459 v 2.24261 q 0,0.0459 -0.04586,0.0459 z m 1.829857,-2.36643 q 0.288925,0 0.440267,0.1972 0.155928,0.19262 0.155928,0.55034 v 1.57303 q 0,0.0459 -0.04586,0.0459 h -0.348545 q -0.04586,0 -0.04586,-0.0459 v -1.53635 q 0,-0.19261 -0.08255,-0.29809 -0.08255,-0.10548 -0.229305,-0.10548 -0.151342,0 -0.238478,0.10548 -0.08255,0.10089 -0.09172,0.28892 0,0.0275 -0.0046,0.0275 v 1.518 q 0,0.0459 -0.04586,0.0459 h -0.348544 q -0.04586,0 -0.04586,-0.0459 v -2.24261 q 0,-0.0459 0.04586,-0.0459 h 0.348544 q 0.04586,0 0.04586,0.0459 v 0.12383 q 0,0.009 0.0092,0.0138 0.0092,0 0.01834,-0.0138 0.1651,-0.20179 0.463197,-0.20179 z m 1.29328,-0.33479 q -0.128411,0 -0.210961,-0.0825 -0.08255,-0.0825 -0.08255,-0.21096 0,-0.12841 0.08255,-0.21096 0.08255,-0.0825 0.210961,-0.0825 0.132997,0 0.210961,0.0825 0.08255,0.078 0.08255,0.21096 0,0.12841 -0.08255,0.21096 -0.08255,0.0825 -0.210961,0.0825 z m -0.169686,2.70122 q -0.04586,0 -0.04586,-0.0459 v -2.24261 q 0,-0.0459 0.04586,-0.0459 h 0.348544 q 0.04586,0 0.04586,0.0459 v 2.24261 q 0,0.0459 -0.04586,0.0459 z m 2.861732,-2.36643 q 0.284339,0 0.43568,0.20637 0.155928,0.20179 0.155928,0.56868 v 1.54552 q 0,0.0459 -0.04586,0.0459 h -0.343958 q -0.04586,0 -0.04586,-0.0459 v -1.51341 q 0,-0.20179 -0.08255,-0.31186 -0.08255,-0.11465 -0.220134,-0.11465 -0.146755,0 -0.233891,0.11465 -0.08714,0.11007 -0.08714,0.30727 v 1.518 q 0,0.0459 -0.04586,0.0459 h -0.343958 q -0.04586,0 -0.04586,-0.0459 v -1.51341 q 0,-0.20179 -0.08255,-0.31186 -0.08255,-0.11465 -0.220133,-0.11465 -0.146756,0 -0.233892,0.11465 -0.08714,0.11007 -0.08714,0.30727 v 1.518 q 0,0.0459 -0.04586,0.0459 h -0.343958 q -0.04586,0 -0.04586,-0.0459 v -2.24261 q 0,-0.0459 0.04586,-0.0459 h 0.343958 q 0.04586,0 0.04586,0.0459 v 0.11466 q 0,0.009 0.0046,0.0138 0.0092,0.005 0.01835,-0.005 0.09172,-0.1009 0.210961,-0.15134 0.119239,-0.0504 0.238477,-0.0504 0.348545,0 0.499886,0.30727 0.0046,0.009 0.01376,0.009 0.0092,-0.005 0.01376,-0.0229 0.09172,-0.15593 0.233892,-0.22472 0.142169,-0.0688 0.293511,-0.0688 z m 1.80234,-0.005 q 0.334786,0 0.545747,0.21096 0.215547,0.21097 0.215547,0.55492 v 1.55928 q 0,0.0459 -0.04586,0.0459 h -0.348545 q -0.04586,0 -0.04586,-0.0459 v -0.10089 q 0,-0.009 -0.0092,-0.0138 -0.0046,-0.005 -0.01376,0.005 -0.160514,0.19262 -0.472369,0.19262 -0.261409,0 -0.463198,-0.14675 -0.197202,-0.15135 -0.197202,-0.53199 0,-0.39899 0.238477,-0.58244 0.243064,-0.18803 0.632884,-0.18803 h 0.265994 q 0.01834,0 0.01834,-0.0183 v -0.133 q 0,-0.19262 -0.09172,-0.30727 -0.09172,-0.11924 -0.238478,-0.11924 -0.114652,0 -0.192616,0.078 -0.07796,0.078 -0.09172,0.20179 0,0.0459 -0.04586,0.0459 h -0.371475 q -0.04586,0 -0.04586,-0.0459 0.02293,-0.29351 0.233891,-0.47695 0.210961,-0.18345 0.522817,-0.18345 z m -0.07796,2.02248 q 0.160514,0 0.279753,-0.1009 0.119238,-0.10089 0.119238,-0.28434 v -0.31185 q 0,-0.0183 -0.01834,-0.0183 H 86.41093 q -0.183444,0 -0.293511,0.1009 -0.110066,0.0963 -0.110066,0.28434 0,0.1651 0.08255,0.24765 0.08255,0.0825 0.220133,0.0825 z m 1.302451,0.34854 q -0.04586,0 -0.04586,-0.0459 V 137.974 q 0,-0.0459 0.04586,-0.0459 h 0.348545 q 0.04586,0 0.04586,0.0459 v 3.11855 q 0,0.0459 -0.04586,0.0459 z m 1.091494,-2.70122 q -0.128411,0 -0.210961,-0.0825 -0.08255,-0.0825 -0.08255,-0.21096 0,-0.12841 0.08255,-0.21096 0.08255,-0.0825 0.210961,-0.0825 0.132998,0 0.210961,0.0825 0.08255,0.078 0.08255,0.21096 0,0.12841 -0.08255,0.21096 -0.08255,0.0825 -0.210961,0.0825 z m -0.169686,2.70122 q -0.04586,0 -0.04586,-0.0459 v -2.24261 q 0,-0.0459 0.04586,-0.0459 h 0.348545 q 0.04586,0 0.04586,0.0459 v 2.24261 q 0,0.0459 -0.04586,0.0459 z m 1.563863,0.0275 q -0.343958,0 -0.545747,-0.1651 -0.197203,-0.16969 -0.197203,-0.45403 v -0.0413 q 0,-0.0459 0.04586,-0.0459 h 0.325614 q 0.04586,0 0.04586,0.0459 v 0.0321 q 0,0.12383 0.09631,0.21096 0.09631,0.0825 0.238477,0.0825 0.137584,0 0.220134,-0.0825 0.08714,-0.0825 0.08714,-0.21096 0,-0.10089 -0.05962,-0.16968 -0.05962,-0.0688 -0.142169,-0.10548 -0.07796,-0.0413 -0.243064,-0.11007 -0.178858,-0.078 -0.298097,-0.15134 -0.114653,-0.0734 -0.206375,-0.21096 -0.09172,-0.13759 -0.09172,-0.34855 0,-0.31185 0.192616,-0.48613 0.197203,-0.17427 0.527403,-0.17427 0.339372,0 0.531989,0.17886 0.197203,0.17886 0.197203,0.48613 v 0.0138 q 0,0.0459 -0.04586,0.0459 h -0.316442 q -0.04586,0 -0.04586,-0.0459 v -0.0321 q 0,-0.12382 -0.08714,-0.21096 -0.08714,-0.0871 -0.22472,-0.0871 -0.142169,0 -0.224719,0.0871 -0.08255,0.0871 -0.08255,0.21096 0,0.0963 0.05503,0.16052 0.05503,0.0642 0.132997,0.10548 0.07796,0.0367 0.24765,0.11006 0.188031,0.0825 0.311856,0.16052 0.123825,0.0734 0.215547,0.21096 0.09631,0.13758 0.09631,0.34396 0,0.29809 -0.206375,0.47237 -0.201788,0.17427 -0.550333,0.17427 z m 2.022471,-2.08668 q 0,0.0459 -0.04586,0.0459 h -0.321027 q -0.01835,0 -0.01835,0.0183 v 1.2887 q 0,0.18345 0.06421,0.25682 0.06421,0.0688 0.201789,0.0642 h 0.04127 q 0.04586,0 0.04586,0.0459 v 0.29351 q 0,0.0459 -0.04586,0.0459 h -0.14217 q -0.293511,0 -0.444853,-0.11465 -0.146755,-0.11465 -0.146755,-0.43568 v -1.44463 q 0,-0.0183 -0.01834,-0.0183 h -0.178859 q -0.04586,0 -0.04586,-0.0459 v -0.22931 q 0,-0.0459 0.04586,-0.0459 h 0.178859 q 0.01834,0 0.01834,-0.0183 v -0.51823 q 0,-0.0459 0.04586,-0.0459 h 0.334786 q 0.04586,0 0.04586,0.0459 v 0.51823 q 0,0.0183 0.01835,0.0183 h 0.321027 q 0.04586,0 0.04586,0.0459 z m 0.591606,-0.64206 q -0.128411,0 -0.210961,-0.0825 -0.08255,-0.0825 -0.08255,-0.21096 0,-0.12841 0.08255,-0.21096 0.08255,-0.0825 0.210961,-0.0825 0.132998,0 0.210961,0.0825 0.08255,0.078 0.08255,0.21096 0,0.12841 -0.08255,0.21096 -0.08255,0.0825 -0.210961,0.0825 z m -0.169686,2.70122 q -0.04586,0 -0.04586,-0.0459 v -2.24261 q 0,-0.0459 0.04586,-0.0459 h 0.348545 q 0.04586,0 0.04586,0.0459 v 2.24261 q 0,0.0459 -0.04586,0.0459 z m 1.62807,0.0367 q -0.353131,0 -0.564092,-0.1972 -0.206375,-0.1972 -0.206375,-0.53199 v -0.94932 q 0,-0.32562 0.206375,-0.52741 0.210961,-0.20179 0.564092,-0.20179 0.233891,0 0.408164,0.0917 0.178858,0.0871 0.27058,0.24306 0.09631,0.15134 0.09631,0.34396 v 0.0596 q 0,0.0459 -0.04586,0.0459 l -0.348544,0.0138 q -0.04586,0 -0.04586,-0.0459 v -0.0459 q 0,-0.13299 -0.09631,-0.2293 -0.09631,-0.0963 -0.238477,-0.0963 -0.146756,0 -0.238478,0.10548 -0.09172,0.10548 -0.09172,0.27058 v 0.89429 q 0,0.1651 0.09172,0.27058 0.09172,0.10548 0.238478,0.10548 0.142169,0 0.238477,-0.0963 0.09631,-0.0963 0.09631,-0.22931 v -0.0459 q 0,-0.0459 0.04586,-0.0459 l 0.348544,0.005 q 0.04586,0 0.04586,0.0459 v 0.0688 q 0,0.29809 -0.210961,0.49071 -0.210961,0.18803 -0.564091,0.18803 z m 1.10525,0.35772 q -0.02293,0 -0.03669,-0.0183 -0.01376,-0.0137 -0.0092,-0.0321 l 0.132997,-1.01812 q 0.0046,-0.0413 0.04586,-0.0413 h 0.302684 q 0.05045,0 0.04127,0.0505 l -0.220134,1.01811 q -0.0046,0.0413 -0.05045,0.0413 z m 3.778955,-2.76084 q 0.284339,0 0.43568,0.20637 0.155928,0.20179 0.155928,0.56868 v 1.54552 q 0,0.0459 -0.04586,0.0459 h -0.343958 q -0.04586,0 -0.04586,-0.0459 v -1.51341 q 0,-0.20179 -0.08255,-0.31186 -0.08255,-0.11465 -0.220133,-0.11465 -0.146755,0 -0.233891,0.11465 -0.08714,0.11007 -0.08714,0.30727 v 1.518 q 0,0.0459 -0.04586,0.0459 h -0.343958 q -0.04586,0 -0.04586,-0.0459 v -1.51341 q 0,-0.20179 -0.08255,-0.31186 -0.08255,-0.11465 -0.220133,-0.11465 -0.146756,0 -0.233892,0.11465 -0.08714,0.11007 -0.08714,0.30727 v 1.518 q 0,0.0459 -0.04586,0.0459 H 97.13783 q -0.04586,0 -0.04586,-0.0459 v -2.24261 q 0,-0.0459 0.04586,-0.0459 h 0.343958 q 0.04586,0 0.04586,0.0459 v 0.11466 q 0,0.009 0.0046,0.0138 0.0092,0.005 0.01834,-0.005 0.09172,-0.1009 0.210961,-0.15134 0.119238,-0.0504 0.238477,-0.0504 0.348545,0 0.499886,0.30727 0.0046,0.009 0.01376,0.009 0.0092,-0.005 0.01376,-0.0229 0.09172,-0.15593 0.233892,-0.22472 0.142169,-0.0688 0.293511,-0.0688 z m 1.783996,2.40312 q -0.35772,0 -0.56868,-0.1972 -0.20638,-0.20179 -0.20638,-0.53199 v -0.94932 q 0,-0.32562 0.21097,-0.52741 0.21096,-0.20179 0.56409,-0.20179 0.35771,0 0.56867,0.20179 0.21097,0.20179 0.21097,0.52741 v 0.94932 q 0,0.3302 -0.21097,0.53199 -0.21096,0.1972 -0.56867,0.1972 z m 0,-0.38523 q 0.14675,0 0.24306,-0.1009 0.0963,-0.10548 0.0963,-0.27516 v -0.88971 q 0,-0.1651 -0.0963,-0.27058 -0.0963,-0.10548 -0.24306,-0.10548 -0.14676,0 -0.24307,0.10548 -0.0917,0.10548 -0.0917,0.27058 v 0.88971 q 0,0.16968 0.0917,0.27516 0.0963,0.1009 0.24307,0.1009 z m 2.26554,-2.81587 q 0,-0.0459 0.0459,-0.0459 h 0.34854 q 0.0459,0 0.0459,0.0459 v 3.11855 q 0,0.0459 -0.0459,0.0459 h -0.34854 q -0.0459,0 -0.0459,-0.0459 v -0.0734 q 0,-0.009 -0.009,-0.0138 -0.005,-0.005 -0.0138,0.005 -0.0871,0.0825 -0.19721,0.12383 -0.11006,0.0413 -0.22013,0.0413 -0.30268,0 -0.48154,-0.1972 -0.17427,-0.20179 -0.17427,-0.5274 v -0.95391 q 0,-0.33938 0.17427,-0.53199 0.17886,-0.19721 0.48154,-0.19721 0.11007,0 0.22013,0.0413 0.11007,0.0413 0.19721,0.12382 0.009,0.009 0.0138,0.005 0.009,-0.005 0.009,-0.0138 z m -0.32562,2.82045 q 0.12841,0 0.21555,-0.0825 0.0917,-0.0871 0.11007,-0.22472 v -1.03187 q -0.0183,-0.13758 -0.11007,-0.22013 -0.0871,-0.0871 -0.21555,-0.0871 -0.14675,0 -0.24306,0.10548 -0.0917,0.10548 -0.0917,0.27058 v 0.89429 q 0,0.1651 0.0917,0.27058 0.0963,0.10548 0.24306,0.10548 z m 2.74708,-0.68791 q 0,0.0459 -0.0459,0.0459 h -1.03646 q -0.0183,0 -0.0183,0.0183 v 0.24765 q 0,0.1651 0.0917,0.27058 0.0917,0.10548 0.23847,0.10548 0.12842,0 0.21555,-0.078 0.0871,-0.078 0.11007,-0.20179 0.0138,-0.0367 0.0505,-0.0367 l 0.33937,0.0183 q 0.0229,0 0.0321,0.0138 0.0138,0.0137 0.009,0.0321 -0.0321,0.2981 -0.2293,0.46778 -0.19262,0.1651 -0.52741,0.1651 -0.35313,0 -0.56409,-0.1972 -0.20637,-0.1972 -0.20637,-0.5274 v -0.95391 q 0,-0.32562 0.20637,-0.52741 0.21096,-0.20179 0.56409,-0.20179 0.35772,0 0.5641,0.20179 0.20637,0.20179 0.20637,0.52741 z m -0.77047,-0.9585 q -0.14675,0 -0.23847,0.10548 -0.0917,0.10548 -0.0917,0.27058 v 0.24307 q 0,0.0183 0.0183,0.0183 h 0.6283 q 0.0183,0 0.0183,-0.0183 v -0.24307 q 0,-0.1651 -0.0917,-0.27058 -0.0917,-0.10548 -0.24307,-0.10548 z m 2.06834,-0.36689 q 0.11465,0 0.1972,0.0505 0.0321,0.0183 0.0229,0.0596 l -0.0688,0.34854 q -0.005,0.0413 -0.055,0.0275 -0.0596,-0.0229 -0.12841,-0.0229 -0.0275,0 -0.0825,0.009 -0.14217,0.0138 -0.23848,0.15593 -0.0917,0.14217 -0.0917,0.34396 v 1.33914 q 0,0.0459 -0.0459,0.0459 h -0.34855 q -0.0459,0 -0.0459,-0.0459 v -2.24261 q 0,-0.0459 0.0459,-0.0459 h 0.34855 q 0.0459,0 0.0459,0.0459 v 0.266 q 0,0.0138 0.005,0.0183 0.009,0 0.0138,-0.0138 0.133,-0.33937 0.42651,-0.33937 z m 1.44004,-0.009 q 0.28893,0 0.44027,0.1972 0.15593,0.19262 0.15593,0.55034 v 1.57303 q 0,0.0459 -0.0459,0.0459 h -0.34854 q -0.0459,0 -0.0459,-0.0459 v -1.53635 q 0,-0.19261 -0.0825,-0.29809 -0.0825,-0.10548 -0.22931,-0.10548 -0.15134,0 -0.23847,0.10548 -0.0826,0.10089 -0.0917,0.28892 0,0.0275 -0.005,0.0275 v 1.518 q 0,0.0459 -0.0459,0.0459 h -0.34855 q -0.0459,0 -0.0459,-0.0459 v -2.24261 q 0,-0.0459 0.0459,-0.0459 h 0.34855 q 0.0459,0 0.0459,0.0459 v 0.12383 q 0,0.009 0.009,0.0138 0.009,0 0.0183,-0.0138 0.1651,-0.20179 0.4632,-0.20179 z m 0.96767,2.76084 q -0.0229,0 -0.0367,-0.0183 -0.0138,-0.0137 -0.009,-0.0321 l 0.133,-1.01812 q 0.005,-0.0413 0.0459,-0.0413 h 0.30268 q 0.0504,0 0.0413,0.0505 l -0.22013,1.01811 q -0.005,0.0413 -0.0504,0.0413 z m 1.86196,-0.39441 q -0.0459,0 -0.0459,-0.0459 V 137.974 q 0,-0.0459 0.0459,-0.0459 h 0.34854 q 0.0459,0 0.0459,0.0459 v 1.73813 q 0,0.0138 0.009,0.0183 0.009,0.005 0.0138,-0.009 l 0.5916,-0.8897 q 0.0229,-0.0275 0.055,-0.0275 h 0.35771 q 0.0275,0 0.0367,0.0183 0.009,0.0138 -0.005,0.0367 l -0.47237,0.69708 q -0.0138,0.0138 -0.005,0.0275 l 0.55033,1.50425 0.005,0.0183 q 0,0.0321 -0.0413,0.0321 h -0.36231 q -0.0413,0 -0.055,-0.0367 l -0.36689,-1.15111 q -0.005,-0.0275 -0.0275,-0.005 l -0.27516,0.399 q -0.009,0.009 -0.009,0.0229 v 0.7246 q 0,0.0459 -0.0459,0.0459 z m 3.32034,-1.03187 q 0,0.0459 -0.0459,0.0459 h -1.03646 q -0.0183,0 -0.0183,0.0183 v 0.24765 q 0,0.1651 0.0917,0.27058 0.0917,0.10548 0.23847,0.10548 0.12841,0 0.21555,-0.078 0.0871,-0.078 0.11007,-0.20179 0.0138,-0.0367 0.0504,-0.0367 l 0.33938,0.0183 q 0.0229,0 0.0321,0.0138 0.0138,0.0137 0.009,0.0321 -0.0321,0.2981 -0.2293,0.46778 -0.19262,0.1651 -0.52741,0.1651 -0.35313,0 -0.56409,-0.1972 -0.20637,-0.1972 -0.20637,-0.5274 v -0.95391 q 0,-0.32562 0.20637,-0.52741 0.21096,-0.20179 0.56409,-0.20179 0.35772,0 0.56409,0.20179 0.20638,0.20179 0.20638,0.52741 z m -0.77047,-0.9585 q -0.14675,0 -0.23847,0.10548 -0.0917,0.10548 -0.0917,0.27058 v 0.24307 q 0,0.0183 0.0183,0.0183 h 0.62829 q 0.0183,0 0.0183,-0.0183 v -0.24307 q 0,-0.1651 -0.0917,-0.27058 -0.0917,-0.10548 -0.24307,-0.10548 z m 1.09608,2.90301 q -0.009,0 -0.0183,-0.0138 -0.009,-0.0138 -0.009,-0.0321 v -0.27058 q 0,-0.0459 0.0459,-0.0459 0.14676,-0.005 0.22931,-0.0459 0.0871,-0.0413 0.13758,-0.15592 0.055,-0.11466 0.0917,-0.33479 l -0.005,-0.0229 -0.58702,-2.27471 -0.005,-0.0138 q 0,-0.0367 0.0459,-0.0367 h 0.37606 q 0.0459,0 0.0504,0.0413 l 0.33479,1.65558 q 0.005,0.0138 0.009,0.0138 0.005,0 0.009,-0.0138 l 0.3302,-1.65558 q 0.009,-0.0413 0.0505,-0.0413 l 0.38064,0.005 q 0.0229,0 0.0321,0.0138 0.0138,0.0138 0.005,0.0367 l -0.62829,2.43981 q -0.0871,0.31644 -0.17428,0.46778 -0.0871,0.15593 -0.24306,0.22013 -0.15134,0.0642 -0.43568,0.0642 z m 2.7058,-3.28366 q 0.30268,0 0.47696,0.19721 0.17427,0.19261 0.17427,0.53199 v 0.95391 q 0,0.32561 -0.17886,0.5274 -0.17427,0.1972 -0.47237,0.1972 -0.11007,0 -0.22472,-0.0413 -0.11006,-0.0413 -0.1972,-0.12383 -0.009,-0.009 -0.0183,-0.005 -0.005,0.005 -0.005,0.0138 v 0.0734 q 0,0.0459 -0.0459,0.0459 h -0.34855 q -0.0459,0 -0.0459,-0.0459 V 137.974 q 0,-0.0459 0.0459,-0.0459 h 0.34855 q 0.0459,0 0.0459,0.0459 v 0.95391 q 0,0.009 0.009,0.0138 0.009,0 0.0184,-0.0138 0.17427,-0.16052 0.41733,-0.16052 z m 0.21555,0.75671 q 0,-0.1651 -0.0963,-0.27058 -0.0917,-0.10548 -0.23848,-0.10548 -0.14217,0 -0.23389,0.10548 -0.0917,0.10548 -0.0917,0.27058 v 0.89429 q 0,0.1651 0.0917,0.27058 0.0917,0.10548 0.23389,0.10548 0.14676,0 0.23848,-0.10548 0.0963,-0.10548 0.0963,-0.27058 z m 1.60972,1.651 q -0.35772,0 -0.56868,-0.1972 -0.20637,-0.20179 -0.20637,-0.53199 v -0.94932 q 0,-0.32562 0.21096,-0.52741 0.21096,-0.20179 0.56409,-0.20179 0.35772,0 0.56868,0.20179 0.21096,0.20179 0.21096,0.52741 v 0.94932 q 0,0.3302 -0.21096,0.53199 -0.21096,0.1972 -0.56868,0.1972 z m 0,-0.38523 q 0.14676,0 0.24307,-0.1009 0.0963,-0.10548 0.0963,-0.27516 v -0.88971 q 0,-0.1651 -0.0963,-0.27058 -0.0963,-0.10548 -0.24307,-0.10548 -0.14675,0 -0.24306,0.10548 -0.0917,0.10548 -0.0917,0.27058 v 0.88971 q 0,0.16968 0.0917,0.27516 0.0963,0.1009 0.24306,0.1009 z m 1.96286,-2.02248 q 0.33478,0 0.54574,0.21096 0.21555,0.21097 0.21555,0.55492 v 1.55928 q 0,0.0459 -0.0459,0.0459 h -0.34854 q -0.0459,0 -0.0459,-0.0459 v -0.10089 q 0,-0.009 -0.009,-0.0138 -0.005,-0.005 -0.0138,0.005 -0.16051,0.19262 -0.47236,0.19262 -0.26141,0 -0.4632,-0.14675 -0.1972,-0.15135 -0.1972,-0.53199 0,-0.39899 0.23847,-0.58244 0.24307,-0.18803 0.63289,-0.18803 h 0.26599 q 0.0183,0 0.0183,-0.0183 v -0.133 q 0,-0.19262 -0.0917,-0.30727 -0.0917,-0.11924 -0.23847,-0.11924 -0.11466,0 -0.19262,0.078 -0.078,0.078 -0.0917,0.20179 0,0.0459 -0.0459,0.0459 h -0.37148 q -0.0459,0 -0.0459,-0.0459 0.0229,-0.29351 0.23389,-0.47695 0.21096,-0.18345 0.52282,-0.18345 z m -0.078,2.02248 q 0.16052,0 0.27976,-0.1009 0.11924,-0.10089 0.11924,-0.28434 v -0.31185 q 0,-0.0183 -0.0183,-0.0183 h -0.27975 q -0.18345,0 -0.29351,0.1009 -0.11007,0.0963 -0.11007,0.28434 0,0.1651 0.0825,0.24765 0.0825,0.0825 0.22013,0.0825 z m 2.16006,-2.00872 q 0.11465,0 0.1972,0.0505 0.0321,0.0183 0.0229,0.0596 l -0.0688,0.34854 q -0.005,0.0413 -0.055,0.0275 -0.0596,-0.0229 -0.12842,-0.0229 -0.0275,0 -0.0825,0.009 -0.14216,0.0138 -0.23847,0.15593 -0.0917,0.14217 -0.0917,0.34396 v 1.33914 q 0,0.0459 -0.0459,0.0459 h -0.34854 q -0.0459,0 -0.0459,-0.0459 v -2.24261 q 0,-0.0459 0.0459,-0.0459 h 0.34854 q 0.0459,0 0.0459,0.0459 v 0.266 q 0,0.0138 0.005,0.0183 0.009,0 0.0138,-0.0138 0.133,-0.33937 0.42651,-0.33937 z m 1.54094,-0.80715 q 0,-0.0459 0.0459,-0.0459 h 0.34854 q 0.0459,0 0.0459,0.0459 v 3.11855 q 0,0.0459 -0.0459,0.0459 h -0.34854 q -0.0459,0 -0.0459,-0.0459 v -0.0734 q 0,-0.009 -0.009,-0.0138 -0.005,-0.005 -0.0138,0.005 -0.0871,0.0825 -0.19721,0.12383 -0.11006,0.0413 -0.22013,0.0413 -0.30268,0 -0.48154,-0.1972 -0.17427,-0.20179 -0.17427,-0.5274 v -0.95391 q 0,-0.33938 0.17427,-0.53199 0.17886,-0.19721 0.48154,-0.19721 0.11007,0 0.22013,0.0413 0.11007,0.0413 0.19721,0.12382 0.009,0.009 0.0138,0.005 0.009,-0.005 0.009,-0.0138 z m -0.32562,2.82045 q 0.12841,0 0.21555,-0.0825 0.0917,-0.0871 0.11007,-0.22472 v -1.03187 q -0.0183,-0.13758 -0.11007,-0.22013 -0.0871,-0.0871 -0.21555,-0.0871 -0.14675,0 -0.24306,0.10548 -0.0917,0.10548 -0.0917,0.27058 v 0.89429 q 0,0.1651 0.0917,0.27058 0.0963,0.10548 0.24306,0.10548 z m 2.89384,0.38065 q -0.35313,0 -0.56409,-0.1972 -0.20638,-0.1972 -0.20638,-0.53199 v -0.94932 q 0,-0.32562 0.20638,-0.52741 0.21096,-0.20179 0.56409,-0.20179 0.23389,0 0.40816,0.0917 0.17886,0.0871 0.27058,0.24306 0.0963,0.15134 0.0963,0.34396 v 0.0596 q 0,0.0459 -0.0459,0.0459 l -0.34854,0.0138 q -0.0459,0 -0.0459,-0.0459 v -0.0459 q 0,-0.13299 -0.0963,-0.2293 -0.0963,-0.0963 -0.23848,-0.0963 -0.14675,0 -0.23848,0.10548 -0.0917,0.10548 -0.0917,0.27058 v 0.89429 q 0,0.1651 0.0917,0.27058 0.0917,0.10548 0.23848,0.10548 0.14217,0 0.23848,-0.0963 0.0963,-0.0963 0.0963,-0.22931 v -0.0459 q 0,-0.0459 0.0459,-0.0459 l 0.34854,0.005 q 0.0459,0 0.0459,0.0459 v 0.0688 q 0,0.29809 -0.21096,0.49071 -0.21096,0.18803 -0.56409,0.18803 z m 2.66453,-1.06856 q 0,0.0459 -0.0459,0.0459 h -1.03646 q -0.0183,0 -0.0183,0.0183 v 0.24765 q 0,0.1651 0.0917,0.27058 0.0917,0.10548 0.23848,0.10548 0.12841,0 0.21554,-0.078 0.0871,-0.078 0.11007,-0.20179 0.0138,-0.0367 0.0504,-0.0367 l 0.33937,0.0183 q 0.0229,0 0.0321,0.0138 0.0138,0.0137 0.009,0.0321 -0.0321,0.2981 -0.2293,0.46778 -0.19262,0.1651 -0.5274,0.1651 -0.35313,0 -0.5641,-0.1972 -0.20637,-0.1972 -0.20637,-0.5274 v -0.95391 q 0,-0.32562 0.20637,-0.52741 0.21097,-0.20179 0.5641,-0.20179 0.35771,0 0.56409,0.20179 0.20637,0.20179 0.20637,0.52741 z m -0.77046,-0.9585 q -0.14676,0 -0.23848,0.10548 -0.0917,0.10548 -0.0917,0.27058 v 0.24307 q 0,0.0183 0.0183,0.0183 h 0.6283 q 0.0183,0 0.0183,-0.0183 v -0.24307 q 0,-0.1651 -0.0917,-0.27058 -0.0917,-0.10548 -0.24306,-0.10548 z m 2.11419,-0.37606 q 0.28893,0 0.44027,0.1972 0.15593,0.19262 0.15593,0.55034 v 1.57303 q 0,0.0459 -0.0459,0.0459 h -0.34855 q -0.0459,0 -0.0459,-0.0459 v -1.53635 q 0,-0.19261 -0.0825,-0.29809 -0.0826,-0.10548 -0.22931,-0.10548 -0.15134,0 -0.23847,0.10548 -0.0825,0.10089 -0.0917,0.28892 0,0.0275 -0.005,0.0275 v 1.518 q 0,0.0459 -0.0459,0.0459 h -0.34855 q -0.0459,0 -0.0459,-0.0459 v -2.24261 q 0,-0.0459 0.0459,-0.0459 h 0.34855 q 0.0459,0 0.0459,0.0459 v 0.12383 q 0,0.009 0.009,0.0138 0.009,0 0.0183,-0.0138 0.1651,-0.20179 0.46319,-0.20179 z m 1.96285,0.30727 q 0,0.0459 -0.0459,0.0459 h -0.32103 q -0.0183,0 -0.0183,0.0183 v 1.2887 q 0,0.18345 0.0642,0.25682 0.0642,0.0688 0.20179,0.0642 h 0.0413 q 0.0459,0 0.0459,0.0459 v 0.29351 q 0,0.0459 -0.0459,0.0459 h -0.14217 q -0.29351,0 -0.44485,-0.11465 -0.14676,-0.11465 -0.14676,-0.43568 v -1.44463 q 0,-0.0183 -0.0183,-0.0183 h -0.17886 q -0.0459,0 -0.0459,-0.0459 v -0.22931 q 0,-0.0459 0.0459,-0.0459 h 0.17886 q 0.0183,0 0.0183,-0.0183 v -0.51823 q 0,-0.0459 0.0459,-0.0459 h 0.33479 q 0.0459,0 0.0459,0.0459 v 0.51823 q 0,0.0183 0.0183,0.0183 h 0.32103 q 0.0459,0 0.0459,0.0459 z m 1.23367,-0.2981 q 0.11465,0 0.1972,0.0505 0.0321,0.0183 0.0229,0.0596 l -0.0688,0.34854 q -0.005,0.0413 -0.055,0.0275 -0.0596,-0.0229 -0.12841,-0.0229 -0.0275,0 -0.0825,0.009 -0.14217,0.0138 -0.23847,0.15593 -0.0917,0.14217 -0.0917,0.34396 v 1.33914 q 0,0.0459 -0.0459,0.0459 h -0.34854 q -0.0459,0 -0.0459,-0.0459 v -2.24261 q 0,-0.0459 0.0459,-0.0459 h 0.34854 q 0.0459,0 0.0459,0.0459 v 0.266 q 0,0.0138 0.005,0.0183 0.009,0 0.0138,-0.0138 0.13299,-0.33937 0.42651,-0.33937 z m 0.75212,-0.34396 q -0.12841,0 -0.21096,-0.0825 -0.0825,-0.0825 -0.0825,-0.21096 0,-0.12841 0.0825,-0.21096 0.0825,-0.0825 0.21096,-0.0825 0.133,0 0.21096,0.0825 0.0825,0.078 0.0825,0.21096 0,0.12841 -0.0825,0.21096 -0.0825,0.0825 -0.21096,0.0825 z m -0.16969,2.70122 q -0.0459,0 -0.0459,-0.0459 v -2.24261 q 0,-0.0459 0.0459,-0.0459 h 0.34855 q 0.0459,0 0.0459,0.0459 v 2.24261 q 0,0.0459 -0.0459,0.0459 z m 1.62807,0.0367 q -0.35313,0 -0.56409,-0.1972 -0.20637,-0.1972 -0.20637,-0.53199 v -0.94932 q 0,-0.32562 0.20637,-0.52741 0.21096,-0.20179 0.56409,-0.20179 0.2339,0 0.40817,0.0917 0.17886,0.0871 0.27058,0.24306 0.0963,0.15134 0.0963,0.34396 v 0.0596 q 0,0.0459 -0.0459,0.0459 l -0.34855,0.0138 q -0.0459,0 -0.0459,-0.0459 v -0.0459 q 0,-0.13299 -0.0963,-0.2293 -0.0963,-0.0963 -0.23848,-0.0963 -0.14675,0 -0.23847,0.10548 -0.0917,0.10548 -0.0917,0.27058 v 0.89429 q 0,0.1651 0.0917,0.27058 0.0917,0.10548 0.23847,0.10548 0.14217,0 0.23848,-0.0963 0.0963,-0.0963 0.0963,-0.22931 v -0.0459 q 0,-0.0459 0.0459,-0.0459 l 0.34855,0.005 q 0.0459,0 0.0459,0.0459 v 0.0688 q 0,0.29809 -0.21096,0.49071 -0.21097,0.18803 -0.5641,0.18803 z"
       id="text5"
       aria-label="minimalistic, modern, keyboard centric "
       inkscape:label="selling_points" />
  </g>
</svg>
