<svg xmlns="http://www.w3.org/2000/svg" xmlns:xlink="http://www.w3.org/1999/xlink" xml:space="preserve" width="601.967" height="501.236"><defs><radialGradient xlink:href="#a" id="c" cx="84.269" cy="151.856" r="84.818" fx="84.269" fy="151.856" gradientTransform="matrix(1.19034 1.15186 -.91454 .94508 73.917 -161.345)" gradientUnits="userSpaceOnUse"/><radialGradient xlink:href="#b" id="d" cx="80.667" cy="184.464" r="84.818" fx="80.667" fy="184.464" gradientTransform="matrix(.6528 -1.61668 1.55692 .62866 -234.484 181.66)" gradientUnits="userSpaceOnUse"/><linearGradient id="b"><stop offset="0" style="stop-color:#ffbc00;stop-opacity:1"/><stop offset="1" style="stop-color:#ff4500;stop-opacity:.56862748"/></linearGradient><linearGradient id="a"><stop offset="0" style="stop-color:#ffbc00;stop-opacity:1"/><stop offset="1" style="stop-color:#ff4500;stop-opacity:1"/></linearGradient><filter id="e" width="1.151" height="1.509" x="-.076" y="-.255" style="color-interpolation-filters:sRGB"><feFlood flood-color="#000" flood-opacity=".498" result="flood"/><feComposite in="flood" in2="SourceGraphic" operator="in" result="composite1"/><feGaussianBlur in="composite1" result="blur" stdDeviation="3.888"/><feOffset result="offset"/><feComposite in="SourceGraphic" in2="offset" result="composite2"/></filter></defs><g><path d="M1.908 80.983 79.809 3.83l182.77 2.996s76.284 116.085 80.257 193.68c3.972 77.596 23.112 232.532 23.112 232.532l86.89 19.475 36.704-49.437s77.22-24.595 97.07 22.22c19.85 46.816 13.483 48.314 13.483 48.314l1.872 26.405-601.865-.562z" style="fill:#fff;fill-opacity:1;stroke:none;stroke-width:2.80063"/><path d="m39.857 499.338 7.548-41.181 52.436-123.94s193.856 64.088 234.64-7.946C375.265 254.237 387.447 500 387.447 500Z" style="fill:#fff;fill-opacity:1;stroke:none;stroke-width:2.80063"/><path d="M23.04 287.076s77.052 56.552 129.299 63.294c52.246 6.741 162.776 22.48 175.365-18.176 12.571-40.6 14.894-77.141 12.835-78.265-2.06-1.123-38.577-17.79-56.929-22.846-18.351-5.056-53.557-14.606-66.665-11.797-13.109 2.808-65.917 18.351-65.917 18.351L30.056 266.476s-15.342 11.988-7.016 20.6z" style="fill:#ffd801;fill-opacity:1;stroke:none;stroke-width:2.80063"/><path d="M0 287.5C0 158.858.363 75 .92 75c.506 0 3.16-3.08 5.898-6.844C22.868 46.089 47.463 21.474 68.37 6.555 72.017 3.953 75 1.414 75 .912 75 .37 113.618 0 170.479 0h95.479l6.841 6.75c22.45 22.15 38.905 56.883 53.119 112.13 4.612 17.925 4.82 19.233 2.784 17.445-4.054-3.56-14.03-7.572-21.398-8.606-11.832-1.66-31.71.267-42.79 4.149-9.768 3.423-15.369 7.483-12.068 8.75 1 .383 2.579.223 3.507-.357 2.957-1.846 14.359-6.02 19.908-7.289 2.949-.674 11.724-1.28 19.5-1.348l14.139-.124 8.675 4.224C328.598 140.798 333.318 146 327.5 146c-1.375 0-2.5-.395-2.5-.877 0-1.357-8.815-4.809-15.732-6.16-3.992-.779-11.359-1.04-20.5-.724-13.042.45-14.97.766-22.445 3.686-4.498 1.757-8.715 3.843-9.373 4.635-.657.792-1.735 1.44-2.394 1.44-.66 0-2.967 1.337-5.128 2.972-2.16 1.635-4.427 2.985-5.037 3-1.443.036-10.391 7.91-10.391 9.144 0 2.533 3.331 1.817 7.01-1.506 2.198-1.986 4.436-3.61 4.974-3.61.537 0 4.249-2.19 8.247-4.866 3.998-2.677 8.394-5.205 9.769-5.62 1.375-.413 4.525-1.663 7-2.776 3.556-1.598 7.354-2.126 18.097-2.515 18.004-.651 26.35 1.065 33.449 6.88 5.92 4.849 7.652 8.445 7.252 15.055l-.298 4.934-4.458-6.135c-5.453-7.504-10.165-10.08-22.542-12.327-17.185-3.12-31.637-1.01-42.195 6.162-3.407 2.314-6.6 4.208-7.095 4.208-.495 0-1.639.816-2.541 1.814-1.266 1.399-1.37 2.085-.455 3 1.784 1.784 2.26 1.603 10.581-4.022 6.12-4.137 9.351-5.573 15.705-6.977 9.871-2.18 13.867-2.228 24.945-.297 10.747 1.874 15.187 4.079 19.055 9.46 1.65 2.296 3.957 5.378 5.127 6.848 5.31 6.673 7.71 13.23 5.373 14.674-1.228.759-1.326 5.18-.132 5.919.478.295 1.172 2.825 1.543 5.622.737 5.552 1.42 4.24-8.577 16.459-5.362 6.553-14.338 11.5-20.868 11.5-3.2 0-5.513.627-7.105 1.926-1.897 1.547-2.066 2.036-.861 2.487 1.609.602 14.03-.75 17.75-1.931 5.746-1.826.009 4.855-6.719 7.824l-5.105 2.253-14.943-1.592c-8.218-.876-15.251-1.902-15.63-2.28-.377-.378.289-.687 1.48-.687 2.502 0 2.931-2.493.585-3.393-.87-.334-3.697-.607-6.282-.607s-7.16-.711-10.168-1.58c-3.007-.87-8.393-1.925-11.968-2.345-3.575-.42-8.613-1.733-11.195-2.92-6.984-3.206-21.592-2.456-25.79 1.325-.833.75-2.793 1.683-4.355 2.073-2.692.672-2.772.599-1.525-1.397 2.412-3.863-.226-4.526-5.712-1.435-4.901 2.762-5.008 2.774-23.923 2.776-18.355.002-37.077-1.408-48.5-3.655-3.025-.595-7.75-1.408-10.5-1.808-7.961-1.156-22.48-8.538-39.695-20.182C66.75 195.757 65 195.19 65 197.326c0 5.016 33.92 24.38 46.654 26.634a886.44 886.44 0 0 1 10.846 1.998c8.404 1.619 26.196 3.21 42.5 3.803l15.5.562-7 1.778c-3.85.977-9.925 2.51-13.5 3.404-3.575.894-7.4 2.203-8.5 2.907-1.1.705-4.415 1.598-7.367 1.985s-7.227 1.555-9.5 2.597c-2.273 1.042-6.796 2.368-10.051 2.947-3.255.58-6.665 1.73-7.579 2.556-.913.827-2.419 1.503-3.345 1.503-.927 0-2.467.404-3.422.897-5.263 2.72-10.939 4.035-21.447 4.97-6.44.572-12.965 1.673-14.5 2.446-1.534.773-4.392 1.651-6.351 1.953-1.96.3-5.56 1.444-8 2.54C53.394 265.745 47.03 267 38.68 267c-7.77 0-10.877 1.403-8.462 3.818.895.895.664 1.644-.977 3.173-5.55 5.17-2.852 15.622 5.194 20.123 2.236 1.25 6.09 3.707 8.565 5.46 2.475 1.753 6.3 4.151 8.5 5.33 2.2 1.178 6.925 4.008 10.5 6.287 14.11 8.995 46.458 24.531 59 28.337 2.475.75 8.325 2.545 13 3.986 14.559 4.488 31.825 7.916 45 8.935 4.675.361 13.45 1.274 19.5 2.03 28.76 3.588 83.51 2.349 100.5-2.275 7.201-1.96 15.263-7.613 22.594-15.845 8.217-9.225 9.957-14.172 6.986-19.859-.862-1.65-1.57-3.855-1.574-4.9-.005-1.408-.753-.89-2.891 2-3.995 5.4-12.776 13.657-17.868 16.802-6.776 4.186-15.467 5.426-43.42 6.196-27.01.744-33.534.373-72.327-4.11-11.55-1.335-25.5-2.921-31-3.525-6.088-.669-14.108-2.451-20.5-4.556-16.08-5.296-16.027-5.282-24.555-6.77-4.404-.77-10.919-2.5-14.476-3.844-8.472-3.203-11.525-4.311-23.389-8.489-5.455-1.921-11.746-4.646-13.98-6.056-2.233-1.41-6.977-4.084-10.541-5.942-7.292-3.8-10.059-5.99-10.059-7.961 0-1.732 2.019-1.719 4.527.03 1.085.755 6.637 3.953 12.338 7.105 9.172 5.073 16.825 8.286 34.635 14.544 2.75.967 7.25 2.647 10 3.733 2.75 1.087 7.25 2.288 10 2.67 6.538.905 18.006 3.989 28.051 7.543 4.67 1.652 12.23 3.313 18 3.955 5.472.608 19.624 2.204 31.449 3.545 39.735 4.507 45.861 4.86 71.346 4.12 27.866-.811 35.283-2.002 42.85-6.877 7.374-4.751 20.62-19.5 25.566-28.465 1.44-2.611 2.96-4.986 3.378-5.276.417-.29 1.672-2.54 2.787-5 2.176-4.796 2.819-14.826 1.063-16.582-.556-.556-1.424-6.456-1.93-13.112-.564-7.445-1.53-13.285-2.508-15.177-2.247-4.345-7.528-10.141-10.147-11.137-1.293-.492-2.482-2.038-2.848-3.705-.544-2.475.114-3.663 4.88-8.81 3.03-3.272 6.019-7.172 6.643-8.666.624-1.494 2.048-3.006 3.163-3.36 1.89-.6 1.975-1.134 1.25-7.784-.43-3.926-.692-9.956-.583-13.399.108-3.442-.078-6.703-.414-7.246-.336-.543-.825-5.377-1.088-10.74-.263-5.365-.957-11.247-1.543-13.071-.919-2.863-.612-5.363.503-4.1.556.63 11.661 45.528 13.936 59.211 3.211 19.32 3.178 66.53 4.812 85.297l-27.41 47.738c1.186-2.292-2.818 5.164-3.692 4.306-.866-.85-1.618-.57-2.995 1.115-1.012 1.237-2.38 2.25-3.04 2.25-.66 0-3.737 1.282-6.839 2.848-3.102 1.566-7.215 3.343-9.14 3.948-11.458 3.602-78.468 4.896-100.5 1.94-6.6-.885-15.825-1.898-20.5-2.25-10.821-.814-30.14-4.637-43.282-8.564-5.62-1.68-12.243-3.631-14.718-4.337-2.475-.706-6.397-2.203-8.716-3.327-3.084-1.495-4.46-1.737-5.122-.901-.497.629-.993 4.943-1.102 9.587-.109 4.644-.578 9.155-1.043 10.023-.464.869-1.6 4.494-2.523 8.056-.922 3.562-2.29 7.602-3.04 8.977-2.3 4.216-6.182 13.284-7.493 17.5-.684 2.2-1.39 4.45-1.57 5-.18.55-1.693 3.25-3.363 6s-3.997 7.025-5.171 9.5c-1.174 2.475-3.349 6.075-4.833 8-1.483 1.925-3.552 5.075-4.598 7-1.045 1.925-2.642 4.4-3.548 5.5-.907 1.1-3.125 4.925-4.929 8.5-1.804 3.575-3.91 7.242-4.679 8.15-.769.907-2.01 3.97-2.758 6.806-.749 2.836-1.766 5.694-2.261 6.35-.496.657-1.473 3.219-2.172 5.694-.7 2.475-2.109 5.87-3.131 7.546-1.023 1.676-2.163 4.948-2.535 7.272-.372 2.325-1.067 4.468-1.544 4.763-.478.295-.869 2.76-.869 5.478V500H0Zm19.73-15.813c5.484-5.517 13.73-9.082 22.02-9.521 5.035-.267 7.25-.777 7.25-1.668 0-1.84-2.354-2.498-8.922-2.498-4.464 0-7.2.716-12.168 3.184-6.672 3.315-17.113 11.678-16.275 13.035 1.088 1.76 5.064.517 8.095-2.532zM33.26 247c3.13-1.1 6.601-2 7.715-2 2.896 0 2.511-2.84-.487-3.592-4.627-1.162-17.433 4.254-15.905 6.726.794 1.285 2.385 1.078 8.677-1.134zm156.585-35.672c3.397-1.551 6.42-3.588 6.717-4.525.298-.937.58-5.715.625-10.618.11-11.655-2.118-18.986-7.151-23.534-3.512-3.173-3.588-3.37-1.61-4.24 2.46-1.08 2.423-2.53-.099-3.911-1.005-.55-2.19-1.569-2.635-2.264-1.473-2.307-35.117-18.263-44.23-20.978-12.615-3.757-33.5-4.307-48.382-1.274-5.616 1.144-10.968 2.503-11.895 3.02C79.236 144.09 65.862 148 64.094 148c-.655 0-3.757 1.697-6.893 3.77-7.15 4.729-11.678 6.098-21.388 6.469-6.511.249-8.078.662-10.25 2.702-1.51 1.418-2.563 3.505-2.563 5.078 0 4.362 2.92 6.042 12.164 7 12.174 1.26 16.822 2.692 21.943 6.756 1.313 1.043 1.823 1.014 2.795-.157 1.003-1.208 1.769-.89 4.894 2.037 5.35 5.012 11.266 8.986 18.428 12.378l6.276 2.972.647-6.287c.77-7.487 2.993-13.21 6.593-16.968l2.634-2.75h-6.099c-3.354 0-9.626.675-13.937 1.5-4.31.825-9.44 1.5-11.397 1.5-1.957 0-4.432.644-5.5 1.432-1.74 1.284-2.209 1.177-4.532-1.035-2.758-2.625-7.7-3.856-21.216-5.285-8.85-.936-11.038-2.195-8.4-4.834 1.237-1.236 4.259-1.897 10.957-2.397 10.605-.79 14.83-1.635 16.25-3.248 1.785-2.026 8.934-6.3 11.5-6.876 1.375-.309 5.65-1.528 9.5-2.71 19.19-5.888 20.832-6.19 36.5-6.727 15.177-.519 15.719-.465 26 2.582 11.961 3.545 38.491 16.28 40.073 19.235.577 1.077 2.259 2.5 3.738 3.16 2.264 1.013-.065 1.282-14.718 1.703-15.654.45-17.225.651-15.592 2 7.089 5.856 7.348 26.06.516 40.2l-1.983 4.106 16.317-.579c15.122-.536 16.77-.785 22.494-3.4zM305 208.173c2.475-.503 7.425-2.277 11-3.942 6.113-2.848 6.667-3.393 9.309-9.157 1.615-3.524 2.553-6.933 2.208-8.02-.971-3.06-12.44-11.793-17.942-13.663-2.997-1.018-9.17-1.872-15.075-2.087-9.163-.332-9.749-.246-7 1.03 6.656 3.09 9.5 9.282 9.5 20.684 0 9.099-1.466 13.042-5.763 15.494-2.664 1.52-2.578 1.55 3.263 1.068 3.3-.271 8.025-.905 10.5-1.407zm-59.551-4.64c-.832-1.992-1.449-6.69-1.449-11.033 0-10.877 3.003-17.23 9.5-20.097 3.95-1.744.507-1.897-4.219-.188-6.311 2.283-19.142 22.948-19.256 31.016-.016 1.084 1.002 1.957 2.725 2.337 1.513.334 3.2.757 3.75.94.55.184 3.115.37 5.699.413l4.699.079Zm16.363-4.798c.398-2.066-2.488-3.459-4.012-1.935-1.524 1.524-.131 4.41 1.935 4.012.958-.184 1.893-1.119 2.077-2.077zm27.206-2.769c.599-1.119.952-4.156.785-6.75l-.303-4.716-4.486.213c-2.909.138-4.93.82-5.75 1.94-1.32 1.807-1.752 9.526-.597 10.68.366.367 2.6.667 4.964.667 3.3 0 4.552-.473 5.387-2.034zM115.5 192.514c0-2.206-3.109-3.305-4.739-1.675-1.68 1.68-.023 4.337 2.485 3.981 1.475-.21 2.254-1.007 2.254-2.306zm27.423-.103c3.41-2.87 4.252-8.19 1.64-10.36-1.605-1.331-10.187-.497-12.313 1.198-1.595 1.27-1.631 8.97-.05 10.551 2.084 2.084 7.417 1.393 10.723-1.389zM261.5 182c0-3.222-.238-3.5-3-3.5-2.378 0-3.068.482-3.33 2.323-.54 3.82.55 5.342 3.574 4.994 2.423-.279 2.756-.74 2.756-3.817Zm-147.546-1.445c.66-.795 1.052-2.482.873-3.75-.27-1.905-.934-2.305-3.827-2.305-2.901 0-3.556.398-3.83 2.323-.18 1.277-.082 2.965.22 3.75.71 1.853 5.021 1.841 6.564-.018zm87.038-14.805c-.01-1.69-10.264-12.4-16.74-17.484-2.886-2.267-7.783-5.07-10.883-6.229-3.099-1.16-7.553-3.233-9.898-4.607-4.92-2.884-19.224-7.695-28.006-9.42-3.956-.777-11.878-1.005-23-.662-21.412.661-33.663 2.539-46.523 7.13-6.515 2.325-8.582 3.36-18.736 9.382-6.19 3.671-10.76 4.12-11.703 1.149-.348-1.095-.345-2.455.005-3.022.727-1.176 10.844-6.564 17.374-9.253 2.41-.992 6.235-2.633 8.5-3.646 2.265-1.013 5.918-2.41 8.118-3.103 2.2-.694 6.475-2.265 9.5-3.491 11.13-4.513 14.602-4.994 36-4.992 19.759.002 20.807.104 29 2.803 4.675 1.54 11.563 3.76 15.307 4.935 3.744 1.175 7.032 2.5 7.307 2.945.795 1.285 11.244 5.815 13.416 5.815 1.083 0 1.97-.57 1.97-1.267 0-1.515-18.608-10.933-25-12.654-2.475-.666-8.1-2.42-12.5-3.895-7.692-2.58-8.828-2.684-29.5-2.684-22.732 0-29.313.934-38.762 5.5-2.278 1.1-4.783 2-5.568 2-1.573 0-6.767 1.987-13.67 5.232-2.475 1.163-5.625 2.54-7 3.058-1.375.519-3.4 1.426-4.5 2.016-1.1.59-3.8 1.938-6 2.995-5.982 2.873-8.5 5.584-8.5 9.15 0 5.466 2.345 7.549 8.498 7.549 2.961 0 5.666-.457 6.011-1.015.345-.558 2.06-1.698 3.81-2.532 1.75-.834 5.206-2.67 7.681-4.08 8.72-4.968 18.352-7.904 34.5-10.516 10.072-1.63 36.234-2.166 42.937-.881 10.925 2.094 25.25 7.335 30.063 10.998.55.419 3.25 1.495 6 2.391 6.596 2.15 13.337 7.05 20.745 15.08 5.583 6.052 9.766 8.328 9.747 5.305zm72.804 93.5c-4.07-5.406-19.942-19.107-24.796-21.403-3.025-1.432-6.306-3.5-7.29-4.598-1.764-1.966-1.734-1.984 2-1.273 4.998.952 9.988 3.206 14.29 6.454 6.053 4.57 21 19.601 21 21.119 0 2.024-3.611 1.817-5.204-.299zm-143.226-1.137c-.301-.487.051-1.384.784-1.991 1.58-1.312 15.448-7.122 16.998-7.122.593 0 4.694-1.753 9.113-3.896 12.158-5.895 21.41-9.34 26.474-9.86l4.561-.468-3.444 2.612c-1.895 1.437-3.92 2.627-4.5 2.646-.58.019-2.856.903-5.056 1.966s-4.382 1.947-4.848 1.966c-.467.019-5.011 2.059-10.1 4.534-5.087 2.475-9.706 4.5-10.264 4.5-.557 0-4.287 1.35-8.288 3-7.509 3.096-10.483 3.646-11.43 2.113zM325.623 249c-2.663-2.2-5.622-4-6.577-4-.955 0-2.55-.9-3.546-2-.995-1.1-2.603-2-3.573-2-.97 0-2.504-.284-3.41-.632-1.237-.475-.658-1.073 2.338-2.415 2.191-.98 4.486-2.721 5.1-3.868.613-1.147 1.548-2.085 2.077-2.085 1.787 0 9.1 7.337 10.896 10.932 2.03 4.063 3.39 10.068 2.279 10.068-.41 0-2.922-1.8-5.584-4z" style="fill:#000"/><g><g style="display:inline" transform="matrix(1.35713 0 0 1.35713 284.781 253.787)"><path d="M104.935 11.239a84.318 84.318 0 0 0-84.318 84.318 84.318 84.318 0 0 0 84.318 84.317 84.318 84.318 0 0 0 84.317-84.317 84.318 84.318 0 0 0-84.317-84.318zm0 65.68a18.637 18.637 0 0 1 18.637 18.638 18.637 18.637 0 0 1-18.637 18.637 18.637 18.637 0 0 1-18.638-18.637 18.637 18.637 0 0 1 18.638-18.638z" style="fill:url(#c);fill-opacity:1;stroke:#dbdbdb;stroke-opacity:1"/><path d="M563.494 80.032c-6.695 0-11.395 4.276-14.1 12.82v13.67l6.194 32.04v10.04l.854 12.82c-2.563 0-3.844.498-3.844 1.495v.855l3.844-.855h.855v22.22c1.996 14.81 5.7 27.99 11.11 39.52.57 8.12 1.638 12.18 3.204 12.18 2.563 8.12 4.415 12.18 5.554 12.18 7.26 8.12 16.31 13.96 27.13 17.52 3.844 0 7.049-4.063 9.612-12.18 3.276-17.51 5.91-28.195 7.904-32.04 1.851 1.566 5.055 2.634 9.612 3.204v-.855c0-1.424-2.919-2.919-8.758-4.486 1.566-6.84 3.702-12.677 6.408-17.52.162-3.112.984-6.682 2.46-10.704a27.921 23.41 0 0 1-2.456.096 27.921 23.41 0 0 1-18.698-6.065c-1.203 1.786-2.18 2.77-2.878 2.77h-1.71l-3.204-2.135c-5.414-12.24-9.115-30.26-11.11-54.04h-1.494v-1.495h.64c.996-2.99 2.92-5.34 5.767-7.05v-.64l-.854-.855-.855.855-.854-.855-3.845.855h-1.709c-.996 0-2.563-3.275-4.699-9.826v-1.71h5.554v-1.494h-7.263c-1.85-7.83-7.97-17.45-18.37-28.84l2.563.64 2.35-.64 3.204.64 6.408-.64h.64l.855.64 4.913-.64h8.758c2.564 0 5.199.784 7.905 2.35 1.282-1.424 3.702-2.208 7.262-2.35v-1.495zm55.962 0v1.495h6.408l1.495 1.495 4.06-1.495 4.698.64 4.913-.64v-1.495h-21.57zm44.599 12.175-3.204 1.495v1.495l2.35.855v-.855l.854-.854c1.567 0 2.35-.498 2.35-1.495v-.64h-2.35zm-11.96 8.331v.001h.003zm0 .001-4.056 1.494h-.64l-.855-.64-4.699 2.136v1.495c6.832-1.281 10.25-2.493 10.25-3.632zm78.137 5.196c-5.13 10.11-12.16 27.486-18.283 45.856h-15.81l-8.117.64v1.71h4.059l3.204-.855 13.46 1.495v.855c-3.845 11.106-6.195 16.66-7.049 16.66-4.982 20.79-8.97 31.19-11.96 31.19h-2.563c-3.558-2.7-7.546-8.259-11.96-16.66 0-1.994-.784-3.774-2.35-5.34l-11.96-22.22c-2.42-9.4-5.625-16.45-9.612-21.15-1.28-3.133-3.418-4.7-6.408-4.7h-1.495c-4.698 0-9.255 2.777-13.67 8.331l.855 2.35c-.152.433-.358.909-.524 1.353a27.921 23.41 0 0 1 26.949 23.39 27.921 23.41 0 0 1-6.393 14.906c.223.758.438 1.537.687 2.238 5.839 9.97 8.758 19.372 8.758 28.2 0 3.42 4.556 14.88 13.67 34.39 2.458 13.828-2.723 20.089 27.127 7.47 6.269-11.39 11.325-17.728 15.17-19.01-.001-.996-1.353-1.494-4.06-1.494v-.855c2.137 0 3.205-.498 3.205-1.495v-.64l-.854-.855 8.971-2.991c0-2.563-1.067-3.845-3.203-3.845v-.854h6.408v-1.495c-3.275 0-5.412-1.495-6.408-4.486h1.495v-2.992l-.855-.854c4.842 0 7.263-.783 7.263-2.35v-.64h-1.495v-.855c1.71 0 2.99-1.495 3.845-4.486-4.699-1.282-7.05-2.563-7.049-3.845l6.195-15.17c0-7.69 1.637-16.096 4.913-25.21 3.703-8.83 8.207-23.927 9.774-34.327zm-101.235 2.493-12.82 2.991c0 1.567-.57 2.35-1.709 2.35v1.495c6.698-1.851 11.54-3.917 14.53-6.196v-.64zm40.59 7.476-3.204.854v.64l1.71 1.71h.854l1.495-1.71v-.64zm29.48.854-1.495 1.495v.855h.855l1.495-1.71v-.64zm-13.46 10.68c-2.136.713-3.204 1.424-3.203 2.136l1.708 2.35c2.563 0 4.13-.783 4.7-2.35zm19.22 9.827-1.709 1.495v.854h1.71l.64-.854v-.64zm-30.33 7.689c-4.273.713-6.409 1.71-6.409 2.991v.855h2.35l4.059-3.204v-.641zm-132.401 29.69-6.408 5.981v3.204h1.709c1.567-.996 3.418-3.844 5.554-8.544v-.641h-.855zm104.5 35.67-6.408 2.35v1.495l.854.854 6.408-3.204v-1.495zm-87.792 10.04v.64l2.35 7.69h1.71l-2.563-8.33h-1.495zm85.44 9.826v.855l1.496 2.136h.854l.854-.641-2.562-2.35z" style="fill:#fff" transform="matrix(.67299 0 0 .80265 -318.658 -39.554)"/><path d="M104.907 11.322A84.318 84.318 0 0 0 20.589 95.64a84.318 84.318 0 0 0 84.318 84.317 84.318 84.318 0 0 0 84.317-84.317 84.318 84.318 0 0 0-84.317-84.318zm0 65.68a18.637 18.637 0 0 1 18.637 18.638 18.637 18.637 0 0 1-18.637 18.637A18.637 18.637 0 0 1 86.269 95.64a18.637 18.637 0 0 1 18.638-18.637z" style="display:inline;fill:url(#d);fill-opacity:1;stroke:#dbdbdb;stroke-opacity:1"/><path id="f" d="M105.21 19.299c-42.439 0-76.842 34.403-76.842 76.84 0 12.621 3.043 24.53 8.434 35.036 12.739 24.822 38.59 41.805 68.407 41.805 42.438 0 76.84-34.402 76.84-76.84s-34.402-76.841-76.84-76.841z" style="display:inline;fill:none;fill-opacity:1;stroke:none;stroke-width:.911326;stroke-opacity:1"/><circle cx="104.934" cy="95.557" r="33.963" style="fill:none;stroke:#dbdbdb;stroke-width:1;stroke-dasharray:none;stroke-opacity:1"/><path d="m69.912 26.392 82.902-.25c13.761 9.92 22.643 21.128 26.174 28.809l-109.354.334c-11.115.123-15.404-25.24.167-28.893z" style="fill:#fff;fill-opacity:1;stroke:none"/><text xml:space="preserve" x="68.358" y="51.173" style="font-size:29.4321px;fill:none;stroke:#000;stroke-width:.834299;stroke-dasharray:none;stroke-opacity:1"><tspan x="68.358" y="51.173" style="font-style:normal;font-variant:normal;font-weight:400;font-stretch:normal;font-size:29.4321px;font-family:&quot;Barlow Condensed&quot;;-inkscape-font-specification:&quot;Barlow Condensed, &quot;;fill:#000;fill-opacity:1;stroke:none;stroke-width:.834299">MARBS</tspan></text><text xml:space="preserve" style="font-style:normal;font-variant:normal;font-weight:400;font-stretch:normal;font-size:13.0658px;font-family:Noto;-inkscape-font-specification:Noto;fill:#fff;fill-opacity:1;fill-rule:nonzero;stroke:none;stroke-width:.741;stroke-dasharray:none;stroke-opacity:1;filter:url(#e)"><textPath xlink:href="#f" startOffset="50%"><tspan style="font-style:normal;font-variant:normal;font-weight:400;font-stretch:normal;font-size:13.0658px;font-family:&quot;Barlow Condensed&quot;;-inkscape-font-specification:&quot;Barlow Condensed, &quot;;text-align:center;text-anchor:middle;fill:#fff;fill-opacity:1;fill-rule:nonzero;stroke:none;stroke-width:.741;stroke-dasharray:none;stroke-opacity:1">Get yours at  </tspan><tspan style="font-style:normal;font-variant:normal;font-weight:400;font-stretch:normal;font-size:13.0658px;font-family:&quot;Barlow Condensed&quot;;-inkscape-font-specification:&quot;Barlow Condensed, &quot;;text-align:center;text-anchor:middle;fill:#fff;fill-opacity:1;fill-rule:nonzero;stroke:none;stroke-width:.741;stroke-dasharray:none;stroke-opacity:1">MARBS.KUCHTA.DEV</tspan></textPath></text><text xml:space="preserve" x="135.175" y="33.307" style="font-style:normal;font-variant:normal;font-weight:400;font-stretch:normal;font-size:3.52778px;font-family:&quot;Barlow Condensed&quot;;-inkscape-font-specification:&quot;Barlow Condensed, &quot;;text-align:center;text-anchor:middle;fill:#fff;stroke-width:1"><tspan x="135.175" y="33.307" style="font-size:3.52778px;text-align:start;text-anchor:start;fill:#000;fill-opacity:1;stroke-width:1">Mariusz&apos;s</tspan><tspan x="135.175" y="37.717" style="font-size:3.52778px;text-align:start;text-anchor:start;fill:#000;fill-opacity:1;stroke-width:1">Auto</tspan><tspan x="135.175" y="42.126" style="font-size:3.52778px;text-align:start;text-anchor:start;fill:#000;fill-opacity:1;stroke-width:1">Rice</tspan><tspan x="135.175" y="46.536" style="font-size:3.52778px;text-align:start;text-anchor:start;fill:#000;fill-opacity:1;stroke-width:1">Bootstrapping</tspan><tspan x="135.175" y="50.946" style="font-size:3.52778px;text-align:start;text-anchor:start;fill:#000;fill-opacity:1;stroke-width:1">Scripts</tspan></text><text xml:space="preserve" style="font-style:normal;font-variant:normal;font-weight:400;font-stretch:normal;font-size:7.05556px;font-family:&quot;Barlow Condensed&quot;;-inkscape-font-specification:&quot;Barlow Condensed, &quot;;text-align:center;text-anchor:middle;fill:#fff;stroke-width:1"><textPath xlink:href="#g" style="font-size:7.05556px;text-align:start;text-anchor:start;fill:#000;fill-opacity:1;stroke-width:1">Powered by Wayland</textPath></text><path id="g" d="M83.366 118.15a31.017 31.017 0 0 0 43.842-1.4 31.017 31.017 0 0 0-1.4-43.843 31.017 31.017 0 0 0-43.842 1.4 31.017 31.017 0 0 0 1.4 43.843z" style="fill:none;stroke:none;stroke-width:.913265"/></g><path d="m507.016 404.8-12.079 5.074s-28.651 19.573 3.465 26.006c32.115 6.434 8.614-31.08 8.614-31.08z" style="fill:#fff;stroke:none;stroke-width:2.75515"/><path d="M500.678 408.211c-9.036 3.315-20.366 16.32-14.668 21.728 5.63 5.342 8.553 5.653 19.607 5.653 6.249 0 10.518-8.317 10.424-3.368-.286 15.132-40.838 7.266-32.546-12.634 0 0 8.605-10.04 10.79-10.238 2.648-1.655 6.393-1.141 6.393-1.141zm-11.94 90.786c-.012-.687-.902-2.375-1.978-3.75-1.075-1.375-1.965-3.926-1.977-5.668-.036-5.02.388-5.856-1.9-4.993-2.274.858-.157-1.113 4.482-3.538 5.091-2.662 14.926-11.038 19.247-14.752 2.152-1.851 2.221-2.693 3.77-3.345 1.572-.662 3.012 3.621 7.35 8.296 7.098 7.65 8.085 8.38 9.874 7.294 1.67-1.014 2.52-.819 5.321 1.224 1.833 1.337 4.285 2.858 5.447 3.38 1.163.522 2.379 1.64 2.703 2.485.324.845 2.478 2.905 4.787 4.577 3.295 2.387 5.233 3.04 9.02 3.04 4.332 0 4.981.302 6.35 2.95.84 1.623 1.526 3.198 1.526 3.5 0 .303-16.65.55-37 .55-28.921 0-37.004-.273-37.022-1.25zm76.88-3.761c-2.294-4.334-2.514-5.503-1.667-8.842.537-2.116 2.008-4.96 3.267-6.318 1.26-1.359 3.412-4.246 4.782-6.416 2.805-4.444 10.846-12.771 18.583-19.245 4.725-3.953 6.844-8.168 4.106-8.168-2.852 0-23.865 20.13-26.619 25.5-.846 1.65-2.724 4.262-4.174 5.803-1.45 1.542-3.105 4.692-3.678 7-1.005 4.046-1.198 4.208-5.371 4.51-3.987.29-4.654-.031-8.458-4.067-2.27-2.41-7.054-6.147-10.629-8.305-7.684-4.638-7.964-4.962-7.984-9.244-.025-5.303 5.93-12.572 13.484-16.46 4.162-2.14 30.5-28.162 30.5-30.132 0-2.18-1.93-2.019-4.476.373l-2.105 1.978-4.544-4.354c-5.688-5.451-7.831-6.602-12.294-6.602-3.719 0-12.54 4.708-14.837 7.918-.684.957-2.713 2.246-4.509 2.864-1.796.619-5.472 2.985-8.169 5.26l-5.652 6.007-10.816-2.21c-11.212-2.293-11.598-.373-14.697-3.474-2.907-2.91-3.052-3.375-2.02-6.5 2.83-8.56 15.952-12.917 18.968-6.299 1.805 3.962 1.388 6.095-1.926 9.87-3.009 3.426-3.177 5.564-.436 5.564.752 0 2.75-1.677 4.44-3.728 4.384-5.318 4.217-10.81-.52-17.114-.142-.188-1.893-.905-3.892-1.592l-3.634-1.25 3.733-2.907c2.054-1.6 5.118-4.064 6.81-5.475 3.774-3.148 12.42-8.93 13.377-8.944.384-.006 2.95-1.802 5.7-3.99s5.36-3.983 5.802-3.99c.442-.005 2.46-1.135 4.483-2.51 4.616-3.137 7.992-3.153 14.081-.067 8.315 4.213 23.426 14.82 28.875 20.267 2.883 2.882 6.708 5.982 8.5 6.888 1.792.907 4.72 2.743 6.508 4.081l3.25 2.433-.015 35.699-.015 35.7-5.485 5.91c-3.016 3.25-5.485 6.738-5.485 7.75 0 1.677-.99 1.838-11.25 1.83l-11.25-.007zm29.142 4.444c0-1.07 5.238-7.433 6.12-7.433.484 0 .88 1.8.88 4 0 3.905-.083 4-3.5 4-1.925 0-3.5-.255-3.5-.567z" style="fill:#000"/></g></g></svg>