<svg xmlns="http://www.w3.org/2000/svg" xmlns:xlink="http://www.w3.org/1999/xlink" viewBox="0 0 169.663 169.719">
  <defs>
    <radialGradient xlink:href="#a" id="c" cx="84.269" cy="151.856" r="84.818" fx="84.269" fy="151.856" gradientTransform="matrix(1.19034 1.15186 -.91454 .94508 73.917 -161.345)" gradientUnits="userSpaceOnUse"/>
    <radialGradient xlink:href="#b" id="d" cx="80.667" cy="184.464" r="84.818" fx="80.667" fy="184.464" gradientTransform="matrix(.6528 -1.61668 1.55692 .62866 -234.484 181.66)" gradientUnits="userSpaceOnUse"/>
    <linearGradient id="b">
      <stop offset="0" style="stop-color:#ffbc00;stop-opacity:1"/>
      <stop offset="1" style="stop-color:#ff4500;stop-opacity:.56862748"/>
    </linearGradient>
    <linearGradient id="a">
      <stop offset="0" style="stop-color:#ffbc00;stop-opacity:1"/>
      <stop offset="1" style="stop-color:#ff4500;stop-opacity:1"/>
    </linearGradient>
  </defs>
  <g transform="translate(-20.089 -10.739)">
    <path d="M104.935 11.239a84.318 84.318 0 0 0-84.318 84.318 84.318 84.318 0 0 0 84.318 84.317 84.318 84.318 0 0 0 84.317-84.317 84.318 84.318 0 0 0-84.317-84.318zm0 65.68a18.637 18.637 0 0 1 18.637 18.638 18.637 18.637 0 0 1-18.637 18.637 18.637 18.637 0 0 1-18.638-18.637 18.637 18.637 0 0 1 18.638-18.638z" style="fill:url(#c);fill-opacity:1;stroke:#dbdbdb;stroke-opacity:1"/>
    <path d="M563.494 80.032c-6.695 0-11.395 4.276-14.1 12.82v13.67l6.194 32.04v10.04l.854 12.82c-2.563 0-3.844.498-3.844 1.495v.855l3.844-.855h.855v22.22c1.996 14.81 5.7 27.99 11.11 39.52.57 8.12 1.638 12.18 3.204 12.18 2.563 8.12 4.415 12.18 5.554 12.18 7.26 8.12 16.31 13.96 27.13 17.52 3.844 0 7.049-4.063 9.612-12.18 3.276-17.51 5.91-28.195 7.904-32.04 1.851 1.566 5.055 2.634 9.612 3.204v-.855c0-1.424-2.919-2.919-8.758-4.486 1.566-6.84 3.702-12.677 6.408-17.52.162-3.112.984-6.682 2.46-10.704a27.921 23.41 0 0 1-2.456.096 27.921 23.41 0 0 1-18.698-6.065c-1.203 1.786-2.18 2.77-2.878 2.77h-1.71l-3.204-2.135c-5.414-12.24-9.115-30.26-11.11-54.04h-1.494v-1.495h.64c.996-2.99 2.92-5.34 5.767-7.05v-.64l-.854-.855-.855.855-.854-.855-3.845.855h-1.709c-.996 0-2.563-3.275-4.699-9.826v-1.71h5.554v-1.494h-7.263c-1.85-7.83-7.97-17.45-18.37-28.84l2.563.64 2.35-.64 3.204.64 6.408-.64h.64l.855.64 4.913-.64h8.758c2.564 0 5.199.784 7.905 2.35 1.282-1.424 3.702-2.208 7.262-2.35v-1.495zm55.962 0v1.495h6.408l1.495 1.495 4.06-1.495 4.698.64 4.913-.64v-1.495h-21.57zm44.599 12.175-3.204 1.495v1.495l2.35.855v-.855l.854-.854c1.567 0 2.35-.498 2.35-1.495v-.64h-2.35zm-11.96 8.331v.001h.003zm0 .001-4.056 1.494h-.64l-.855-.64-4.699 2.136v1.495c6.832-1.281 10.25-2.493 10.25-3.632zm78.137 5.196c-5.13 10.11-12.16 27.486-18.283 45.856h-15.81l-8.117.64v1.71h4.059l3.204-.855 13.46 1.495v.855c-3.845 11.106-6.195 16.66-7.049 16.66-4.982 20.79-8.97 31.19-11.96 31.19h-2.563c-3.558-2.7-7.546-8.259-11.96-16.66 0-1.994-.784-3.774-2.35-5.34l-11.96-22.22c-2.42-9.4-5.625-16.45-9.612-21.15-1.28-3.133-3.418-4.7-6.408-4.7h-1.495c-4.698 0-9.255 2.777-13.67 8.331l.855 2.35c-.152.433-.358.909-.524 1.353a27.921 23.41 0 0 1 26.949 23.39 27.921 23.41 0 0 1-6.393 14.906c.223.758.438 1.537.687 2.238 5.839 9.97 8.758 19.372 8.758 28.2 0 3.42 4.556 14.88 13.67 34.39 2.458 13.828-2.723 20.089 27.127 7.47 6.269-11.39 11.325-17.728 15.17-19.01-.001-.996-1.353-1.494-4.06-1.494v-.855c2.137 0 3.205-.498 3.205-1.495v-.64l-.854-.855 8.971-2.991c0-2.563-1.067-3.845-3.203-3.845v-.854h6.408v-1.495c-3.275 0-5.412-1.495-6.408-4.486h1.495v-2.992l-.855-.854c4.842 0 7.263-.783 7.263-2.35v-.64h-1.495v-.855c1.71 0 2.99-1.495 3.845-4.486-4.699-1.282-7.05-2.563-7.049-3.845l6.195-15.17c0-7.69 1.637-16.096 4.913-25.21 3.703-8.83 8.207-23.927 9.774-34.327zm-101.235 2.493-12.82 2.991c0 1.567-.57 2.35-1.709 2.35v1.495c6.698-1.851 11.54-3.917 14.53-6.196v-.64zm40.59 7.476-3.204.854v.64l1.71 1.71h.854l1.495-1.71v-.64zm29.48.854-1.495 1.495v.855h.855l1.495-1.71v-.64zm-13.46 10.68c-2.136.713-3.204 1.424-3.203 2.136l1.708 2.35c2.563 0 4.13-.783 4.7-2.35zm19.22 9.827-1.709 1.495v.854h1.71l.64-.854v-.64zm-30.33 7.689c-4.273.713-6.409 1.71-6.409 2.991v.855h2.35l4.059-3.204v-.641zm-132.401 29.69-6.408 5.981v3.204h1.709c1.567-.996 3.418-3.844 5.554-8.544v-.641h-.855zm104.5 35.67-6.408 2.35v1.495l.854.854 6.408-3.204v-1.495zm-87.792 10.04v.64l2.35 7.69h1.71l-2.563-8.33h-1.495zm85.44 9.826v.855l1.496 2.136h.854l.854-.641-2.562-2.35z" style="fill:#fff" transform="matrix(.67299 0 0 .80265 -318.658 -39.554)"/>
    <path d="M104.907 11.322A84.318 84.318 0 0 0 20.589 95.64a84.318 84.318 0 0 0 84.318 84.317 84.318 84.318 0 0 0 84.317-84.317 84.318 84.318 0 0 0-84.317-84.318zm0 65.68a18.637 18.637 0 0 1 18.637 18.638 18.637 18.637 0 0 1-18.637 18.637A18.637 18.637 0 0 1 86.269 95.64a18.637 18.637 0 0 1 18.638-18.637z" style="display:inline;fill:url(#d);fill-opacity:1;stroke:#dbdbdb;stroke-opacity:1"/>
    <circle cx="104.934" cy="95.557" r="33.963" style="display:inline;fill:none;stroke:#dbdbdb;stroke-width:1;stroke-dasharray:none;stroke-opacity:1"/>
    <path d="m69.912 26.392 82.902-.25c13.761 9.92 22.643 21.128 26.174 28.809l-109.354.334c-11.115.123-15.404-25.24.167-28.893z" style="fill:#fff;fill-opacity:1;stroke:none"/>
    <path d="M79.454 30.777q.088-.206.353-.206h1.53q.294 0 .294.294v20.014q0 .294-.294.294h-1.5q-.295 0-.295-.294V35.103q0-.088-.06-.088-.028 0-.087.059l-3.061 6.357q-.089.206-.295.206-.235 0-.323-.206l-3.061-6.328q-.06-.059-.118-.059-.03 0-.03.089v15.746q0 .294-.294.294h-1.5q-.295 0-.295-.294V30.865q0-.294.294-.294h1.53q.266 0 .354.206l3.355 6.798q.03.06.088.06.06 0 .089-.06zM93.58 51.173q-.265 0-.324-.265l-.736-3.65q0-.058-.059-.088-.029-.03-.088-.03h-5.327q-.059 0-.118.03-.03.03-.03.089l-.735 3.65q-.03.264-.324.264h-1.5q-.148 0-.236-.088-.06-.088-.03-.236l4.415-20.013q.059-.265.324-.265h1.766q.294 0 .324.265l4.473 20.013v.06q0 .264-.265.264zm-6.299-5.857q0 .118.089.118h4.65q.088 0 .088-.118L89.755 33.75q-.03-.088-.06-.088-.029 0-.058.088zm18.837 5.857q-.265 0-.353-.235l-3.002-9.095q-.03-.088-.118-.088h-2.56q-.118 0-.118.118v9.006q0 .294-.295.294h-1.5q-.295 0-.295-.294V30.865q0-.294.294-.294h4.857q2.148 0 3.473 1.589 1.324 1.56 1.324 4.091 0 1.913-.824 3.296-.824 1.384-2.237 1.943-.118.03-.088.147l3.208 9.212.03.118q0 .206-.266.206zm-6.034-18.778q-.117 0-.117.118v7.446q0 .118.117.118h2.65q1.353 0 2.177-1.03.824-1.06.824-2.796 0-1.736-.824-2.796-.824-1.06-2.178-1.06zm20.897 13.186q.03 2.649-1.413 4.12-1.442 1.472-3.855 1.472h-4.503q-.295 0-.295-.294V30.865q0-.294.295-.294h4.238q2.531 0 3.973 1.412 1.442 1.384 1.442 3.974 0 3.296-2.442 4.503-.06.03-.06.059 0 .03.03.059 2.59 1.5 2.59 5.003zm-7.858-13.186q-.118 0-.118.118v7.093q0 .118.118.118h2.325q1.59 0 2.472-.942.883-.942.883-2.649 0-1.766-.883-2.737-.883-1-2.472-1zm2.443 16.924q1.56 0 2.443-1.03.883-1.06.883-2.943 0-1.914-.883-2.973-.883-1.06-2.443-1.06h-2.443q-.118 0-.118.118v7.77q0 .118.118.118zm12.567 2.09q-2.178 0-3.532-1.443-1.354-1.442-1.354-3.767v-.677q0-.294.295-.294h1.442q.294 0 .294.294v.589q0 1.56.795 2.53.795.943 2.06.943 1.236 0 2.06-.913.825-.912.825-2.413 0-1-.413-1.707-.382-.736-1.03-1.266-.618-.559-2.09-1.677-1.47-1.09-2.324-1.855-.854-.794-1.413-1.883-.53-1.09-.53-2.56 0-2.297 1.324-3.621 1.325-1.354 3.444-1.354 2.237 0 3.561 1.472 1.354 1.442 1.354 3.855v.736q0 .295-.294.295h-1.472q-.294 0-.294-.295v-.765q0-1.56-.795-2.502-.765-.971-2.06-.971-1.177 0-1.942.853-.766.825-.766 2.355 0 .912.324 1.619.353.677 1.03 1.295.677.618 2.002 1.619 1.765 1.295 2.619 2.119.883.794 1.354 1.766.47.941.47 2.295 0 2.414-1.383 3.885-1.383 1.443-3.56 1.443z" aria-label="MARBS" style="font-size:29.4321px;font-family:&quot;Barlow Condensed&quot;;-inkscape-font-specification:&quot;Barlow Condensed, &quot;;stroke-width:.834299"/>
    <path d="M46.243 145.57q-.628-.75-.565-1.564.073-.823.813-1.443l3.719-3.115q.74-.62 1.553-.539.823.073 1.45.822.629.75.556 1.573-.065.833-.804 1.453l-.42.35q-.096.082-.178-.016l-.416-.496q-.081-.097.016-.179l.438-.367q.458-.383.51-.874.062-.5-.305-.938-.359-.428-.87-.464-.502-.027-.95.348l-3.738 3.132q-.448.375-.51.874-.054.51.305.938.367.438.86.472.502.027.96-.356l1.246-1.044q.039-.033.006-.072l-.701-.837q-.082-.098.015-.18l.41-.342q.097-.081.178.016l1.232 1.47q.081.098-.016.18l-1.782 1.492q-.74.62-1.57.537-.814-.081-1.442-.83zm7.187 3.257q-.091.088-.18-.003l-2.008-2.086q-.035-.036-.072 0l-.668.642q-.384.37-.428.818-.027.45.308.797.282.292.65.326.385.035.73-.174.11-.052.18.021l.422.475q.035.037.034.09-.001.054-.056.09-.61.446-1.291.38-.664-.067-1.236-.662-.626-.65-.62-1.413.014-.754.645-1.362l1.977-1.903q.622-.599 1.376-.584.772.014 1.397.664.635.659.611 1.422-.005.763-.627 1.362zm.593-3.339q-.335-.347-.793-.33-.44.02-.834.398l-.613.59q-.036.036-.001.072l1.444 1.5q.036.037.072.002l.613-.59q.394-.38.42-.828.036-.457-.308-.814zm3.845 3.53q-.086.093-.18.006l-.706-.657q-.037-.035-.072.003l-2.647 2.845q-.398.428-.405.733.002.297.317.573l.093.087q.093.086.007.179l-.372.4q-.087.093-.18.006l-.232-.216q-.549-.51-.62-1.011-.055-.502.56-1.162l2.828-3.04q.035-.038-.002-.072l-.363-.337q-.093-.086-.006-.18l.285-.306q.087-.093.18-.006l.362.337q.037.035.072-.003l.969-1.041q.086-.093.18-.006l.464.432q.093.087.007.18l-.97 1.041q-.034.037.003.072l.707.657q.093.087.007.18zm-2.956 8.561q-.02-.015-.016-.06.003-.046.034-.086l.314-.4q.078-.1.178-.022.318.233.574.256.266.031.595-.162.33-.194.894-.688.026-.012.023-.03l.024-.03 2.585-5.912.014-.038q.063-.08.163-.002l.54.423q.1.078.039.176l-2.2 4.618q-.013.038-.003.046.01.008.043-.015l3.949-3.246q.09-.075.18-.004l.552.449q.05.039.047.084.006.054-.053.088l-5.605 4.288q-.704.53-1.135.708-.42.187-.795.087-.381-.09-.891-.489zm6.841 2.065q-.754-.517-.903-1.266-.138-.741.357-1.464l1.544-2.252q.488-.712 1.248-.854.759-.142 1.502.368.755.517.896 1.276.142.76-.346 1.472l-1.544 2.252q-.496.723-1.248.854t-1.506-.386zm.453-.66q.398.273.836.173.448-.093.757-.543l1.48-2.158q.308-.45.233-.902-.058-.456-.456-.728-.398-.273-.843-.163-.438.1-.747.55l-1.48 2.159q-.308.45-.243.895.065.444.463.717zm8.174-1.477q.064-.11.174-.045l.558.328q.11.065.045.174l-3.129 5.32q-.064.11-.173.046l-.559-.329q-.11-.064-.045-.174l.22-.372q.018-.033-.004-.046-.01-.006-.045.003-.674.37-1.43-.074-.657-.386-.819-1.012-.145-.63.332-1.44l2.292-3.898q.064-.11.173-.045l.559.328q.11.065.045.174l-2.19 3.722q-.321.548-.27.96.07.41.496.66.438.258.866.083.438-.17.76-.717zm3.841 1.82q.283.145.423.373.056.086-.018.176l-.437.519q-.063.096-.17-.001-.101-.138-.305-.242-.09-.046-.141-.058-.419-.185-.887.09-.462.262-.757.839l-1.733 3.393q-.058.113-.171.055l-.577-.295q-.113-.057-.055-.17l2.808-5.497q.058-.113.17-.055l.577.294q.114.058.056.171l-.347.679q-.017.034-.006.04.023.011.057 0 .767-.692 1.513-.31zm-.064 7.19q-.8-.355-1.109-.977-.29-.63.013-1.314l.036-.081q.052-.117.168-.065l.557.247q.116.051.065.167l-.031.07q-.165.372-.01.745.165.38.606.575.418.185.786.043.37-.143.544-.537.134-.302.059-.572-.07-.28-.24-.495-.157-.208-.504-.584-.37-.387-.596-.695-.208-.314-.284-.737-.06-.43.166-.94.33-.743.973-.972.655-.224 1.433.12.79.35 1.058.997.269.647-.055 1.379l-.015.035q-.052.116-.168.064l-.534-.236q-.116-.052-.065-.168l.031-.07q.175-.394.021-.768-.142-.369-.56-.554-.418-.185-.792-.031-.357.147-.527.53-.123.279-.06.543.069.253.233.478.17.214.487.563.383.42.603.74.23.324.314.764.083.44-.138.939-.32.72-.986.939-.666.218-1.479-.142zm9.06-3.57q.844.278 1.168 1 .328.71.026 1.626l-1.34 4.065q-.04.12-.16.08l-.615-.202q-.12-.04-.08-.16l.118-.362q.008-.024-.016-.032-.008-.016-.04 0-.641.444-1.534.15-.663-.219-1.034-.755-.356-.545-.038-1.51.338-1.026 1.084-1.301.75-.288 1.715.03l.844.278q.049.016.065-.032l.155-.47q.198-.604.04-1.057-.158-.453-.628-.608-.362-.12-.707.034-.333.158-.504.516-.04.12-.16.081l-.672-.235q-.06-.02-.085-.068-.012-.044.016-.088.295-.692.956-.955.666-.276 1.426-.025zm-2.045 5.477q.494.163.96-.032.469-.206.655-.773l.334-1.013q.016-.049-.032-.064l-.856-.283q-.58-.19-1.02.012-.438.19-.636.793-.175.531-.01.88.183.34.605.48zm6.925-3.386q-.033.122-.156.09l-.932-.25q-.05-.013-.063.036l-1.005 3.754q-.15.564-.014.837.14.261.549.358l.122.032q.123.033.09.156l-.14.527q-.034.123-.156.09l-.307-.082q-.724-.194-1.022-.602-.283-.418-.05-1.289l1.075-4.011q.013-.05-.036-.062l-.479-.129q-.122-.032-.09-.155l.109-.405q.033-.123.155-.09l.479.128q.049.013.062-.036l.368-1.374q.033-.122.156-.09l.613.165q.123.033.09.155l-.368 1.374q-.013.05.036.063l.932.25q.123.032.09.155zm9.675-1.244q.05-.083.163-.068l.655.086q.126.016.11.142l-1.119 8.563q-.016.126-.142.11l-.643-.084q-.126-.017-.11-.143l.882-6.75q.005-.037-.02-.04-.013-.003-.041.02l-1.665 2.549q-.05.083-.137.072-.101-.014-.127-.107l-.957-2.878q-.021-.029-.047-.032-.012-.002-.017.036l-.88 6.737q-.016.126-.142.11l-.642-.084q-.126-.016-.11-.142l1.118-8.564q.017-.126.143-.11l.654.086q.114.015.14.108l1.056 3.097q.01.026.034.03.025.003.041-.02zm4.94 9.164q-.113-.006-.133-.121l-.233-1.59q.001-.025-.023-.039-.012-.013-.037-.015l-2.296-.122q-.025-.001-.051.01-.014.012-.015.037l-.401 1.556q-.019.113-.146.107l-.646-.035q-.064-.003-.1-.043-.023-.04-.007-.103l2.362-8.522q.032-.113.146-.107l.76.041q.128.007.134.122l1.468 8.726-.001.026q-.006.114-.12.108zm-2.579-2.668q-.003.05.036.053l2.004.107q.038.002.04-.05l-.748-5.037q-.01-.039-.024-.04-.012 0-.027.037zm7.99 2.654q-.114.002-.154-.1l-1.358-3.902q-.013-.038-.051-.038l-1.105.018q-.05 0-.05.052l.062 3.885q.002.127-.125.13l-.647.01q-.127.002-.13-.125l-.138-8.635q-.002-.127.125-.13l2.095-.033q.927-.015 1.51.662.582.664.6 1.756.013.825-.333 1.428-.346.602-.952.853-.05.014-.037.064l1.448 3.953.014.05q0 .09-.113.091zm-2.733-8.06q-.05 0-.05.052l.052 3.212q0 .051.051.05l1.143-.018q.584-.01.933-.46.348-.463.336-1.212-.012-.749-.375-1.2-.363-.452-.947-.442zm8.914 5.172q.114 1.138-.45 1.826-.563.687-1.6.78l-1.935.172q-.127.012-.138-.115l-.767-8.602q-.012-.126.115-.137l1.821-.163q1.088-.097 1.762.455.673.54.772 1.652.127 1.417-.877 2.03-.024.014-.023.027.001.013.015.024 1.17.546 1.305 2.051zm-3.883-5.365q-.05.005-.046.055l.272 3.048q.005.05.055.046l1-.089q.682-.06 1.026-.5.343-.438.278-1.172-.068-.759-.485-1.142-.418-.396-1.1-.336zm1.699 7.18q.67-.06 1.01-.537.34-.49.267-1.299-.073-.822-.494-1.243-.42-.422-1.09-.362l-1.05.093q-.05.005-.046.055l.298 3.34q.005.05.055.046zm5.467.22q-.928.15-1.604-.371-.676-.522-.835-1.512l-.047-.289q-.02-.125.105-.145l.615-.1q.125-.02.145.106l.04.25q.108.665.513 1.024.403.347.942.26.527-.085.815-.53.289-.445.186-1.085-.069-.426-.293-.699-.213-.287-.526-.468-.301-.196-1.005-.571-.702-.363-1.118-.63-.418-.28-.731-.706-.3-.428-.401-1.054-.158-.978.315-1.634.472-.667 1.374-.813.953-.153 1.618.383.676.521.842 1.55l.05.313q.02.125-.105.145l-.627.101q-.125.02-.145-.105l-.053-.326q-.107-.664-.51-1.011-.393-.361-.944-.272-.502.08-.77.497-.269.403-.164 1.055.063.389.25.668.196.264.527.48.33.217.964.553.841.43 1.261.723.43.278.698.66.265.368.358.945.166 1.028-.322 1.75-.49.71-1.418.859zm3.673-.816q-.31.066-.551-.09-.229-.16-.292-.458-.066-.31.081-.537.157-.24.468-.306.298-.063.539.094.238.144.304.455.063.298-.094.539-.157.24-.455.303zm2.03-.411q-.123.032-.156-.09l-2.225-8.345q-.032-.123.09-.155l.626-.167q.123-.033.155.09l1.06 3.976q.01.037.038.042.028.006.03-.034l1.292-4.669q.039-.102.125-.125l.687-.183q.074-.02.111.023.035.03.014.101l-1.028 3.836q-.011.056.007.077l3.417 4.334.025.045q.026.099-.084.128l-.7.186q-.098.027-.161-.062l-2.88-3.7q-.025-.047-.06.016l-.448 1.38q-.009.016.004.065l.776 2.908q.033.123-.09.156zm7.418-2.108q-.923.324-1.71-.114-.785-.438-1.15-1.48l-2.123-6.052q-.042-.12.078-.162l.611-.215q.12-.042.162.078l2.156 6.148q.23.66.697.953.479.29 1.018.101.551-.193.744-.718.193-.526-.038-1.185l-2.156-6.148q-.042-.12.078-.162l.61-.214q.12-.042.163.078l2.122 6.052q.366 1.043.013 1.88-.34.832-1.275 1.16zm5.405-2.132q-.896.393-1.682.086-.775-.312-1.178-1.23l-1.893-4.315q-.398-.908-.103-1.689.307-.786 1.203-1.18.907-.397 1.682-.085.781.295 1.184 1.214l.087.198q.05.116-.066.167l-.589.3q-.116.051-.167-.065l-.128-.291q-.24-.547-.702-.746-.462-.2-.985.03-.512.224-.69.705-.165.475.074 1.021l1.95 4.443q.239.547.7.746.475.195.986-.03.524-.23.69-.705.166-.475-.074-1.021l-.128-.29q-.05-.117.066-.168l.62-.23q.116-.052.167.065l.082.186q.403.919.096 1.705-.307.786-1.202 1.18zm2.101-10.915q-.06-.112.052-.172l.572-.304q.112-.06.172.052l4.061 7.622q.06.112-.052.172l-.572.304q-.112.06-.172-.052l-1.821-3.419q-.024-.044-.069-.02l-1.995 1.063q-.045.023-.021.068l1.821 3.419q.06.112-.052.171l-.572.305q-.112.06-.171-.052l-4.061-7.622q-.06-.112.052-.172l.572-.304q.112-.06.171.052l1.816 3.407q.024.045.069.021l1.995-1.063q.045-.024.02-.068zm5.064-3.226q.107-.067.175.04l.284.452q.067.107-.04.175l-1.42.891q-.043.027-.016.07l4.215 6.711q.068.108-.04.176l-.548.344q-.108.068-.176-.04l-4.214-6.711q-.027-.043-.07-.016l-1.334.838q-.108.067-.175-.04l-.284-.452q-.067-.108.04-.175zm8.296 4.96q-.093.068-.18-.01l-1.181-1.09q-.015-.02-.043-.015-.018-.003-.038.012l-1.862 1.348q-.02.015-.034.04-.003.018.012.038l.667 1.462q.057.1-.046.175l-.525.38q-.051.037-.105.028-.042-.016-.07-.075l-3.521-8.112q-.047-.107.046-.174l.617-.447q.103-.075.18.01l6.629 5.863.014.02q.067.093-.025.16zm-3.684-.452q.03.04.061.018l1.625-1.176q.031-.023.001-.064l-3.75-3.447q-.032-.023-.043-.016-.01.007.002.046zm5.35-.901q-.248.199-.533.167-.276-.04-.467-.277-.198-.248-.169-.515.031-.286.279-.485.238-.19.523-.159.278.021.477.27.19.237.16.522-.032.286-.27.477zm1.764-1.395q-.095.084-.18-.01l-5.755-6.44q-.084-.094.01-.179l1.459-1.303q.729-.652 1.596-.558.859.084 1.578.889l2.776 3.106q.72.805.715 1.677-.012.863-.741 1.514zm.019-1.142q.034.038.071.004l.825-.754q.417-.372.375-.914-.032-.55-.513-1.108l-2.725-3.05q-.5-.558-1.034-.66-.534-.102-.97.287l-.832.745q-.038.034-.004.072zm1.056-11.32q.091.09.003.18l-2.048 2.119q-.035.036.001.071l2.264 2.19q.037.035.072-.001l1.289-1.333q.088-.092.18-.003l.392.38q.091.088.003.179l-1.289 1.333q-.035.036.001.072l2.274 2.198q.036.035.071-.001l2.048-2.118q.089-.092.18-.003l.383.37q.092.089.003.18l-2.621 2.712q-.089.09-.18.003l-6.208-6.003q-.092-.089-.003-.18l2.622-2.712q.088-.09.18-.003zm7.83 3.496q-.073.088-.177.034l-7.803-4.134-.02-.016q-.087-.073-.013-.16l.456-.546q.082-.098.178-.034l6.323 3.507q.027.007.035-.003.008-.01-.003-.035l-4.57-5.6q-.07-.094.003-.181l.44-.526q.09-.107.18.002l5.438 6.957q.08.083-.002.18z" aria-label="Get yours at MARBS.KUCHTA.DEV" style="font-size:12.7px;font-family:&quot;Barlow Condensed&quot;;-inkscape-font-specification:&quot;Barlow Condensed, &quot;;text-align:center;text-anchor:middle;fill:#fff;stroke-width:.741"/>
    <g aria-label="Mariusz's Auto Rice Bootstrapping Scripts 󱓟" style="font-size:5.64444px;line-height:.95;font-family:&quot;Barlow Condensed&quot;;-inkscape-font-specification:&quot;Barlow Condensed, &quot;;text-align:center;text-anchor:middle;fill:#fff">
      <path d="M139.377 30.625q.028-.046.084-.046h.503q.028 0 .045.023.017.017.011.045l-.468 3.816q0 .028-.023.05-.023.018-.05.018h-.503q-.028 0-.045-.017-.017-.023-.012-.051l.328-2.664q.006-.023-.012-.023-.01 0-.022.017l-.587.892q-.028.045-.051.045-.011 0-.028-.011-.011-.012-.017-.034l-.367-.892q-.006-.017-.017-.017-.011 0-.017.023l-.327 2.664q-.006.028-.028.05-.017.018-.046.018h-.502q-.028 0-.045-.017-.017-.023-.011-.051l.468-3.816q0-.028.023-.045.022-.023.05-.023h.503q.056 0 .073.046l.418.965q.011.028.028 0zm2.303 1.089q0-.028.022-.045.023-.023.051-.023h.502q.029 0 .045.023.017.017.012.045l-.339 2.749q-.006.028-.028.05-.017.018-.045.018h-.503q-.028 0-.045-.017-.017-.023-.011-.051l.023-.17q0-.022-.012-.022-.011 0-.022.017-.215.288-.565.288-.316 0-.48-.187-.158-.192-.158-.53 0-.136.012-.203l.14-1.14q.057-.435.272-.672.22-.243.581-.243.152 0 .282.068.136.067.21.22.01.017.016.017.011 0 .017-.023zm-.616 2.297q.147 0 .249-.107.107-.113.13-.294l.13-1.044q.005-.022.005-.073 0-.147-.079-.237-.073-.09-.203-.09-.152 0-.26.112-.101.108-.124.288l-.13 1.044q-.006.023-.006.068 0 .153.08.243.078.09.208.09zm2.907-2.399q.153 0 .226.057.04.034.023.084l-.153.525q-.017.068-.084.04-.08-.023-.136-.023-.068 0-.124.017-.153.023-.271.18-.113.153-.141.368l-.198 1.597q-.006.028-.028.05-.017.018-.045.018h-.502q-.029 0-.046-.017-.017-.023-.011-.05l.333-2.744q.006-.028.028-.045.023-.023.051-.023h.502q.029 0 .046.023.016.017.01.045l-.033.26q0 .022.011.028.012 0 .017-.023.192-.367.525-.367zm.954-.36q-.158 0-.254-.097-.09-.096-.09-.248 0-.198.124-.328.13-.13.316-.13.153 0 .243.097.096.09.096.237 0 .197-.13.333-.124.135-.305.135zm-.649 3.279q-.028 0-.045-.017-.017-.023-.011-.051l.333-2.75q.006-.027.022-.044.023-.023.051-.023h.508q.028 0 .045.023.017.017.011.045l-.338 2.749q-.006.028-.028.05-.017.018-.046.018zm2.698-2.817q0-.028.023-.045.022-.023.05-.023h.503q.028 0 .045.023.017.017.011.045l-.338 2.749q-.006.028-.029.05-.017.018-.045.018h-.502q-.028 0-.045-.017-.017-.023-.012-.051l.012-.124q.006-.017-.006-.023-.012-.006-.023.011-.192.243-.542.243-.293 0-.474-.164-.175-.163-.175-.508 0-.045.011-.169l.249-2.015q0-.028.022-.045.023-.023.051-.023h.503q.028 0 .045.023.017.017.011.045l-.231 1.874q-.006.04-.006.101 0 .322.27.322.159 0 .26-.118.107-.124.13-.333zm1.643 2.85q-.401 0-.633-.186-.225-.186-.225-.502 0-.074.006-.107l.006-.04q.006-.028.022-.045.023-.023.051-.023h.474q.028 0 .045.023.017.017.012.045l-.006.028q-.017.136.073.226t.237.09q.152 0 .248-.096.102-.101.102-.248 0-.124-.096-.198-.096-.073-.214-.124l-.159-.067q-.27-.113-.445-.277-.17-.164-.17-.474 0-.452.282-.711.283-.266.734-.266.39 0 .61.198.22.192.22.53 0 .046-.011.136-.006.028-.029.05-.016.018-.045.018h-.457q-.062 0-.062-.068l.006-.034q.017-.135-.062-.226-.074-.09-.215-.09-.158 0-.254.113-.096.107-.096.243 0 .135.096.208.102.068.339.175.198.085.333.17.136.084.237.237.102.147.102.361 0 .423-.294.677-.293.254-.762.254zm1.27-.033q-.029 0-.051-.017-.017-.023-.012-.051l.063-.48q0-.045.033-.085l1.14-1.625q.018-.034-.01-.034h-.864q-.028 0-.045-.017-.017-.023-.012-.05l.057-.458q.006-.028.022-.045.023-.023.051-.023h1.58q.063 0 .063.068l-.062.48q0 .04-.034.084l-1.169 1.626q-.017.034.017.034h.931q.063 0 .063.068l-.057.457q-.006.028-.028.05-.017.017-.045.017zm2.37-2.71q-.028 0-.05-.017-.017-.022-.012-.05l.08-1.101q.01-.068.073-.068h.508q.062 0 .05.068l-.197 1.1q-.006.029-.028.051-.023.017-.051.017zm1.27 2.743q-.4 0-.632-.186-.226-.186-.226-.502 0-.074.006-.107l.006-.04q.006-.028.023-.045.023-.023.05-.023h.475q.028 0 .045.023.017.017.011.045l-.006.028q-.017.136.074.226.09.09.237.09.152 0 .248-.096.102-.101.102-.248 0-.124-.096-.198-.096-.073-.215-.124l-.158-.067q-.27-.113-.446-.277-.169-.164-.169-.474 0-.452.282-.711.282-.266.734-.266.39 0 .61.198.22.192.22.53 0 .046-.012.136-.006.028-.028.05-.017.018-.045.018h-.457q-.062 0-.062-.068l.006-.034q.017-.135-.062-.226-.074-.09-.215-.09-.158 0-.254.113-.096.107-.096.243 0 .135.096.208.102.068.339.175.197.085.333.17.135.084.237.237.101.147.101.361 0 .423-.293.677-.294.254-.762.254zM138.728 39.893q-.063 0-.063-.062l-.028-.593q0-.028-.034-.028h-.796q-.028 0-.039.028l-.175.593q-.017.062-.079.062h-.497q-.073 0-.05-.074l1.275-3.815q.017-.062.08-.062h.58q.063 0 .063.062l.344 3.815v.012q0 .062-.068.062zm-.79-1.225q-.007.028.028.028h.603q.034 0 .034-.028l-.101-1.784q0-.017-.012-.017-.01 0-.022.017zm3.245-1.592q0-.028.022-.045.023-.023.051-.023h.503q.028 0 .045.023.017.017.011.045l-.339 2.749q-.006.028-.028.05-.017.018-.045.018h-.502q-.029 0-.045-.017-.017-.023-.012-.051l.012-.124q.006-.017-.006-.023-.012-.005-.023.012-.192.242-.542.242-.293 0-.474-.163-.175-.164-.175-.508 0-.046.011-.17l.249-2.015q0-.028.022-.045.023-.023.051-.023h.502q.029 0 .046.023.016.017.01.045l-.23 1.874q-.007.04-.007.102 0 .321.271.321.158 0 .26-.118.107-.124.13-.333zm2.263.328q-.006.028-.028.05-.017.017-.045.017h-.339q-.022 0-.034.028l-.18 1.48q-.006.039-.006.1 0 .136.062.193.062.056.186.05h.04q.028 0 .045.023.017.017.011.045l-.05.435q-.007.028-.029.05-.023.018-.05.018h-.187q-.333 0-.508-.108-.17-.112-.17-.412 0-.04.012-.152l.214-1.722q0-.028-.028-.028h-.192q-.028 0-.045-.017-.017-.022-.011-.05l.04-.328q.005-.028.022-.045.023-.023.05-.023h.193q.034 0 .034-.028l.073-.62q.006-.029.028-.046.023-.022.051-.022h.48q.028 0 .045.022.017.017.011.045l-.073.621q-.011.028.022.028h.34q.027 0 .044.023.017.017.012.045zm.994 2.534q-.412 0-.644-.203-.231-.21-.231-.57 0-.046.011-.147l.141-1.135q.051-.417.345-.666.293-.254.745-.254.412 0 .643.215.232.209.232.564 0 .04-.012.141l-.135 1.135q-.051.423-.345.672-.293.248-.75.248zm.073-.57q.153 0 .26-.107.107-.113.13-.294l.13-1.039.005-.067q0-.147-.084-.237-.08-.096-.215-.096-.152 0-.26.113-.107.107-.13.287l-.13 1.039-.005.068q0 .152.079.242.085.09.22.09zm4.025.525q-.057 0-.068-.057l-.265-1.62q0-.005-.006-.011-.006-.011-.017-.011h-.294q-.028 0-.028.028l-.198 1.603q-.006.028-.028.05-.017.018-.045.018h-.502q-.062 0-.062-.068l.468-3.816q.006-.028.028-.045.023-.022.051-.022h1.027q.395 0 .621.265.232.26.232.694 0 .057-.012.192-.045.35-.208.604-.164.254-.413.384-.022.005-.022.034l.327 1.699v.022q0 .057-.062.057zm-.44-3.387q-.029 0-.029.028l-.141 1.124q0 .028.023.028h.338q.22 0 .367-.192.153-.198.153-.52 0-.22-.102-.344-.102-.124-.277-.124zm2.144.107q-.158 0-.254-.096-.09-.096-.09-.248 0-.198.124-.327.13-.13.316-.13.153 0 .243.096.096.09.096.237 0 .197-.13.333-.124.135-.305.135zm-.649 3.28q-.028 0-.045-.017-.017-.023-.011-.051l.333-2.749q.006-.028.022-.045.023-.023.051-.023h.508q.028 0 .045.023.017.017.011.045l-.338 2.749q-.006.028-.028.05-.017.018-.046.018zm2.004.045q-.412 0-.644-.203-.225-.21-.225-.57 0-.046.011-.147l.141-1.14q.05-.412.344-.66.294-.255.74-.255.412 0 .643.21.232.208.232.547 0 .073-.006.113l-.012.079q-.006.028-.028.05-.017.017-.045.017l-.508.023q-.062 0-.057-.068l.006-.056q.017-.141-.067-.243-.08-.107-.226-.107-.147 0-.254.113-.107.112-.13.287l-.13 1.045-.006.067q0 .147.08.243.078.09.208.09.147 0 .254-.101.113-.107.13-.254l.011-.057q0-.028.023-.045.023-.022.05-.022l.503.005q.028 0 .045.023.017.017.012.045l-.012.102q-.045.39-.338.632-.294.237-.745.237zm3.443-1.315q0 .028-.023.05-.022.017-.05.017h-1.208q-.029 0-.029.029l-.033.254-.006.067q0 .147.079.243.079.09.208.09.125 0 .22-.079.102-.084.153-.214.023-.057.079-.057l.485.023q.029 0 .04.023.017.017.011.05-.085.396-.355.61-.271.209-.7.209-.412 0-.644-.203-.226-.21-.226-.57 0-.04.012-.142l.14-1.145q.052-.412.345-.66.294-.255.74-.255.412 0 .637.215.226.209.226.564 0 .09-.006.136zm-.83-1.095q-.146 0-.254.113-.107.112-.13.287l-.033.254q0 .029.022.029h.621q.028 0 .028-.029l.034-.254.006-.067q0-.147-.079-.237-.079-.096-.214-.096zM139.394 44.16q-.057.525-.384.813-.328.282-.807.282h-.96q-.062 0-.062-.068l.468-3.815q.006-.029.029-.046.022-.022.05-.022h.864q.469 0 .728.22.265.22.265.655 0 .062-.01.186-.074.581-.503.83-.034.017-.017.034.35.26.35.756 0 .05-.011.175zm-1.14-2.292q-.029 0-.029.028l-.13 1.05q-.01.029.023.029h.277q.225 0 .366-.142.147-.14.181-.4.006-.04.006-.113 0-.215-.107-.333-.107-.119-.31-.119zm-.029 2.817q.22 0 .361-.158.147-.158.187-.446.006-.045.006-.13 0-.231-.108-.361-.101-.136-.293-.136h-.316q-.034 0-.034.029l-.141 1.174q-.011.028.022.028zm2.36.615q-.412 0-.644-.203-.231-.209-.231-.57 0-.045.011-.147l.141-1.134q.05-.418.344-.667.294-.254.745-.254.413 0 .644.215.231.209.231.564 0 .04-.01.142l-.136 1.134q-.051.423-.345.672-.293.248-.75.248zm.073-.57q.152 0 .26-.107.107-.113.13-.294l.13-1.038.005-.068q0-.147-.084-.237-.08-.096-.215-.096-.152 0-.26.113-.107.107-.13.288l-.13 1.038-.005.068q0 .152.079.243.084.09.22.09zm2.292.57q-.412 0-.644-.203-.231-.209-.231-.57 0-.045.011-.147l.141-1.134q.05-.418.344-.667.294-.254.746-.254.412 0 .643.215.231.209.231.564 0 .04-.01.142l-.136 1.134q-.051.423-.345.672-.293.248-.75.248zm.073-.57q.152 0 .26-.107.107-.113.13-.294l.13-1.038.005-.068q0-.147-.084-.237-.08-.096-.215-.096-.152 0-.26.113-.107.107-.13.288l-.13 1.038-.005.068q0 .152.079.243.085.09.22.09zm2.845-1.964q-.006.028-.028.05-.017.017-.046.017h-.338q-.023 0-.034.029l-.18 1.479q-.007.039-.007.101 0 .136.062.192.062.056.187.05h.04q.027 0 .044.023.017.017.012.046l-.051.434q-.006.028-.028.051-.023.017-.051.017h-.186q-.333 0-.508-.107-.17-.113-.17-.412 0-.04.012-.153l.214-1.721q0-.029-.028-.029h-.192q-.028 0-.045-.016-.017-.023-.012-.051l.04-.328q.006-.028.022-.045.023-.022.051-.022h.192q.034 0 .034-.029l.074-.62q.006-.029.028-.046.022-.022.05-.022h.48q.028 0 .045.022.017.017.012.046l-.074.62q-.01.029.023.029h.339q.028 0 .045.022.017.017.011.045zm.926 2.523q-.401 0-.633-.186-.225-.187-.225-.503 0-.073.006-.107l.006-.04q.006-.028.022-.045.023-.022.051-.022h.474q.028 0 .045.022.017.017.012.045l-.006.029q-.017.135.073.225t.237.09q.152 0 .248-.095.102-.102.102-.249 0-.124-.096-.197-.096-.074-.214-.124l-.158-.068q-.271-.113-.446-.277-.17-.163-.17-.474 0-.451.283-.71.282-.266.733-.266.39 0 .61.197.22.192.22.53 0 .046-.011.136-.006.029-.028.051-.017.017-.046.017h-.457q-.062 0-.062-.068l.006-.034q.017-.135-.062-.225-.073-.09-.215-.09-.158 0-.254.112-.095.108-.095.243t.095.209q.102.068.34.175.197.084.332.17.136.084.237.236.102.147.102.361 0 .424-.294.678-.293.254-.762.254zm2.8-2.523q-.007.028-.029.05-.017.017-.045.017h-.339q-.023 0-.034.029l-.18 1.479q-.006.039-.006.101 0 .136.062.192.062.056.186.05h.04q.028 0 .045.023.016.017.01.046l-.05.434q-.006.028-.028.051-.023.017-.051.017h-.186q-.333 0-.508-.107-.17-.113-.17-.412 0-.04.012-.153l.214-1.721q0-.029-.028-.029h-.192q-.028 0-.045-.016-.017-.023-.011-.051l.04-.328q.005-.028.022-.045.022-.022.05-.022h.192q.034 0 .034-.029l.074-.62q.006-.029.028-.046.023-.022.05-.022h.48q.029 0 .046.022.017.017.01.046l-.072.62q-.012.029.022.029h.339q.028 0 .045.022.017.017.011.045zm1.568-.43q.153 0 .226.057.04.034.023.085l-.153.525q-.017.068-.084.04-.08-.023-.136-.023-.068 0-.124.017-.152.022-.271.18-.113.153-.141.367l-.198 1.598q-.006.028-.028.05-.017.017-.045.017h-.502q-.029 0-.046-.017-.016-.022-.01-.05l.332-2.744q.006-.028.028-.045.023-.022.051-.022h.502q.029 0 .046.022.017.017.011.045l-.034.26q0 .023.011.028.012 0 .017-.022.192-.367.525-.367zm1.761.102q0-.028.023-.045.023-.022.05-.022h.503q.028 0 .045.022.017.017.012.045l-.339 2.75q-.006.027-.028.05-.017.017-.045.017h-.503q-.028 0-.045-.017-.017-.023-.011-.05l.022-.17q0-.023-.011-.023t-.023.017q-.214.288-.564.288-.316 0-.48-.186-.158-.192-.158-.53 0-.136.011-.204l.142-1.14q.056-.435.27-.672.22-.243.582-.243.152 0 .282.068.136.068.209.22.011.017.017.017.011 0 .017-.022zm-.615 2.298q.147 0 .248-.108.108-.112.13-.293l.13-1.044q.006-.023.006-.074 0-.146-.079-.237-.073-.09-.203-.09-.152 0-.26.113-.101.107-.124.288l-.13 1.044q-.006.022-.006.068 0 .152.08.242.078.09.208.09zm2.947-2.41q.327 0 .496.197.175.192.175.53 0 .063-.011.187l-.136 1.14q-.056.435-.293.677-.231.243-.593.243-.124 0-.254-.045-.124-.05-.214-.158-.012-.011-.023-.006-.011.006-.011.023l-.141 1.14q-.006.028-.028.045-.017.023-.046.023h-.502q-.062 0-.062-.068l.468-3.816q.006-.028.023-.045.023-.022.05-.022h.509q.028 0 .045.022.017.017.011.045l-.011.068q0 .017.011.023.017 0 .04-.023.209-.18.497-.18zm.033.897q0-.152-.084-.243-.08-.096-.215-.096-.147 0-.248.113-.102.113-.13.294l-.124 1.044q-.006.028-.006.079 0 .147.073.237.08.085.21.085.152 0 .259-.108.107-.112.13-.293l.13-1.044zm2.382-.898q.328 0 .497.198.175.192.175.53 0 .063-.011.187l-.136 1.14q-.056.435-.293.677-.232.243-.593.243-.124 0-.254-.045-.124-.05-.214-.158-.012-.011-.023-.006-.011.006-.011.023l-.141 1.14q-.006.028-.029.045-.016.023-.045.023h-.502q-.062 0-.062-.068l.468-3.816q.006-.028.023-.045.022-.022.05-.022h.509q.028 0 .045.022.017.017.011.045l-.011.068q0 .017.011.023.017 0 .04-.023.209-.18.496-.18zm.034.898q0-.152-.084-.243-.08-.096-.215-.096-.147 0-.248.113-.102.113-.13.294l-.124 1.044q-.006.028-.006.079 0 .147.073.237.08.085.209.085.152 0 .26-.108.107-.112.13-.293l.13-1.044zm1.58-1.247q-.157 0-.253-.096-.09-.096-.09-.249 0-.197.124-.327.13-.13.316-.13.152 0 .242.096.096.09.096.237 0 .198-.13.333-.124.136-.304.136zm-.648 3.279q-.029 0-.046-.017-.016-.023-.01-.05l.332-2.75q.006-.028.023-.045.022-.022.05-.022h.509q.028 0 .045.022.017.017.011.045l-.339 2.75q-.006.027-.028.05-.017.017-.045.017zm2.641-2.93q.31 0 .469.187.158.186.158.536 0 .102-.017.22l-.237 1.92q-.006.027-.028.05-.017.017-.046.017h-.502q-.028 0-.045-.017-.017-.023-.011-.05l.225-1.87q.006-.033.006-.1 0-.159-.073-.243-.068-.085-.198-.085-.158 0-.26.118-.1.113-.13.328l-.225 1.851q-.006.028-.028.051-.017.017-.045.017h-.503q-.028 0-.045-.017-.017-.023-.011-.05l.333-2.75q.006-.028.028-.045.023-.022.05-.022h.503q.028 0 .045.022.017.017.012.045l-.012.113q-.006.017.006.023.017 0 .034-.023.21-.226.548-.226zm2.444.113q0-.028.023-.045.022-.022.05-.022h.503q.028 0 .045.022.017.017.012.045l-.334 2.71q-.073.61-.383.937-.31.333-1 .333-.118 0-.18-.006-.056-.006-.056-.073l.056-.435q.011-.073.079-.062.31.006.485-.079t.254-.248q.085-.164.119-.43l.006-.061q.006-.017-.006-.017-.011-.006-.023.01-.214.244-.547.244-.322 0-.486-.187-.163-.192-.163-.536 0-.056.011-.192l.135-1.106q.057-.435.277-.672.226-.242.587-.242.147 0 .277.056.13.056.209.186.006.017.016.017.012-.005.017-.022zm-.61 2.258q.147 0 .249-.107.107-.113.13-.288l.124-1.01q.006-.023.006-.074 0-.146-.079-.237-.073-.09-.203-.09-.147 0-.254.113-.107.113-.13.288l-.124 1.01q-.006.023-.006.068 0 .147.079.237t.209.09zM138.073 50.662q-.412 0-.655-.237-.243-.237-.243-.626 0-.057.012-.158l.017-.147q.006-.028.022-.045.023-.023.05-.023h.498q.062 0 .062.068l-.017.113q-.006.028-.006.09 0 .186.09.294.09.107.237.107.186 0 .316-.153.136-.152.136-.389 0-.17-.107-.294-.102-.124-.39-.36-.226-.187-.367-.328-.135-.141-.231-.333-.09-.192-.09-.44 0-.046.01-.158.057-.469.368-.746.31-.276.756-.276.412 0 .65.243.242.237.242.643 0 .05-.011.175l-.012.136q-.006.028-.028.05-.023.017-.05.017h-.492q-.028 0-.045-.017-.017-.022-.011-.05l.017-.147q.006-.034.006-.096 0-.18-.09-.282-.091-.108-.243-.108-.181 0-.31.147-.125.141-.125.39 0 .163.102.299.101.13.366.355.271.226.418.373.147.147.226.316.079.164.079.372 0 .051-.011.164-.063.486-.379.773-.316.288-.767.288zm2.354 0q-.413 0-.644-.203-.226-.209-.226-.57 0-.045.012-.147l.14-1.14q.051-.412.345-.66.294-.254.74-.254.411 0 .643.209.231.208.231.547 0 .073-.006.113l-.011.079q-.006.028-.028.05-.017.018-.045.018l-.508.022q-.062 0-.057-.067l.006-.057q.017-.141-.067-.243-.08-.107-.226-.107-.147 0-.254.113-.108.113-.13.288l-.13 1.044-.006.068q0 .147.08.243.078.09.208.09.147 0 .254-.102.113-.107.13-.254l.011-.056q0-.028.023-.045.022-.023.05-.023l.503.006q.028 0 .045.022.017.017.011.045l-.011.102q-.045.39-.339.632-.293.237-.745.237zm2.895-2.963q.153 0 .226.056.04.034.022.085l-.152.525q-.017.068-.085.04-.079-.023-.135-.023-.068 0-.124.017-.153.022-.271.18-.113.153-.141.367l-.198 1.598q-.006.028-.028.05-.017.018-.045.018h-.503q-.028 0-.045-.017-.017-.023-.011-.051l.333-2.743q.006-.029.028-.046.023-.022.05-.022h.503q.028 0 .045.022.017.017.012.046l-.034.26q0 .022.011.027.011 0 .017-.022.192-.367.525-.367zm.954-.361q-.158 0-.254-.096-.09-.096-.09-.249 0-.197.124-.327.13-.13.316-.13.152 0 .243.096.096.09.096.237 0 .198-.13.333-.124.136-.305.136zm-.65 3.28q-.027 0-.044-.018-.017-.022-.012-.05l.333-2.75q.006-.028.023-.045.023-.022.05-.022h.509q.028 0 .045.022.017.017.011.046l-.338 2.748q-.006.029-.029.051-.016.017-.045.017zm2.626-2.93q.327 0 .496.197.175.192.175.53 0 .063-.011.187l-.135 1.14q-.057.435-.294.678-.231.242-.593.242-.124 0-.254-.045-.124-.05-.214-.158-.011-.011-.023-.005-.011.005-.011.022l-.141 1.14q-.006.028-.028.045-.017.023-.046.023h-.502q-.062 0-.062-.068l.468-3.815q.006-.029.023-.046.023-.022.05-.022h.509q.028 0 .045.022.017.017.011.046l-.01.067q0 .017.01.023.017 0 .04-.023.209-.18.497-.18zm.033.897q0-.152-.084-.243-.08-.095-.215-.095-.146 0-.248.112-.102.113-.13.294l-.124 1.044q-.006.028-.006.08 0 .146.073.236.08.085.21.085.152 0 .259-.107.107-.113.13-.294l.13-1.044zm2.32-.457q-.006.028-.028.05-.017.018-.045.018h-.339q-.022 0-.034.028l-.18 1.479q-.006.04-.006.101 0 .136.062.192.062.057.186.051h.04q.028 0 .045.023.017.017.011.045l-.05.434q-.007.029-.029.051-.022.017-.05.017H148q-.333 0-.508-.107-.17-.113-.17-.412 0-.04.012-.153l.215-1.721q0-.028-.029-.028h-.192q-.028 0-.045-.017-.017-.023-.011-.051l.04-.327q.005-.029.022-.046.023-.022.05-.022h.193q.034 0 .034-.028l.073-.621q.006-.028.028-.045.023-.023.051-.023h.48q.028 0 .045.023.017.017.011.045l-.073.62q-.011.029.022.029h.34q.027 0 .044.022.017.017.012.046zm.926 2.523q-.4 0-.632-.186-.226-.187-.226-.503 0-.073.006-.107l.006-.04q.006-.028.023-.045.022-.022.05-.022h.475q.028 0 .045.022.017.017.011.046l-.006.028q-.017.135.074.226.09.09.237.09.152 0 .248-.096.102-.102.102-.248 0-.125-.096-.198-.096-.073-.215-.124l-.158-.068q-.27-.113-.446-.276-.17-.164-.17-.475 0-.451.283-.71.282-.266.734-.266.39 0 .61.198.22.191.22.53 0 .045-.012.136-.006.028-.028.05-.017.017-.045.017h-.457q-.062 0-.062-.067l.006-.034q.016-.136-.063-.226-.073-.09-.214-.09-.158 0-.254.113-.096.107-.096.242 0 .136.096.21.102.067.339.174.197.085.333.17.135.084.237.236.101.147.101.362 0 .423-.293.677-.294.254-.762.254z" style="font-style:italic;font-weight:600;font-stretch:condensed;-inkscape-font-specification:&quot;Barlow Condensed, Semi-Bold Italic Condensed&quot;;text-align:start;text-anchor:start;fill:#000"/>
      <path d="m155.558 51.033-.386-.893q.529-.198 1.036-.54zm-1.764-2.27-.893-.387 1.433-.65q-.342.507-.54 1.036zm3.197-2.007q.121 0 .176.01.044.354-.088.729-.176.54-.695 1.047-.595.606-1.41.915l-.508-.496q.33-.827.926-1.411.441-.441.904-.64.353-.154.695-.154zm0-.463q-.43 0-.86.176-.551.232-1.07.75-.65.64-1.025 1.576-.055.133-.022.265t.133.231l.496.497q.143.143.33.143.078 0 .166-.033.904-.342 1.576-1.025.375-.364.607-.772.187-.33.264-.684.066-.275.055-.54 0-.198-.044-.364l-.044-.132-.154-.044q-.188-.044-.408-.044zm-1.103 1.753q-.132-.144-.132-.336 0-.193.138-.331t.33-.138q.193 0 .331.138t.138.33q0 .193-.138.331t-.33.138q-.193 0-.337-.132zm-1.334 1.664-.33-.33zm-.617 1.28.86-.85q-.121-.033-.232-.11l-.959.96zm-.992 0h.33l1.125-1.114-.342-.331-1.113 1.114zm0-.662.959-.96q-.077-.11-.11-.23l-.85.859z" style="fill:#f60"/>
    </g>
    <g aria-label="Powered by Wayland" style="font-size:9.17222px;font-family:&quot;Barlow Condensed&quot;;-inkscape-font-specification:&quot;Barlow Condensed, &quot;;text-align:center;text-anchor:middle;fill:#fff">
      <path d="M85.19 110.64q.407.532.264 1.16-.136.624-.77 1.108-.626.48-1.258.454-.624-.031-1.025-.556l-.573-.75q-.023-.03-.052-.008l-2.2 1.682q-.074.056-.13-.017l-.283-.371q-.056-.073.017-.129l4.963-3.793q.073-.055.128.017zm-2.433 1.756q.25.328.669.331.418.004.856-.33.437-.335.543-.74.114-.41-.137-.737l-.506-.663q-.023-.03-.052-.007l-1.873 1.43q-.029.023-.007.052zm-.292 4.978q-.463-.47-.465-1.022.004-.545.455-.989l1.406-1.383q.445-.437 1.003-.433.557.005 1.014.47.463.47.459 1.028-.005.558-.45.995l-1.406 1.383q-.45.444-1.002.433-.551-.011-1.014-.482zm.412-.405q.244.248.568.238.331-.004.612-.28l1.347-1.326q.282-.276.29-.607.023-.33-.221-.579-.245-.248-.576-.232-.324.01-.605.287l-1.347 1.325q-.281.277-.297.601-.016.324.229.573zm1.89 2.448q-.066-.05-.03-.126l1.937-4.131.012-.015q.05-.065.115-.015l.357.273q.073.056.03.127l-1.606 3.184q-.003.02.004.025.007.006.026-.003l2.668-2.37q.065-.054.13-.003l.328.25q.073.057.03.128l-1.59 3.194q-.005.02.003.026.007.006.025-.003l2.67-2.37q.064-.054.13-.003l.344.275q.08.06.004.13l-3.476 2.941q-.058.06-.13.004l-.372-.284q-.066-.05-.03-.127l1.502-3.078q.01-.028.002-.033-.007-.006-.031.01l-2.558 2.27q-.058.06-.13.004zm6.95 1.976q-.044.08-.124.035l-1.823-1.025q-.032-.018-.05.014l-.328.584q-.189.335-.126.655.074.315.378.486.256.144.517.091.274-.056.47-.273.064-.058.128-.022l.39.24q.033.019.043.056.01.038-.02.073-.33.436-.814.531-.473.092-.993-.2-.567-.32-.722-.848-.147-.525.163-1.077l.972-1.726q.305-.544.83-.69.537-.151 1.105.168.575.324.718.856.155.53-.151 1.073zm-.283-2.433q-.304-.17-.617-.062-.301.104-.494.448l-.302.535q-.018.032.014.05l1.312.738q.031.018.05-.014l.3-.536q.194-.344.12-.66-.071-.323-.383-.498zm3.408 1.042q.21.091.322.25.044.059-.006.127l-.29.394q-.042.072-.124.007-.079-.094-.23-.16-.067-.03-.105-.035-.31-.115-.635.104-.321.21-.507.64l-1.096 2.523q-.037.085-.12.048l-.43-.186q-.084-.037-.048-.12l1.776-4.09q.036-.084.12-.048l.43.187q.083.036.047.12l-.22.505q-.01.025-.002.03.017.006.041-.003.522-.533 1.077-.292zm2.426 3.473q-.028.088-.115.06l-1.994-.632q-.035-.01-.046.024l-.202.639q-.117.367.01.667.137.294.47.399.28.088.525-.017.256-.11.403-.363.051-.07.121-.048l.432.156q.035.011.053.046.018.034-.005.075-.233.494-.689.687-.444.186-1.012.006-.62-.197-.88-.683-.251-.484-.06-1.087l.598-1.89q.188-.594.672-.845.495-.256 1.116-.06.63.2.878.692.26.486.07 1.081zm-.775-2.323q-.332-.106-.617.064-.273.164-.392.54l-.186.586q-.01.035.024.046l1.434.454q.035.011.046-.024l.186-.586q.12-.376-.019-.67-.135-.302-.476-.41zm4.292-1.219q.017-.09.107-.073l.46.085q.09.017.073.107l-1.141 6.132q-.017.09-.107.073l-.46-.085q-.09-.017-.074-.107l.037-.199q.004-.018-.013-.03-.007-.01-.028.004-.414.315-.937.218-.577-.108-.849-.55-.27-.452-.156-1.065l.363-1.948q.117-.631.529-.937.413-.315.99-.207.532.099.793.548.015.022.026.014.02-.006.023-.023zm-1.825 5.594q.333.062.584-.134.262-.203.333-.582l.347-1.866q.072-.388-.1-.663-.162-.282-.496-.344-.343-.064-.613.138-.26.194-.333.582l-.347 1.866q-.07.379.1.663.182.276.525.34zm5.83-3.696q.579 0 .927.386.358.376.358 1.018v1.98q-.001.625-.35 1.019-.348.385-.935.385-.248 0-.477-.092-.23-.1-.404-.293-.018-.019-.037-.01-.009.01-.009.028v.202q0 .092-.091.092h-.468q-.092 0-.092-.092l.002-6.237q0-.092.092-.092h.468q.091 0 .091.092v1.98q0 .02.018.028.018.01.037-.018.165-.183.394-.275.23-.1.477-.1zm.633 1.45q0-.395-.22-.634-.22-.247-.577-.247-.34 0-.55.247-.212.239-.212.633v1.899q0 .385.21.633.211.238.55.238.358 0 .579-.238.22-.248.22-.633zm1.7 5.026q-.02.002-.04-.023-.022-.025-.026-.062l-.043-.364q-.01-.091.08-.102.282-.042.425-.16.153-.12.223-.386.07-.267.109-.807.007-.02-.003-.027l-.003-.028-1.68-4.347-.013-.026q-.009-.073.083-.084l.492-.057q.09-.01.11.07l1.22 3.487q.012.026.02.025.01 0 .016-.03l.374-3.672q.01-.084.09-.094l.512-.05q.046-.005.067.02.03.024.018.071l-.694 5.05q-.093.629-.223.94-.12.31-.363.448-.241.149-.706.203z" style="text-align:start;text-anchor:start;fill:#000"/>
      <path d="M113.17 125.363q-.078.026-.122-.046l-3.134-5.529-.006-.017q-.026-.079.053-.105l.687-.23q.087-.028.122.047l2.068 3.844q.014.015.023.012.01-.003.012-.023l-.738-4.29q-.017-.08.061-.107l.583-.195q.078-.026.113.05l2.034 3.856q.014.014.023.011.009-.003.011-.023l-.72-4.295q-.008-.084.061-.107l.679-.227q.043-.015.07.006.034.017.04.064l.881 6.281q.018.082-.07.11l-.617.207q-.07.023-.113-.05l-2.036-3.893q-.015-.014-.032-.009-.01.003-.003.02l.749 4.324q.017.082-.061.108zm3.54-6.523q.595-.308 1.164-.126.576.177.892.788l1.431 2.77q.042.082-.04.124l-.619.32q-.081.042-.123-.04l-.093-.179q-.008-.016-.029-.016-.012-.004-.02.021-.108.49-.663.776-.464.24-.957.164-.49-.088-.84-.764-.365-.709-.11-1.254.26-.557.952-.915l.473-.244q.032-.017.016-.05l-.122-.236q-.177-.342-.445-.462-.273-.127-.534.007-.203.106-.27.316-.067.21.022.443.042.081-.04.123l-.66.341q-.081.042-.123-.04-.229-.542-.022-1.061.206-.52.76-.806zm1.718 3.665q.285-.147.404-.436.12-.289-.049-.615l-.286-.554q-.017-.032-.05-.016l-.496.257q-.326.168-.43.449-.107.272.066.606.152.293.374.364.222.071.467-.055zm3.431.992q-.015.01-.046-.002-.03-.013-.051-.043l-.304-.448q-.051-.076.025-.128.238-.172.328-.333.098-.166.053-.412-.037-.252-.224-.657l-.033-.033-3.524-3.108-.023-.018q-.041-.06.035-.112l.623-.422q.076-.051.13.012l2.411 2.366q.023.017.03.012.009-.005 0-.033l-1.31-3.112q-.031-.078.037-.125l.635-.419q.038-.026.069-.013.038.007.049.055l1.697 4.745q.21.622.236.97.03.356-.156.637-.178.276-.649.595zm1.988-3.653q-.072.058-.13-.014l-3.926-4.846q-.058-.07.013-.129l.542-.438q.071-.058.13.013l3.926 4.846q.057.071-.014.13zm-.907-5.513q.48-.467 1.076-.459.603.002 1.083.495l2.176 2.234q.064.066-.002.13l-.5.486q-.065.064-.13-.002l-.14-.144q-.013-.014-.032-.007-.013 0-.014.025.039.5-.408.935-.375.365-.868.436-.494.059-1.025-.487-.557-.572-.471-1.167.086-.609.644-1.153l.382-.37q.026-.026 0-.053l-.185-.19q-.27-.276-.56-.312-.298-.043-.509.161-.164.16-.167.38-.003.221.15.418.064.066-.002.13l-.532.518q-.066.064-.13-.002-.376-.453-.33-1.01.046-.557.493-.992zm2.71 3.007q.23-.224.26-.535.03-.31-.226-.573l-.435-.447q-.026-.027-.052 0l-.4.39q-.264.255-.28.553-.024.292.238.562.23.236.464.24.234.002.43-.19zm-.271-5.726q.36-.452.857-.443.495-.004 1.055.44l2.462 1.96q.072.057.015.128l-.434.546q-.057.072-.13.015l-2.404-1.913q-.301-.24-.569-.242-.268-.002-.45.227-.19.237-.132.505.055.255.338.503.043.034.037.042l2.376 1.89q.072.057.014.129l-.434.545q-.057.072-.128.015l-3.51-2.793q-.072-.057-.015-.128l.434-.546q.057-.072.129-.015l.194.155q.014.01.033.003.01-.015 0-.046-.11-.51.261-.976zm.643-3.819q-.079-.047-.031-.126l.36-.596q.048-.079.127-.031l5.335 3.23q.079.048.031.126l-.36.597q-.048.078-.127.03l-.125-.075q-.016-.01-.033 0-.013.004-.006.029.05.234.008.466-.044.23-.158.419-.313.518-.836.62-.526.089-1.083-.249l-1.632-.988q-.58-.351-.73-.849-.151-.51.162-1.028.114-.188.299-.334.184-.146.416-.21.025-.005.022-.018.002-.02-.014-.03zm4.488 3.479q.133-.22.082-.454-.054-.248-.27-.421l-1.766-1.07q-.254-.11-.49-.039-.24.059-.373.278-.152.252-.071.526.085.266.368.437l1.53.926q.282.171.558.123.28-.055.432-.306z" style="font-weight:500;font-stretch:condensed;-inkscape-font-specification:&quot;Barlow Condensed, Medium Condensed&quot;;fill:#000"/>
    </g>
    <path d="M70.867 136.427h71.896v6.889H70.867z" style="fill:#000;fill-opacity:1;stroke:none;stroke-width:.75018;stroke-opacity:1"/>
    <path d="M77.647 138.772q.284 0 .436.206.155.202.155.569v1.546q0 .045-.045.045h-.344q-.046 0-.046-.045v-1.514q0-.202-.083-.312-.082-.114-.22-.114-.147 0-.234.114-.087.11-.087.308v1.518q0 .045-.046.045h-.344q-.046 0-.046-.045v-1.514q0-.202-.082-.312-.083-.114-.22-.114-.147 0-.234.114-.087.11-.087.308v1.518q0 .045-.046.045h-.344q-.046 0-.046-.045v-2.243q0-.046.046-.046h.344q.046 0 .046.046v.115q0 .009.004.013.01.005.019-.005.091-.1.21-.15.12-.051.24-.051.348 0 .499.307.005.009.014.009.009-.005.013-.023.092-.156.234-.225.143-.068.294-.068zm1.293-.335q-.128 0-.21-.082-.083-.083-.083-.211 0-.129.082-.211.083-.083.211-.083.133 0 .211.083.083.078.083.21 0 .13-.083.212-.082.082-.21.082zm-.17 2.701q-.045 0-.045-.045v-2.243q0-.046.045-.046h.349q.046 0 .046.046v2.243q0 .045-.046.045zm1.83-2.366q.29 0 .44.197.157.193.157.55v1.574q0 .045-.046.045h-.349q-.046 0-.046-.045v-1.537q0-.192-.082-.298-.083-.105-.23-.105-.15 0-.238.105-.083.101-.092.289 0 .028-.004.028v1.518q0 .045-.046.045h-.349q-.046 0-.046-.045v-2.243q0-.046.046-.046h.349q.046 0 .046.046v.124q0 .009.009.014.009 0 .018-.014.165-.202.463-.202zm1.294-.335q-.129 0-.211-.082-.083-.083-.083-.211 0-.129.083-.211.082-.083.21-.083.134 0 .212.083.082.078.082.21 0 .13-.082.212-.083.082-.211.082zm-.17 2.701q-.046 0-.046-.045v-2.243q0-.046.046-.046h.348q.046 0 .046.046v2.243q0 .045-.046.045zm2.862-2.366q.284 0 .435.206.156.202.156.569v1.546q0 .045-.046.045h-.344q-.045 0-.045-.045v-1.514q0-.202-.083-.312-.083-.114-.22-.114-.147 0-.234.114-.087.11-.087.308v1.518q0 .045-.046.045h-.344q-.046 0-.046-.045v-1.514q0-.202-.082-.312-.083-.114-.22-.114-.147 0-.234.114-.088.11-.088.308v1.518q0 .045-.045.045h-.344q-.046 0-.046-.045v-2.243q0-.046.046-.046h.344q.045 0 .045.046v.115q0 .009.005.013.01.005.018-.005.092-.1.211-.15.12-.051.239-.051.348 0 .5.307.004.009.014.009.009-.005.013-.023.092-.156.234-.225.142-.068.294-.068zm1.802-.005q.335 0 .546.21.215.212.215.556v1.56q0 .045-.046.045h-.348q-.046 0-.046-.046v-.1q0-.01-.01-.015-.004-.005-.013.005-.16.193-.472.193-.262 0-.463-.147-.198-.151-.198-.532 0-.399.239-.582.243-.188.633-.188h.266q.018 0 .018-.018v-.133q0-.193-.092-.308-.091-.119-.238-.119-.115 0-.193.078t-.092.202q0 .046-.045.046h-.372q-.046 0-.046-.046.023-.294.234-.477.211-.184.523-.184zm-.078 2.022q.16 0 .28-.1.119-.101.119-.285v-.312q0-.018-.018-.018h-.28q-.184 0-.294.101-.11.096-.11.284 0 .165.083.248.082.082.22.082zm1.302.349q-.045 0-.045-.046v-3.118q0-.046.045-.046h.349q.046 0 .046.046v3.119q0 .045-.046.045zm1.092-2.701q-.128 0-.211-.083-.083-.082-.083-.21 0-.13.083-.212.083-.082.211-.082.133 0 .21.082.083.078.083.211 0 .129-.082.211-.083.083-.211.083zm-.17 2.701q-.046 0-.046-.046v-2.243q0-.045.046-.045h.349q.046 0 .046.045v2.243q0 .046-.046.046zm1.564.028q-.344 0-.546-.166-.197-.17-.197-.454v-.04q0-.047.046-.047h.326q.046 0 .046.046v.032q0 .124.096.211.096.083.238.083.138 0 .22-.083.088-.082.088-.21 0-.102-.06-.17-.06-.07-.142-.106-.078-.041-.243-.11-.18-.078-.298-.151-.115-.074-.207-.211-.091-.138-.091-.349 0-.312.192-.486.197-.174.528-.174.339 0 .532.179.197.178.197.486v.013q0 .046-.046.046h-.317q-.045 0-.045-.046v-.032q0-.123-.088-.21-.087-.088-.224-.088-.142 0-.225.087-.083.088-.083.211 0 .097.056.16.055.065.133.106.077.037.247.11.188.083.312.161.124.073.216.21.096.139.096.345 0 .298-.207.472-.201.175-.55.175zm2.023-2.087q0 .046-.046.046h-.321q-.019 0-.019.018v1.289q0 .183.065.257.064.068.201.064h.042q.046 0 .046.046v.293q0 .046-.046.046H91.9q-.293 0-.444-.115-.147-.114-.147-.435v-1.445q0-.018-.018-.018h-.18q-.045 0-.045-.046v-.23q0-.045.046-.045h.179q.018 0 .018-.019v-.518q0-.046.046-.046h.335q.045 0 .045.046v.518q0 .019.019.019h.32q.047 0 .047.046zm.591-.642q-.128 0-.21-.083-.083-.082-.083-.21 0-.13.082-.212.083-.082.211-.082.133 0 .211.082.083.078.083.211 0 .129-.083.211-.082.083-.21.083zm-.17 2.701q-.045 0-.045-.046v-2.243q0-.045.046-.045h.348q.046 0 .046.045v2.243q0 .046-.046.046zm1.629.037q-.354 0-.564-.198-.207-.197-.207-.532v-.949q0-.325.207-.527.21-.202.564-.202.234 0 .408.092.179.087.27.243.097.151.097.344v.06q0 .045-.046.045l-.349.014q-.046 0-.046-.046v-.046q0-.133-.096-.23-.096-.095-.238-.095-.147 0-.239.105-.092.106-.092.27v.895q0 .165.092.27.092.106.239.106.142 0 .238-.096.096-.097.096-.23v-.046q0-.045.046-.045l.349.005q.046 0 .046.045v.07q0 .297-.211.49-.211.188-.564.188zm1.105.357q-.023 0-.037-.018-.014-.014-.009-.032l.133-1.018q.005-.041.046-.041h.303q.05 0 .04.05l-.22 1.018q-.004.041-.05.041zm3.779-2.76q.284 0 .436.206.155.202.155.569v1.545q0 .046-.045.046h-.344q-.046 0-.046-.046v-1.513q0-.202-.083-.312-.082-.115-.22-.115-.147 0-.234.115-.087.11-.087.307v1.518q0 .046-.046.046h-.344q-.046 0-.046-.046v-1.513q0-.202-.082-.312-.083-.115-.22-.115-.147 0-.234.115-.087.11-.087.307v1.518q0 .046-.046.046h-.344q-.046 0-.046-.046v-2.242q0-.046.046-.046h.344q.046 0 .046.046v.114q0 .01.004.014.01.005.019-.005.091-.1.21-.151.12-.05.239-.05.349 0 .5.307.005.009.014.009.009-.005.013-.023.092-.156.234-.225.142-.069.294-.069zm1.784 2.403q-.358 0-.569-.198-.206-.201-.206-.532v-.949q0-.325.21-.527.212-.202.565-.202.358 0 .568.202.211.202.211.527v.95q0 .33-.21.531-.211.198-.57.198zm0-.386q.147 0 .243-.1.096-.106.096-.276v-.89q0-.164-.096-.27-.096-.105-.243-.105t-.243.105q-.092.106-.092.27v.89q0 .17.092.276.096.1.243.1zm2.265-2.815q0-.046.046-.046h.349q.046 0 .046.046v3.118q0 .046-.046.046h-.349q-.046 0-.046-.046v-.073q0-.01-.009-.014-.005-.005-.013.005-.088.082-.198.124-.11.041-.22.041-.302 0-.481-.197-.175-.202-.175-.528v-.953q0-.34.175-.532.179-.198.481-.198.11 0 .22.042.11.041.198.123.009.01.013.005.01-.005.01-.013zm-.325 2.82q.128 0 .215-.082.092-.088.11-.225v-1.032q-.018-.138-.11-.22-.087-.087-.215-.087-.147 0-.243.105-.092.106-.092.27v.895q0 .165.092.27.096.106.243.106zm2.747-.688q0 .046-.046.046h-1.037q-.018 0-.018.018v.248q0 .165.092.27.092.106.238.106.129 0 .216-.078t.11-.202q.014-.036.05-.036l.34.018q.023 0 .032.014.014.013.009.032-.032.298-.23.468-.192.165-.527.165-.353 0-.564-.198-.206-.197-.206-.527v-.954q0-.326.206-.527.211-.202.564-.202.358 0 .564.202.207.201.207.527zm-.77-.958q-.147 0-.24.105-.09.106-.09.27v.244q0 .018.017.018h.629q.018 0 .018-.018v-.243q0-.165-.092-.27-.091-.106-.243-.106zm2.068-.367q.114 0 .197.05.032.019.023.06l-.069.348q-.005.042-.055.028-.06-.023-.128-.023-.028 0-.083.009-.142.014-.238.156-.092.142-.092.344v1.339q0 .046-.046.046h-.349q-.045 0-.045-.046v-2.243q0-.046.045-.046h.349q.046 0 .046.046v.266q0 .014.005.019.009 0 .014-.014.133-.34.426-.34zm1.44-.01q.289 0 .44.198.156.193.156.55v1.573q0 .046-.046.046h-.349q-.045 0-.045-.046v-1.536q0-.193-.083-.298-.082-.106-.23-.106-.15 0-.238.106-.082.1-.091.289 0 .027-.005.027v1.518q0 .046-.046.046h-.349q-.046 0-.046-.046v-2.242q0-.046.046-.046h.349q.046 0 .046.046v.124q0 .009.009.013.009 0 .018-.013.165-.202.463-.202zm.967 2.762q-.023 0-.036-.019-.014-.013-.01-.032l.134-1.018q.005-.041.046-.041h.302q.05 0 .042.05l-.22 1.018q-.006.042-.051.042zm1.862-.395q-.046 0-.046-.046v-3.118q0-.046.046-.046h.349q.046 0 .046.046v1.738q0 .014.009.018.009.005.014-.009l.591-.89q.023-.027.055-.027h.358q.027 0 .037.019.009.013-.005.036l-.473.697q-.014.014-.005.028l.55 1.504.006.018q0 .032-.042.032h-.362q-.041 0-.055-.036l-.367-1.151q-.005-.028-.027-.005l-.276.399q-.009.009-.009.023v.724q0 .046-.045.046zm3.32-1.032q0 .046-.045.046h-1.037q-.018 0-.018.018v.248q0 .165.092.27.091.106.238.106.129 0 .216-.078t.11-.202q.014-.036.05-.036l.34.018q.023 0 .032.014.014.014.009.032-.032.298-.23.468-.192.165-.527.165-.353 0-.564-.197-.206-.198-.206-.528v-.954q0-.325.206-.527.21-.202.564-.202.358 0 .564.202.206.202.206.527zm-.77-.958q-.147 0-.238.105-.092.106-.092.27v.244q0 .018.018.018h.629q.018 0 .018-.018v-.243q0-.165-.092-.27-.091-.106-.243-.106zm1.096 2.903q-.009 0-.018-.014t-.009-.032v-.27q0-.047.046-.047.147-.005.23-.045.086-.042.137-.156.055-.115.091-.335l-.005-.023-.587-2.275-.005-.014q0-.036.046-.036h.376q.046 0 .05.041l.336 1.656q.005.013.009.013.005 0 .009-.013l.33-1.656q.009-.041.05-.041l.381.005q.023 0 .032.014.014.013.005.036l-.628 2.44q-.087.316-.175.468-.087.156-.243.22-.15.064-.435.064zm2.706-3.284q.303 0 .477.197.174.193.174.532v.954q0 .326-.179.528-.174.197-.472.197-.11 0-.225-.041-.11-.042-.197-.124-.009-.01-.018-.005-.005.005-.005.014v.073q0 .046-.046.046h-.349q-.045 0-.045-.046v-3.118q0-.046.045-.046h.349q.046 0 .046.046v.954q0 .009.009.014.009 0 .018-.014.175-.16.418-.16zm.216.757q0-.165-.097-.27-.091-.106-.238-.106-.142 0-.234.105-.092.106-.092.27v.895q0 .165.092.27.092.106.234.106.147 0 .238-.105.097-.106.097-.27zm1.61 1.65q-.358 0-.57-.196-.206-.202-.206-.532v-.95q0-.325.211-.527t.564-.202q.358 0 .57.202.21.202.21.527v.95q0 .33-.21.532-.212.197-.57.197zm0-.384q.146 0 .242-.101.097-.106.097-.275v-.89q0-.165-.097-.27-.096-.106-.243-.106-.146 0-.243.105-.091.106-.091.27v.89q0 .17.091.276.097.1.243.1zm1.962-2.023q.335 0 .546.211.216.211.216.555v1.56q0 .045-.046.045h-.349q-.046 0-.046-.046v-.1q0-.01-.009-.014-.005-.005-.014.005-.16.192-.472.192-.261 0-.463-.147-.197-.15-.197-.532 0-.398.238-.582.243-.188.633-.188h.266q.018 0 .018-.018v-.133q0-.193-.091-.308-.092-.119-.239-.119-.115 0-.193.078t-.091.202q0 .046-.046.046h-.372q-.045 0-.045-.046.022-.294.233-.477.211-.183.523-.183zm-.078 2.023q.16 0 .28-.101.12-.101.12-.285v-.311q0-.019-.02-.019h-.279q-.183 0-.293.101-.11.096-.11.284 0 .166.082.248.083.083.22.083zm2.16-2.01q.115 0 .197.051.033.019.023.06l-.068.349q-.005.04-.055.027-.06-.023-.129-.023-.027 0-.082.01-.142.013-.239.155-.091.142-.091.344v1.34q0 .045-.046.045h-.349q-.046 0-.046-.046v-2.242q0-.046.046-.046h.349q.046 0 .046.046v.266q0 .013.005.018.009 0 .013-.014.133-.34.427-.34zm1.541-.806q0-.046.046-.046h.349q.046 0 .046.046v3.118q0 .046-.046.046h-.349q-.046 0-.046-.046v-.073q0-.01-.009-.014-.005-.005-.014.005-.087.083-.197.124-.11.041-.22.041-.303 0-.481-.197-.175-.202-.175-.527v-.954q0-.34.175-.532.178-.197.481-.197.11 0 .22.04.11.042.197.125.01.009.014.005.01-.005.01-.014zm-.325 2.82q.128 0 .215-.082.092-.087.11-.225v-1.032q-.018-.137-.11-.22-.087-.087-.215-.087-.147 0-.243.105-.092.106-.092.27v.895q0 .165.092.27.096.106.243.106zm2.893.38q-.353 0-.564-.196-.206-.198-.206-.532v-.95q0-.325.206-.527.211-.202.564-.202.234 0 .409.092.178.087.27.243.096.151.096.344v.06q0 .045-.045.045l-.349.014q-.046 0-.046-.046v-.046q0-.133-.096-.229t-.239-.096q-.146 0-.238.105-.092.106-.092.27v.895q0 .165.092.27.092.106.238.106.143 0 .239-.096t.096-.23v-.045q0-.046.046-.046l.349.005q.045 0 .045.046v.068q0 .299-.21.491-.211.188-.565.188zm2.665-1.068q0 .046-.046.046h-1.036q-.019 0-.019.018v.248q0 .165.092.27.092.106.239.106.128 0 .215-.078t.11-.202q.014-.036.05-.036l.34.018q.023 0 .032.014.014.014.009.032-.032.298-.23.468-.192.165-.527.165-.353 0-.564-.197-.206-.198-.206-.528v-.954q0-.325.206-.527.211-.202.564-.202.358 0 .564.202.207.202.207.527zm-.77-.958q-.147 0-.239.105-.092.106-.092.27v.244q0 .018.019.018h.628q.018 0 .018-.018v-.243q0-.165-.091-.27-.092-.106-.244-.106zm2.114-.376q.289 0 .44.197.156.193.156.55v1.573q0 .046-.046.046h-.349q-.045 0-.045-.046v-1.536q0-.193-.083-.298-.083-.106-.23-.106-.15 0-.238.106-.082.1-.091.289 0 .027-.005.027v1.518q0 .046-.046.046h-.349q-.046 0-.046-.046v-2.242q0-.046.046-.046h.349q.046 0 .046.046v.124q0 .009.009.013.009 0 .018-.013.165-.202.463-.202zm1.963.307q0 .046-.046.046h-.321q-.019 0-.019.018v1.289q0 .183.065.257.064.069.201.064h.042q.046 0 .046.046v.293q0 .046-.046.046h-.143q-.293 0-.444-.114-.147-.115-.147-.436v-1.445q0-.018-.018-.018h-.18q-.045 0-.045-.046v-.23q0-.045.046-.045h.179q.018 0 .018-.018v-.519q0-.046.046-.046h.335q.045 0 .045.046v.519q0 .018.019.018h.32q.047 0 .047.046zm1.233-.298q.115 0 .197.05.033.019.023.06l-.068.349q-.005.04-.055.027-.06-.023-.129-.023-.027 0-.082.01-.143.013-.239.155-.092.142-.092.344v1.34q0 .045-.045.045h-.349q-.046 0-.046-.046v-2.242q0-.046.046-.046h.349q.045 0 .045.046v.266q0 .013.005.018.01 0 .014-.014.133-.34.427-.34zm.752-.344q-.128 0-.21-.083-.083-.082-.083-.21 0-.129.082-.211.083-.083.211-.083.133 0 .211.083.083.078.083.21 0 .129-.083.211-.082.083-.21.083zm-.17 2.701q-.045 0-.045-.046v-2.242q0-.046.046-.046h.348q.046 0 .046.046v2.242q0 .046-.046.046zm1.629.037q-.353 0-.564-.197-.207-.198-.207-.532v-.95q0-.325.207-.527.21-.202.564-.202.234 0 .408.092.179.087.27.243.097.151.097.344v.06q0 .045-.046.045l-.349.014q-.046 0-.046-.046v-.046q0-.133-.096-.229t-.238-.096q-.147 0-.239.105-.092.106-.092.27v.895q0 .165.092.27.092.106.239.106.142 0 .238-.096t.096-.23v-.045q0-.046.046-.046l.349.005q.046 0 .046.046v.068q0 .299-.211.491-.211.188-.564.188z" aria-label="minimalistic, modern, keyboard centric" style="font-weight:500;font-stretch:condensed;font-size:4.58611px;line-height:1;font-family:&quot;Barlow Condensed&quot;;-inkscape-font-specification:&quot;Barlow Condensed, Medium Condensed&quot;;fill:#fff;stroke-width:.451665"/>
  </g>
</svg>
